<?xml version="1.0" encoding="utf-8"?>
<!-- Generator: Adobe Illustrator 21.1.0, SVG Export Plug-In . SVG Version: 6.00 Build 0)  -->
<svg version="1.1" id="Layer_1" xmlns="http://www.w3.org/2000/svg" xmlns:xlink="http://www.w3.org/1999/xlink" x="0px" y="0px"
	 viewBox="0 0 20 20" style="enable-background:new 0 0 20 20;" xml:space="preserve">
<style type="text/css">
	.st0{fill:#FCD116;}
</style>
<g>
	<path class="st0" d="M9.5,7.1C8.8,7.3,8.4,7.9,8.4,8.6c0,1.2,0,2.3,0,3.5s0,2.4,0,3.5c0,0.5,0.2,0.9,0.6,1.2
		c0.6,0.4,1.2,0.5,1.9,0.1c0.5-0.3,0.8-0.7,0.8-1.3c0-2.3,0-4.7,0-7c0-0.5-0.2-0.9-0.5-1.2C10.6,7,10.1,6.9,9.5,7.1z"/>
	<ellipse transform="matrix(1.725649e-03 -1 1 1.725649e-03 5.4099 14.5932)" class="st0" cx="10" cy="4.6" rx="1.8" ry="1.8"/>
	<path class="st0" d="M10,20C4.5,20,0,15.5,0,10c0-2.7,1-5.2,3-7.1C4.8,1,7.3,0,10,0h0.1C15.5,0,20,4.5,20,10S15.5,20,10,20z M10,1
		C7.6,1,5.3,1.9,3.6,3.6S1,7.6,1,10c0,5,4.1,9,9,9c5,0,9-4.1,9-9S15,1,10,1C10.1,1,10,1,10,1z"/>
</g>
</svg>
