<svg width="14" height="46" viewBox="0 0 14 46" xmlns="http://www.w3.org/2000/svg" xmlns:xlink="http://www.w3.org/1999/xlink"><title>DFFF0576-4202-483A-B0FC-B325E8267DD2</title><defs><path d="M23.406 199.407c.06.151-2.842.026-3.065-.163a.803.803 0 0 0-.133.345c.073-.087-1.474-.186-1.637-.165-.458.057-.48 0-.817.001-.05 0-.927.026-1.157.179-.236.119-3.604-.535-3.066-.165-.077-.049-.014.174-.135.174-.115 0-.86-.2-1.024-.344.402.267-1.385.07-.681-.171.009.568-1.257.203-1.155.523-.134-.28-.528-.003-.886-.172.07.033-.529-.162-.206-.172.06-.002-.32.182-.305.176-.242.103-.636.04-.511.001-.35.107-1.917.297-2.45.18-.48-.103-.272-.171-.887-.17l-.545.001c-.575.002-1.463.05-1.77.05-1.398 0-3.253.143-4.086.143.234.014-1.095-.119-.886.002.006-.217-.176-.274-.545-.173-.348 0-.861.063-1.567.004-.154-.013-.223.04-.272.048-.287.05-.409-.076-.476.131.126-.292-.277-.02-.34.001.118-.04-2.066-.168-2.01-.175-.137.018-.757.155-.715.009.064.24-.026.24-.273 0-.366.001-5.893-.124-5.79-.157-.227.62-.482.185-.816.177-.003 0-.9.177-.748.176-.449.001-1.183 6.67.515 7.196.16.05.152-.252.272 0-.022-.056 2.04-.182 1.702-.18.48-.001.026.173.341.172.129 0 .053-.129.068-.129-.102 0 .248-.056.221-.048.093-.026-.014.176.12.176-.192 0 .171-.2.135-.173.255-.186 1.973.176 1.976.167.145-.41.1 0 .272 0 .046-.001.813-.257.952-.354-.08.04 1.822.144 2.249.253.198.05 1.179-.09 1.09-.09 1.973-.003 7.037-.492 7.219.154.269-.001.378-.364.543-.348.01.023.248.372.342.346.01-.585 1.34-.14 1.09-.004.807-.003 1.912-.353 2.587-.181 1.031.262.27-.155.75.172-.079-.05.94-.31.815-.351 1.09.365-.669.084.41.081.584 0 .195.04.748-.084 1.294-.288 3.778.165 5.722.156.234 0 .372-.175.357-.178-.265-.05 1.358.289 1.21.349.05-.027.193-.356.34-.352.153.427.94.36 1.158.173.423-.365 1.424-.005 2.247-.008 0 0 .043-2.054 1.802-3.615 1.758-1.561 2.197-2.732 2.197-3.123 0-.39-.496-.47-.496-.47z" id="b"/><filter x="-50%" y="-50%" width="200%" height="200%" filterUnits="objectBoundingBox" id="a"><feOffset dx="1" dy="1" in="SourceAlpha" result="shadowOffsetOuter1"/><feGaussianBlur stdDeviation="1.5" in="shadowOffsetOuter1" result="shadowBlurOuter1"/><feColorMatrix values="0 0 0 0 0.494117647 0 0 0 0 0.537254902 0 0 0 0 0.490196078 0 0 0 0.2 0" in="shadowBlurOuter1"/></filter></defs><g transform="rotate(90 96.402 114.5)" fill="none" fill-rule="evenodd"><use fill="#000" filter="url(#a)" xlink:href="#b"/><use fill="#FFDA57" xlink:href="#b"/></g></svg>