<?xml version="1.0" encoding="UTF-8"?>
<svg width="25px" height="22px" viewBox="0 0 25 22" version="1.1" xmlns="http://www.w3.org/2000/svg" xmlns:xlink="http://www.w3.org/1999/xlink">
    <!-- Generator: sketchtool 42 (36781) - http://www.bohemiancoding.com/sketch -->
    <title>78DE178B-0A07-4396-9EB7-36FE0FA0E4C8</title>
    <desc>Created with sketchtool.</desc>
    <defs>
        <path d="M156.449225,16.9204113 C156.407982,16.9079539 156.331181,16.8847652 156.326768,16.8091954 L156.342807,16.7765511 C156.370133,16.7566643 156.395252,16.7535875 156.411461,16.7546381 C156.473071,16.7586154 156.509053,16.8233038 156.508374,16.8834894 L156.449225,16.9204113 Z M155.94531,17.2580363 C155.924858,17.2566855 155.910686,17.2459541 155.900418,17.2379244 C155.897278,17.235598 155.89261,17.2320709 155.890659,17.2311704 L155.842796,17.1872694 C155.844069,17.181566 155.84373,17.1746619 155.84373,17.1678328 C155.843645,17.1453946 155.843645,17.117478 155.866982,17.0982666 C155.886415,17.081982 155.914845,17.0789052 155.94845,17.0912125 L155.974248,17.1384154 C155.971703,17.1462951 155.968987,17.1535744 155.966441,17.1600282 C155.967375,17.1602534 155.968393,17.1603284 155.969751,17.1604034 L156.007684,17.2109834 C155.992579,17.2561602 155.958973,17.2589368 155.94531,17.2580363 L155.94531,17.2580363 Z M155.783222,17.8006827 L155.742488,17.834978 C155.727383,17.8361787 155.713974,17.8358786 155.702009,17.8340775 C155.716351,17.8634199 155.719151,17.8955389 155.720933,17.9170767 C155.721782,17.9280331 155.723224,17.9444679 155.725431,17.9491957 L155.72577,17.983491 C155.708798,18.0159102 155.670016,18.0281424 155.638362,18.0136589 C155.620625,18.030694 155.596015,18.0444271 155.548662,18.0490798 C155.541449,18.0499053 155.535593,18.0541078 155.523203,18.0647641 C155.512171,18.0742948 155.498423,18.0860768 155.478905,18.0933561 C155.461508,18.0995097 155.442414,18.098234 155.420944,18.093206 C155.412457,18.0921554 155.40465,18.0981589 155.395909,18.1048379 C155.375203,18.1204471 155.347113,18.1416847 155.301202,18.1386829 L155.294668,18.1382327 L155.264287,18.1223232 C155.229324,18.0800732 155.225335,18.0646891 155.23747,18.0195123 C155.239592,18.0109573 155.242392,18.000376 155.245532,17.9862676 L155.30867,17.9578258 C155.320127,17.9476197 155.334638,17.9432672 155.348386,17.9416912 C155.34898,17.9395149 155.349659,17.9372636 155.350338,17.9350123 C155.346519,17.9330611 155.342021,17.9308848 155.337099,17.9287836 L155.32106,17.877078 L155.318344,17.8780535 L155.279393,17.8755771 L155.238234,17.840006 C155.2345,17.8072866 155.252236,17.7891259 155.260638,17.7801956 L155.321145,17.7480015 C155.354496,17.7583576 155.374693,17.7747924 155.381058,17.7970806 C155.38581,17.8135904 155.381482,17.8286743 155.374693,17.8404563 C155.378258,17.8402311 155.381397,17.8403062 155.384113,17.8404563 C155.421792,17.8428577 155.449033,17.8718999 155.471522,17.9045442 C155.477971,17.9028182 155.484421,17.9011672 155.490446,17.8997414 C155.489852,17.8894603 155.49087,17.8797796 155.491464,17.8724252 C155.492228,17.8661215 155.492822,17.8598177 155.492653,17.8541894 L155.542806,17.8317511 C155.542212,17.8275486 155.540685,17.8222205 155.538224,17.8158417 L155.581843,17.7633106 L155.582013,17.7633106 C155.59627,17.7642862 155.608999,17.7663124 155.620286,17.7693892 C155.616382,17.7529544 155.617061,17.7338931 155.622492,17.7127306 L155.675277,17.6825627 C155.674683,17.6833132 155.666621,17.688041 155.664584,17.6932941 L155.712871,17.6673287 C155.801128,17.6780601 155.788484,17.7639109 155.783222,17.8006827 L155.783222,17.8006827 Z M155.684782,18.4862138 L155.658135,18.5075264 C155.639889,18.5128546 155.624105,18.5149558 155.610187,18.5140553 C155.567417,18.5112786 155.545522,18.4847129 155.545267,18.4348834 C155.545183,18.4330823 155.545183,18.4309811 155.545013,18.4289549 L155.515396,18.4357089 C155.517432,18.4378852 155.519215,18.4388607 155.519215,18.4388607 C155.442244,18.4140961 155.442074,18.3735721 155.453701,18.343029 L155.463799,18.3365751 C155.452258,18.3293709 155.442074,18.3205907 155.43223,18.312636 L155.418992,18.2754139 C155.431212,18.2258846 155.479414,18.2023206 155.552056,18.2152283 L155.58719,18.2615307 C155.586511,18.2613806 155.581164,18.2544765 155.575309,18.2527505 L155.597119,18.3130112 C155.588547,18.3233673 155.579722,18.3319224 155.570302,18.3384513 C155.573187,18.3410028 155.575733,18.3433291 155.57777,18.3458056 C155.578449,18.3462559 155.578958,18.3469313 155.579382,18.3476067 C155.616213,18.3445299 155.657116,18.3660676 155.678926,18.3984868 C155.697426,18.4261782 155.699548,18.4573967 155.684782,18.4862138 L155.684782,18.4862138 Z M155.506994,18.7965226 L155.489852,18.7968228 C155.48493,18.7965226 155.480263,18.7956971 155.475935,18.7948716 C155.485269,18.8113814 155.486373,18.8312682 155.479414,18.8518303 L155.438001,18.8502544 C155.438001,18.8502544 155.438001,18.8499542 155.438171,18.8498041 L155.400237,18.836071 C155.400322,18.8366714 155.397437,18.8371216 155.398115,18.837722 L155.368923,18.8679649 L155.368838,18.8672895 L155.368413,18.8675897 C155.325388,18.83442 155.33362,18.8035017 155.339136,18.7917948 C155.352035,18.7645537 155.390987,18.751646 155.427563,18.7597508 L155.402698,18.7238796 C155.408129,18.709396 155.417804,18.7004657 155.423574,18.6952126 L155.427987,18.6931864 C155.419501,18.6963382 155.411099,18.6991899 155.402783,18.7018915 C155.391751,18.7057188 155.380634,18.7093209 155.370365,18.7137486 L155.320127,18.6495856 C155.326576,18.6441073 155.333365,18.6366029 155.340663,18.6289483 C155.368753,18.5990056 155.403632,18.5616335 155.452852,18.5647853 C155.466345,18.5656859 155.486882,18.5704887 155.506485,18.5881992 L155.511662,18.6379537 C155.50063,18.6525123 155.487221,18.6636189 155.472285,18.6725492 L155.485609,18.6663955 C155.530586,18.6839559 155.552311,18.717876 155.54654,18.761777 L155.506994,18.7965226 Z M155.422641,18.993064 C155.414154,19.0356142 155.357127,19.0682585 155.297977,19.0644313 C155.289067,19.0638309 155.280496,19.0625552 155.272094,19.060529 L155.240271,19.0300609 C155.22508,18.9621457 155.283381,18.945711 155.30256,18.9403078 C155.310198,18.9385067 155.306379,18.9418086 155.305276,18.945861 L155.360436,18.9184698 C155.414579,18.932203 155.427733,18.9671737 155.422641,18.993064 L155.422641,18.993064 Z M155.429125,19.4892955 C155.334758,19.5767455 155.286687,19.4241977 155.429125,19.4892955 L155.429125,19.4892955 Z M155.337439,19.7093633 C155.305276,19.7146915 155.278883,19.7113145 155.25928,19.6998327 C155.255631,19.7046355 155.252236,19.7093633 155.250539,19.7129654 L155.193681,19.7349535 C155.168986,19.7267736 155.152947,19.7136408 155.146243,19.6958553 C155.135635,19.668389 155.152438,19.64475 155.163555,19.6289157 C155.166949,19.6241128 155.171787,19.6170586 155.172805,19.6142069 L155.228899,19.5730826 C155.242562,19.5766097 155.254273,19.5813375 155.263523,19.5871909 C155.263947,19.5868908 155.264287,19.5867407 155.264457,19.5864405 L155.312319,19.5798366 C155.356618,19.5971718 155.378682,19.6305666 155.374099,19.6740924 L155.337439,19.7093633 Z M155.142594,19.2400353 L155.187147,19.2034136 C155.187741,19.2034136 155.18825,19.2034887 155.188589,19.2034887 C155.220837,19.2055899 155.237131,19.2146703 155.247824,19.2207489 C155.255716,19.2251765 155.256649,19.2255517 155.259365,19.2257018 L155.307737,19.2735051 C155.297299,19.3168808 155.257158,19.3405198 155.20047,19.3369177 C155.192323,19.3363924 155.183582,19.3353418 155.174078,19.3336157 L155.138351,19.2921161 L155.142594,19.2400353 Z M155.100247,18.7982486 C155.105594,18.7654542 155.130543,18.7276318 155.217782,18.7331851 C155.228305,18.7339355 155.239507,18.7351362 155.250709,18.7362619 L155.289576,18.7758854 C155.289152,18.7986238 155.279732,18.8184356 155.261656,18.8330692 C155.241119,18.8498792 155.210484,18.8582091 155.177727,18.8561829 C155.14811,18.8543068 155.123075,18.8441758 155.109158,18.8284165 L155.100247,18.7982486 Z M155.059428,17.9049945 C155.063247,17.9162512 155.065708,17.9308098 155.06155,17.9488955 L155.019288,17.9809395 C155.010547,17.9811646 155.002146,17.9810896 154.994339,17.9805643 C154.958357,17.9782379 154.931455,17.9672063 154.914907,17.9478449 C154.898698,17.9291588 154.893691,17.9052196 154.900056,17.8764776 L154.952247,17.8453342 C154.954453,17.8451841 154.958187,17.8318262 154.960309,17.8238714 L154.965231,17.8075118 L155.003843,17.7789949 C155.004437,17.7790699 155.004862,17.7790699 155.005371,17.7790699 C155.060956,17.782672 155.092185,17.8256725 155.0893,17.8607933 C155.087688,17.8802298 155.076401,17.8959141 155.059428,17.9049945 L155.059428,17.9049945 Z M154.973208,20.45895 L154.968201,20.4586383 L154.928909,20.4234948 C154.924157,20.3939618 154.935104,20.3756498 154.945118,20.3655977 C154.968286,20.3422986 155.001552,20.3434674 155.025823,20.3444804 L155.075383,20.4026113 C155.056204,20.4421186 155.019882,20.462067 154.973208,20.45895 L154.973208,20.45895 Z M154.895049,19.1343727 L154.969644,19.1105836 C154.972953,19.1132102 154.981949,19.1169624 154.988992,19.1198891 C155.014197,19.1300952 155.072837,19.1543345 155.055694,19.2227 L155.002995,19.2525677 C155.004607,19.2515921 155.011651,19.2470895 155.013602,19.2420615 L154.965146,19.2681019 C154.877143,19.2570704 154.889703,19.1711445 154.895049,19.1343727 L154.895049,19.1343727 Z M154.950658,18.7829304 C154.949355,18.8004434 154.948053,18.8180717 154.94675,18.8360456 C154.81189,18.8530978 154.906967,18.690526 154.950658,18.7829304 L154.950658,18.7829304 Z M154.826905,17.1465202 C154.770046,17.1787143 154.673812,17.1501974 154.652172,17.0966157 L154.649541,17.0823572 C154.65022,17.0575925 154.659301,17.0374806 154.676952,17.0226218 C154.708266,16.9960561 154.754177,16.9970317 154.794657,16.9978572 L154.832845,17.0357546 C154.891655,16.9920037 154.965316,16.9675392 155.0523,16.9624362 L155.099568,17.0070126 C155.09889,17.0102395 155.099059,17.0109149 155.103302,17.0190197 C155.109328,17.0311019 155.119596,17.0509136 155.112807,17.0804811 L155.075128,17.1115495 L155.060192,17.1121499 C155.058071,17.1119998 155.055864,17.1116996 155.053149,17.1111743 C155.051112,17.1180033 155.049754,17.1269336 155.049669,17.1386406 L155.00919,17.1773635 L154.992811,17.1777387 C154.988653,17.1774385 154.98441,17.1769132 154.980676,17.1760127 C154.981015,17.1786392 154.9811,17.1813408 154.981015,17.1839674 C154.983391,17.1842676 154.985343,17.1846428 154.987465,17.184943 L155.022853,17.2265176 L155.019967,17.2611881 L154.9968,17.2931571 C154.978384,17.3018622 154.95352,17.3138693 154.915586,17.3114679 L154.91007,17.3110927 L154.895049,17.2709439 C154.898274,17.2740958 154.901838,17.2756717 154.90362,17.276122 L154.892673,17.2652405 L154.885035,17.2449035 C154.884951,17.2478302 154.884696,17.2533835 154.886987,17.2596873 L154.854824,17.2274181 C154.865432,17.1860686 154.852194,17.1702343 154.826905,17.1465202 L154.826905,17.1465202 Z M154.795251,17.7407972 C154.780485,17.7576072 154.755535,17.7666125 154.728039,17.7648865 C154.701987,17.7631605 154.679753,17.7523541 154.667193,17.7350939 C154.655736,17.7191094 154.6537,17.6997479 154.661762,17.6806116 C154.671266,17.6562221 154.699356,17.6411382 154.733216,17.6433145 C154.76156,17.6451156 154.794572,17.6589988 154.804416,17.6859397 C154.811884,17.7051511 154.808659,17.7253381 154.795251,17.7407972 L154.795251,17.7407972 Z M154.728803,18.4495921 C154.71234,18.4447892 154.702411,18.4360841 154.69664,18.4309811 L154.660658,18.3893314 L154.663544,18.3545858 L154.701562,18.3183393 C154.760627,18.3103096 154.791092,18.3418283 154.787698,18.4049406 L154.728803,18.4495921 Z M154.76767,19.6192349 L154.718365,19.6533801 C154.686966,19.6501532 154.655652,19.6441497 154.639273,19.6208859 C154.62281,19.5979223 154.631805,19.5745835 154.638255,19.5577735 C154.642498,19.5473423 154.646656,19.5365359 154.646826,19.5242286 L154.697743,19.4858809 C154.785661,19.4969125 154.772847,19.5826132 154.76767,19.6192349 L154.76767,19.6192349 Z M154.592853,16.5579466 C154.539305,16.5472152 154.541596,16.4986615 154.54236,16.4802756 C154.54253,16.4760731 154.542869,16.4720207 154.542445,16.4681934 L154.581142,16.4266188 C154.621197,16.4223413 154.666938,16.4299207 154.668126,16.5027139 L154.61042,16.5410616 C154.610929,16.5414368 154.616021,16.5411366 154.618821,16.5409865 L154.592853,16.5579466 Z M154.540493,21.5778951 C154.535995,21.6231469 154.469887,21.653615 154.425928,21.6572921 L154.378914,21.6295257 C154.376029,21.6211207 154.367203,21.5954555 154.383327,21.5724919 C154.398433,21.5510292 154.424316,21.5474271 154.436791,21.545626 C154.433396,21.5469018 154.423891,21.5587588 154.424655,21.5666384 L154.478119,21.5129817 C154.540493,21.5282907 154.541511,21.5664133 154.540493,21.5778951 L154.540493,21.5778951 Z M154.415914,16.3238829 L154.462589,16.261596 L154.475997,16.2620463 C154.513252,16.2643727 154.533874,16.2790064 154.544651,16.2910135 C154.560945,16.3090992 154.566631,16.3332635 154.561454,16.362756 L154.519701,16.3825677 C154.502559,16.4257183 154.473282,16.4323222 154.451132,16.4309714 C154.440525,16.430296 154.429238,16.4273692 154.417018,16.4221912 L154.391474,16.3899971 C154.387995,16.354426 154.40607,16.3345393 154.415914,16.3238829 L154.415914,16.3238829 Z M154.489236,15.8288897 L154.531837,15.8151566 C154.545839,15.8161322 154.562727,15.8227361 154.577578,15.8324168 C154.590562,15.8234865 154.607534,15.8166575 154.631126,15.8181584 L154.646741,15.8202596 L154.671691,15.8491517 C154.682808,15.8388706 154.69681,15.8318165 154.713019,15.8288897 L154.713019,15.8283644 L154.760712,15.792193 L154.819097,15.7959452 L154.859152,15.844574 C154.856352,15.8547801 154.857116,15.8589826 154.857031,15.8591326 C154.856437,15.8558307 154.85126,15.8508778 154.847526,15.8499772 L154.890382,15.9088121 C154.869675,15.9418316 154.818673,15.9460341 154.784982,15.9297495 C154.769622,15.9370288 154.74934,15.9398805 154.724305,15.9382295 L154.724136,15.9382295 L154.709285,15.901983 L154.706399,15.9369537 C154.702241,15.9367286 154.698168,15.9364284 154.694519,15.9365035 L154.668296,15.9094124 C154.663798,15.9166917 154.658282,15.9228454 154.651663,15.9280985 C154.641225,15.9365035 154.622979,15.9460341 154.595654,15.9442331 C154.559078,15.9419067 154.521738,15.9190181 154.497128,15.9038591 L154.473366,15.871515 C154.471499,15.849527 154.481004,15.8362441 154.489236,15.8288897 L154.489236,15.8288897 Z M154.957678,16.3328132 L154.95335,16.3846689 L154.905657,16.4212906 L154.827753,16.4162627 L154.794148,16.3545011 C154.816636,16.3242582 154.84515,16.2858354 154.909561,16.2899628 L154.957678,16.3328132 Z M154.704363,16.1638131 C154.65073,16.153532 154.652681,16.1035524 154.65336,16.0870426 C154.65353,16.0829902 154.653869,16.0788628 154.65353,16.0749605 L154.701138,16.0325604 L154.760287,16.0363126 L154.801106,16.0692571 C154.807641,16.1048282 154.791092,16.129818 154.751716,16.1432509 C154.751122,16.1430258 154.757317,16.1369472 154.758251,16.129818 L154.704363,16.1638131 Z M154.998667,16.5376846 C154.988568,16.5631997 154.964891,16.5730305 154.952162,16.5783587 C154.948767,16.5767827 154.952332,16.5740811 154.952586,16.5710043 L154.908797,16.6308898 L154.791262,16.6233103 L154.750273,16.5782086 C154.766567,16.480951 154.843877,16.443879 154.972614,16.487705 L154.998667,16.5376846 Z M154.18059,20.2489081 C154.172358,20.2483791 154.163533,20.2473211 154.154283,20.2457341 L154.119319,20.1981997 C154.131455,20.1483227 154.178638,20.1242154 154.252469,20.1378182 L154.287602,20.184748 C154.277418,20.228655 154.237448,20.2526111 154.18059,20.2489081 L154.18059,20.2489081 Z M154.15004,20.4536542 L154.133831,20.4540294 C154.107014,20.4523034 154.09123,20.4402963 154.082659,20.4338424 L154.045743,20.3819867 C154.05075,20.3665276 154.060934,20.3574472 154.067044,20.3519689 L154.128739,20.3236021 C154.173546,20.3409374 154.195356,20.3747074 154.190264,20.4184583 L154.15004,20.4536542 Z M153.782584,17.6927688 L153.725981,17.7225614 C153.708753,17.7177586 153.698485,17.7089033 153.69229,17.7034251 L153.658684,17.6527701 C153.664116,17.6376862 153.674299,17.6286808 153.68024,17.6233527 L153.736334,17.5937101 C153.754155,17.5982128 153.764933,17.6077434 153.770788,17.6129965 L153.804139,17.6624508 C153.799047,17.6780601 153.788609,17.6872905 153.782584,17.6927688 L153.782584,17.6927688 Z M153.704595,23.2599415 L153.695006,23.2582154 L153.701031,23.2657949 C153.699843,23.274425 153.698146,23.286132 153.698824,23.2901093 C153.697976,23.2851564 153.690847,23.2772767 153.681512,23.2754757 L153.715967,23.3224535 C153.702813,23.3766356 153.662079,23.3782115 153.649944,23.3774611 C153.620411,23.375585 153.600638,23.3549477 153.583241,23.3366369 C153.578913,23.3320592 153.57484,23.3275565 153.571276,23.3248549 L153.558292,23.3273314 C153.550994,23.3272563 153.543611,23.3271062 153.536906,23.326656 C153.525705,23.3259806 153.49159,23.3238043 153.475126,23.2971635 C153.463755,23.2790028 153.465791,23.25754 153.480388,23.2333007 L153.508138,23.2138642 C153.5504,23.2038833 153.579592,23.2041834 153.623551,23.2133389 C153.616508,23.1900751 153.622448,23.1725897 153.630171,23.1610329 C153.657666,23.1196083 153.743208,23.1282384 153.757125,23.1738655 C153.76349,23.1946528 153.759671,23.2264716 153.704595,23.2599415 L153.704595,23.2599415 Z M153.403927,22.8989026 L153.350039,22.8569528 C153.352669,22.828736 153.361071,22.8068231 153.368624,22.7876117 C153.378383,22.7623967 153.385936,22.74251 153.382371,22.7092653 L153.429979,22.6660397 L153.547514,22.6734691 L153.584854,22.7291521 C153.58426,22.7303528 153.583581,22.7311032 153.583157,22.7315535 C153.598856,22.7413093 153.616168,22.7540668 153.62126,22.7773306 L153.618544,22.8004443 C153.585108,22.8688098 153.50364,22.8820926 153.438211,22.892899 L153.403927,22.8989026 Z M153.428197,16.3066978 L153.449583,16.2931898 L153.500076,16.2913887 C153.518491,16.3015947 153.530117,16.3201307 153.532324,16.3436196 C153.534615,16.3668084 153.527741,16.401704 153.50067,16.4234669 L153.47903,16.4295455 C153.481152,16.4491321 153.480388,16.4711952 153.462652,16.4883804 C153.449752,16.5008378 153.431252,16.5067663 153.410546,16.5054155 C153.397901,16.50459 153.384069,16.5010629 153.367945,16.4946091 L153.345796,16.4749474 C153.300055,16.3850442 153.38025,16.3360401 153.428197,16.3066978 L153.428197,16.3066978 Z M153.263479,23.937818 C153.224018,23.9328651 153.194146,23.9187567 153.174882,23.8957181 C153.15443,23.8716288 153.147641,23.8396599 153.154515,23.8007868 L153.227921,23.7769977 C153.233268,23.7812753 153.238953,23.7851776 153.244724,23.7890799 C153.273832,23.8088916 153.31813,23.8388344 153.314227,23.9008211 L153.263479,23.937818 Z M153.111999,23.9634832 L153.054462,23.9933509 C153.038168,23.9886231 153.02807,23.9799179 153.021875,23.9747399 L152.987845,23.9237847 C152.993191,23.9090009 153.003035,23.8999956 153.008891,23.8946674 L153.066258,23.8645746 C153.082976,23.8693775 153.093074,23.8780826 153.0991,23.8832607 L153.133214,23.9350414 C153.127614,23.9494499 153.117854,23.9583051 153.111999,23.9634832 L153.111999,23.9634832 Z M152.84553,20.3714805 C152.833395,20.3707301 152.820835,20.3694543 152.808275,20.3681785 L152.768984,20.3287052 C152.769663,20.2249937 152.872941,20.2176394 152.934805,20.2131367 L152.953645,20.2117109 L153.002271,20.2458561 C153.008297,20.2867553 152.999386,20.3188743 152.975709,20.3411625 C152.941679,20.3732065 152.888301,20.3741821 152.84553,20.3714805 L152.84553,20.3714805 Z M152.891525,23.0763077 L152.875232,23.0766829 C152.848585,23.0750319 152.832885,23.0628747 152.824484,23.0564209 L152.787484,23.0047903 C152.792576,22.9891811 152.802929,22.9799506 152.808954,22.9744724 L152.870734,22.9464057 C152.915542,22.9641162 152.937097,22.9978112 152.931581,23.0415621 L152.891525,23.0763077 Z M152.674786,25.3337501 L152.660529,25.2962682 L152.657729,25.3324309 C152.65357,25.3321205 152.649667,25.3318877 152.645678,25.3321205 L152.600361,25.283619 C152.608933,25.2423346 152.644151,25.2163378 152.68811,25.2192091 C152.713738,25.2209164 152.738942,25.2327119 152.757103,25.2511813 L152.766608,25.29006 C152.756,25.322265 152.725195,25.337087 152.674786,25.3337501 L152.674786,25.3337501 Z M152.530435,22.8270851 L152.47171,22.8232578 L152.430466,22.7810828 L152.434625,22.729002 L152.478584,22.6923803 L152.492162,22.6927555 C152.529586,22.6951569 152.550208,22.7097906 152.5609,22.7217977 C152.577194,22.7400335 152.58288,22.7641978 152.577703,22.7937653 L152.530435,22.8270851 Z M152.462884,23.7124595 L152.396606,23.7388001 C152.359861,23.7197388 152.341191,23.6840177 152.341021,23.6327623 L152.394654,23.5940394 C152.415955,23.5980167 152.484015,23.6182787 152.462884,23.7124595 L152.462884,23.7124595 Z M152.321248,25.3785964 C152.294686,25.3768704 152.268718,25.3608859 152.253443,25.3368717 C152.238761,25.313683 152.237489,25.2876426 152.250218,25.2655044 L152.3047,25.2462931 C152.328292,25.2537225 152.34153,25.2678308 152.350356,25.2772114 L152.389053,25.3315436 C152.380652,25.3622367 152.35392,25.3806226 152.321248,25.3785964 L152.321248,25.3785964 Z M152.333553,23.314874 C152.340342,23.3120974 152.357484,23.3027168 152.370638,23.2956626 C152.370978,23.2955125 152.371317,23.2952124 152.371741,23.2950623 L152.365207,23.2872576 L152.409251,23.2748753 C152.443111,23.2770516 152.466363,23.3045929 152.463563,23.3388882 C152.460253,23.3793372 152.425205,23.4079291 152.382095,23.4051525 C152.362831,23.4039518 152.342973,23.3964473 152.322945,23.3830894 L152.342973,23.3362617 L152.333553,23.314874 Z M152.407638,19.2166079 L152.454567,19.1846525 L152.493519,19.1871753 L152.534423,19.2217299 C152.539091,19.2508567 152.527974,19.2687456 152.518214,19.2786839 C152.495132,19.3016184 152.462035,19.3003952 152.438019,19.2994779 L152.385913,19.247493 C152.39126,19.2315918 152.401358,19.2221122 152.407638,19.2166079 L152.407638,19.2166079 Z M152.466363,17.2891797 L152.509219,17.252483 C152.558948,17.2513573 152.593233,17.2617135 152.613515,17.2851273 C152.629639,17.3038134 152.634901,17.3279027 152.628621,17.3564196 L152.611818,17.3805839 C152.587038,17.3972437 152.553857,17.4041478 152.512529,17.4015963 L152.499884,17.4005457 L152.460677,17.3584458 L152.466363,17.2891797 Z M152.965865,18.1707269 L153.023232,18.1410093 C153.039865,18.1457371 153.049964,18.1545923 153.056074,18.1599955 L153.08968,18.2098251 C153.084588,18.2252092 153.074405,18.2342896 153.068379,18.2397678 L153.011521,18.2697105 C152.994294,18.2650578 152.984026,18.2560524 152.978001,18.2508744 L152.94414,18.2001443 C152.949656,18.1849853 152.95984,18.17598 152.965865,18.1707269 L152.965865,18.1707269 Z M153.200086,16.3569775 C153.230213,16.3589287 153.258557,16.3723617 153.276293,16.3928488 C153.292247,16.4113848 153.298272,16.4342733 153.293266,16.4575371 L153.258642,16.4886055 C153.246167,16.4910069 153.234456,16.4918324 153.223763,16.491082 C153.194825,16.4892809 153.177683,16.4770487 153.167244,16.4696943 L153.108519,16.4212156 C153.11463,16.3804665 153.152309,16.3539007 153.200086,16.3569775 L153.200086,16.3569775 Z M152.059192,24.1851645 C152.058174,24.1844891 152.057155,24.1837387 152.056137,24.1830633 L152.043662,24.1911681 C152.024059,24.189367 151.990962,24.1790859 151.987992,24.1299318 L152.044002,24.078001 C152.043323,24.077926 152.042898,24.077926 152.042219,24.077926 L152.070479,24.0636675 C152.114777,24.0811529 152.136502,24.1146978 152.13141,24.1583736 L152.059192,24.1851645 Z M151.884969,24.417352 C151.880726,24.4197535 151.874191,24.4233556 151.872749,24.4249315 L151.816569,24.4547242 C151.787037,24.4469946 151.768113,24.4343121 151.758099,24.4160763 C151.743503,24.3894355 151.755299,24.36317 151.764294,24.3438835 C151.767519,24.3366042 151.771338,24.3288746 151.77312,24.3206197 L151.811223,24.2896264 C151.85671,24.2846735 151.879707,24.2987818 151.894983,24.3076371 C151.900414,24.3107889 151.903808,24.3127401 151.906779,24.3135656 L151.937075,24.3594928 C151.928843,24.3932628 151.901432,24.4083467 151.884969,24.417352 L151.884969,24.417352 Z M151.833033,26.2329025 L151.791959,26.2129406 C151.776769,26.1954553 151.773799,26.1706156 151.781945,26.1351946 L151.835324,26.1048016 C151.893285,26.1160583 151.908561,26.1515543 151.904233,26.1785703 C151.898971,26.210239 151.866384,26.2350788 151.833033,26.2329025 L151.833033,26.2329025 Z M151.763445,24.9554208 L151.800785,24.9336579 L151.812241,24.9337329 C151.864941,24.937185 151.874955,24.9793599 151.87818,24.9932432 C151.878095,24.9972956 151.871476,24.9906166 151.863499,24.9898662 L151.898971,25.0442734 C151.886072,25.0717397 151.860783,25.0868986 151.83159,25.0850225 C151.806386,25.0833716 151.782624,25.0685128 151.767519,25.0451739 C151.749273,25.016582 151.747831,24.9830371 151.763445,24.9554208 L151.763445,24.9554208 Z M151.784746,23.7801496 C151.844659,23.720114 151.953877,23.7240164 152.012348,23.7917064 L152.020495,23.8241257 C152.016845,23.8401101 152.01082,23.8536932 152.00454,23.8671261 C151.995205,23.8884387 151.988162,23.9035977 151.991641,23.9316644 L151.929097,23.9720383 C151.92774,23.9713629 151.926806,23.9707625 151.926467,23.9703122 C151.91535,23.9843456 151.901093,23.9998047 151.875125,24.0044575 C151.86596,24.007009 151.854418,24.0084348 151.843641,24.0076844 C151.820897,24.0062585 151.792044,23.9954521 151.784067,23.9520764 C151.785085,23.953052 151.79459,23.9620574 151.806131,23.9628078 L151.746812,23.9336906 C151.73298,23.8743304 151.746812,23.8184973 151.784746,23.7801496 L151.784746,23.7801496 Z M151.623677,23.3445166 L151.579972,23.3075196 C151.576578,23.260917 151.588968,23.22377 151.617397,23.1937523 L151.678837,23.1881239 C151.691482,23.196679 151.697083,23.1999809 151.708285,23.2007314 L151.753177,23.2450076 C151.744351,23.3096209 151.697083,23.3458674 151.623677,23.3445166 L151.623677,23.3445166 Z M151.851533,21.4576739 C151.874276,21.413998 151.909749,21.4114465 151.924175,21.4123471 C151.964825,21.4150487 151.991896,21.4495691 151.994696,21.481538 C151.997582,21.5145576 151.975263,21.5416486 151.939026,21.549078 L151.92443,21.5499786 C151.886836,21.5475772 151.858492,21.5072032 151.858322,21.506828 C151.843641,21.4853653 151.846526,21.4682552 151.851533,21.4576739 L151.851533,21.4576739 Z M151.489763,17.6139721 C151.472366,17.6091693 151.462098,17.600314 151.455988,17.5947607 L151.42043,17.5534112 L151.423231,17.5185906 L151.461589,17.4823441 C151.520653,17.4754401 151.550016,17.5050826 151.547724,17.5667692 L151.489763,17.6139721 Z M151.377575,19.1952338 L151.37732,19.1951587 L151.363403,19.1933577 L151.337944,19.1309207 C151.347364,19.1201143 151.346685,19.1123096 151.34312,19.0915223 C151.338877,19.0661573 151.332258,19.0276595 151.371804,18.9904375 L151.412623,18.9786555 C151.46405,18.9872105 151.493582,19.0353891 151.484671,19.0955747 C151.475591,19.1577115 151.431547,19.1986858 151.377575,19.1952338 L151.377575,19.1952338 Z M151.384958,24.5847762 C151.363572,24.5850014 151.34329,24.5832003 151.329118,24.5787727 C151.315964,24.5890538 151.297719,24.5973086 151.271666,24.5955826 L151.256645,24.5935564 L151.221767,24.5561843 C151.221427,24.5429765 151.225925,24.5229396 151.250111,24.5024525 C151.286941,24.4710839 151.373247,24.4508219 151.411095,24.4892446 C151.421109,24.4996758 151.432651,24.518512 151.429935,24.5484547 L151.384958,24.5847762 Z M151.347958,26.9822213 L151.291269,27.0021832 C151.254015,26.9908514 151.234666,26.9596329 151.242558,26.924287 C151.252911,26.8794104 151.314097,26.8373105 151.370446,26.8624504 L151.393529,26.887065 C151.414914,26.9543048 151.364421,26.9753172 151.347958,26.9822213 L151.347958,26.9822213 Z M151.168812,24.8081085 L151.095406,24.8164384 C151.085647,24.8065326 151.073851,24.7980526 151.062225,24.7893474 C151.023443,24.7606804 150.970403,24.7212821 150.97838,24.6407594 L151.041009,24.60804 L151.053229,24.6128428 C151.107626,24.6341555 151.163805,24.6561435 151.183578,24.7050725 C151.195968,24.7354655 151.191046,24.7692355 151.168812,24.8081085 L151.168812,24.8081085 Z M151.120186,25.9236443 L151.072493,25.9601909 L150.99425,25.955163 L150.964718,25.8888987 C150.967518,25.8861971 150.971676,25.8781673 150.974986,25.8718636 C150.987206,25.848825 151.010374,25.7975696 151.091078,25.8128036 L151.125872,25.8542282 L151.120186,25.9236443 Z M150.943926,26.5080154 C150.934846,26.5101917 150.925681,26.5110172 150.917025,26.5104169 C150.858045,26.5065896 150.846334,26.4508316 150.840903,26.4241157 C150.8398,26.4189377 150.839036,26.4142849 150.837678,26.4109079 C150.835557,26.405955 150.831653,26.4004767 150.827919,26.3952987 C150.816462,26.3786388 150.800848,26.3559003 150.80874,26.3294096 C150.811965,26.3183781 150.82079,26.3026938 150.844043,26.2913621 L150.878752,26.2880601 C150.952412,26.3079469 150.961493,26.3725602 150.968112,26.4197632 C150.970149,26.4337214 150.971931,26.4475296 150.97541,26.4601371 L150.943926,26.5080154 Z M151.04381,24.8501334 L151.086241,24.8845788 C151.08709,24.8917831 151.088787,24.8982369 151.09006,24.9041654 C151.094727,24.9251779 151.100752,24.9514434 151.079282,24.9735815 C151.058321,24.9951943 151.02514,24.9969954 150.995438,24.9958697 L150.953007,24.9617245 C150.952073,24.9547454 150.95063,24.9482915 150.949188,24.942363 C150.94452,24.9211255 150.93841,24.8947848 150.959796,24.8725717 C150.980841,24.8508838 151.014023,24.8489327 151.04381,24.8501334 L151.04381,24.8501334 Z M150.767072,20.8131921 C150.730327,20.8069635 150.70385,20.7891779 150.694515,20.7635127 C150.68518,20.7376224 150.696127,20.7098559 150.724301,20.6892938 L150.782517,20.6903444 C150.815444,20.71676 150.84591,20.7449017 150.876291,20.7729683 C150.894451,20.7899284 150.912442,20.8067383 150.931282,20.823098 L150.933828,20.838257 L150.944435,20.8342796 C150.999002,20.8378067 151.084968,20.943019 151.085817,20.9439196 L151.083271,20.9897717 C151.070372,21.0044805 151.051362,21.0119849 151.031165,21.0107842 C150.995353,21.0084578 150.968706,20.9799409 150.940447,20.9497731 C150.930942,20.9399422 150.91677,20.9247082 150.910745,20.9211811 L150.892924,20.8976922 C150.858215,20.9016696 150.815529,20.880507 150.787439,20.8474875 C150.778274,20.8363809 150.771315,20.8248991 150.767072,20.8131921 L150.767072,20.8131921 Z M150.69146,25.0811202 L150.612877,25.0760922 L150.571549,25.0338422 L150.577319,24.9643511 L150.616102,24.9280295 C150.723283,24.9158723 150.735928,24.9994719 150.739068,25.0375194 L150.69146,25.0811202 Z M150.511211,24.1139473 C150.500688,24.0936103 150.504337,24.0702715 150.521395,24.0499344 L150.552964,24.0341751 L150.569172,24.0337999 C150.596159,24.0356009 150.612113,24.0477581 150.62043,24.0541369 L150.659127,24.089708 C150.661673,24.106593 150.655732,24.1225024 150.643088,24.1343594 C150.628746,24.1478674 150.606257,24.1546965 150.581562,24.1531956 C150.549569,24.1511694 150.522753,24.1360854 150.511211,24.1139473 L150.511211,24.1139473 Z M150.471071,18.3379259 C150.476502,18.322842 150.486431,18.3137616 150.492626,18.3084335 L150.549484,18.2787159 C150.566627,18.2833686 150.576895,18.2921488 150.58292,18.2976271 L150.616611,18.3475316 C150.611434,18.3629908 150.601251,18.3720712 150.595225,18.3776245 L150.538113,18.4074921 C150.521055,18.4026893 150.510702,18.3938341 150.504677,18.3884309 L150.471071,18.3379259 Z M150.692478,20.3069482 C150.6974,20.3357573 150.686707,20.3536864 150.676778,20.3635704 C150.65412,20.3867863 150.621193,20.3858669 150.597347,20.3851007 L150.544308,20.3333055 C150.549484,20.3172919 150.559668,20.3077144 150.565863,20.3021977 L150.612622,20.2701705 L150.651574,20.272699 L150.692478,20.3069482 Z M150.890208,19.4663694 L150.907605,19.4434808 C150.960814,19.4099359 151.037699,19.4211926 151.079791,19.4671198 C151.103723,19.4931602 151.114161,19.5257295 151.109069,19.5589742 L151.061801,19.5932695 C151.059085,19.6046012 151.038209,19.6287656 150.99722,19.626139 C150.98814,19.6255387 150.979059,19.6236625 150.96913,19.6205857 L150.939598,19.5799867 C150.940023,19.5752589 150.940107,19.5748086 150.927463,19.5645275 C150.909132,19.5495937 150.874763,19.5219773 150.890208,19.4663694 L150.890208,19.4663694 Z M151.195544,19.9389243 C151.199702,19.9742702 151.185615,19.9956579 151.172886,20.0072898 C151.157271,20.0215482 151.134952,20.0289026 151.1117,20.0274017 C151.087259,20.0259008 151.064262,20.0149443 151.048477,19.9979092 C151.032014,19.9799736 151.02497,19.956935 151.028534,19.9328457 L151.076057,19.8986254 L151.154216,19.9035783 L151.195544,19.9389243 Z M151.248838,24.4838414 C151.245274,24.5187371 151.208613,24.5460533 151.168812,24.5435018 C151.156083,24.5426763 151.092945,24.533821 151.093115,24.4421918 L151.14276,24.4030186 C151.250705,24.413975 151.250111,24.4722846 151.248838,24.4838414 L151.248838,24.4838414 Z M150.417014,18.6269221 L150.374922,18.6591912 C150.369151,18.6594164 150.363635,18.6594164 150.358543,18.6590412 C150.322646,18.6567898 150.302534,18.6417809 150.292011,18.6296988 C150.273341,18.6085362 150.268164,18.5789687 150.276311,18.5395704 L150.318403,18.5073013 C150.364484,18.5048248 150.389179,18.5229105 150.401484,18.5367937 C150.419984,18.5578812 150.42516,18.5875238 150.417014,18.6269221 L150.417014,18.6269221 Z M150.311869,21.6028099 L150.269522,21.635154 C150.260442,21.6353792 150.251956,21.6353041 150.243979,21.6347788 C150.208336,21.6325275 150.18152,21.621646 150.164886,21.6023596 C150.148847,21.5838236 150.143586,21.5598094 150.149866,21.5312175 L150.206639,21.5006744 C150.202396,21.4993986 150.194588,21.5010496 150.189751,21.5025505 L150.213004,21.4830389 C150.258999,21.4807125 150.283949,21.4984981 150.296169,21.5124564 C150.314754,21.533769 150.319761,21.5633365 150.311869,21.6028099 L150.311869,21.6028099 Z M149.90334,25.7165966 L149.868885,25.7259772 C149.78241,25.7168968 149.792,25.6362991 149.796582,25.5974261 L149.798789,25.577089 L149.842493,25.5404673 C149.843002,25.5404673 149.843342,25.5405424 149.843851,25.5405424 C149.891204,25.5435441 149.9215,25.565307 149.93423,25.599077 C149.94976,25.6405016 149.936436,25.6910065 149.90334,25.7165966 L149.90334,25.7165966 Z M149.87525,28.6250194 C149.867443,28.6262952 149.872365,28.6212672 149.872874,28.6180403 L149.810585,28.6672695 C149.778846,28.6538365 149.764929,28.6231433 149.775112,28.5891482 C149.787078,28.5493746 149.829085,28.5082503 149.876014,28.5113271 C149.900539,28.512903 149.921585,28.5261108 149.93423,28.5476486 L149.93737,28.5771411 C149.926083,28.6110612 149.891798,28.6204417 149.87525,28.6250194 L149.87525,28.6250194 Z M149.677096,18.4959696 C149.666403,18.4952942 149.655031,18.4930428 149.642981,18.4889904 L149.62465,18.4778088 C149.569405,18.4213003 149.612939,18.361715 149.636616,18.3296711 C149.641114,18.3235925 149.645442,18.317814 149.648836,18.3124859 L149.683885,18.2921488 C149.737433,18.2889219 149.764504,18.3063322 149.778591,18.3205156 C149.810415,18.353235 149.806087,18.4014886 149.802438,18.4440388 L149.73633,18.4820113 C149.725043,18.4879398 149.706034,18.4979207 149.677096,18.4959696 L149.677096,18.4959696 Z M149.7208,25.2104969 L149.664112,25.2409649 L149.648667,25.2373628 C149.620068,25.2309089 149.543522,25.2137988 149.558712,25.1390545 L149.601059,25.1064852 C149.650618,25.1052845 149.685242,25.1157908 149.705609,25.1393547 C149.721733,25.1578907 149.726995,25.1819049 149.7208,25.2104969 L149.7208,25.2104969 Z M149.537921,30.6638271 L149.499902,30.6729825 C149.465618,30.6672041 149.441092,30.6482929 149.432436,30.6212769 C149.423017,30.5912591 149.435491,30.5571139 149.464175,30.5340002 L149.502788,30.5245446 C149.537242,30.5304731 149.561937,30.5495344 149.570253,30.5769256 C149.579588,30.6068684 149.566774,30.6408635 149.537921,30.6638271 L149.537921,30.6638271 Z M149.422677,29.7176666 L149.468927,29.667537 L149.527992,29.6712892 L149.56915,29.7158656 C149.565331,29.7408554 149.55973,29.7573652 149.555148,29.7710233 C149.548698,29.7899345 149.547171,29.7945122 149.557015,29.8189016 L149.510595,29.8715078 C149.426751,29.8642285 149.426157,29.7904598 149.425732,29.7548887 C149.425647,29.7408554 149.425478,29.7263718 149.422677,29.7176666 L149.422677,29.7176666 Z M149.391533,29.6972546 C149.377955,29.7094868 149.352496,29.723295 149.310149,29.7205934 C149.301239,29.7200681 149.291734,29.7187923 149.281466,29.7167661 L149.248115,29.6886995 C149.232415,29.6369939 149.23564,29.6181577 149.265596,29.5873144 C149.270009,29.5827367 149.275356,29.5774086 149.281635,29.5696039 L149.345113,29.5615742 C149.357078,29.5698291 149.363528,29.5734312 149.375324,29.5741817 L149.419877,29.6109534 C149.423017,29.6487758 149.413597,29.677743 149.391533,29.6972546 L149.391533,29.6972546 Z M149.314647,30.6477676 L149.277562,30.675534 C149.267718,30.6765847 149.258892,30.6768848 149.25117,30.6763595 C149.223504,30.6744834 149.205598,30.6644275 149.193802,30.6576735 C149.188202,30.6545216 149.184892,30.6525704 149.182007,30.65182 L149.150692,30.6087445 C149.156972,30.5683706 149.194227,30.5412795 149.239543,30.5442062 C149.265936,30.5458572 149.289697,30.5576392 149.304379,30.5765504 C149.319908,30.5963621 149.323388,30.6216521 149.314647,30.6477676 L149.314647,30.6477676 Z M149.222571,31.3178395 C149.212218,31.3185149 149.202713,31.3185149 149.194057,31.3179896 C149.151456,31.3152129 149.128713,31.2981779 149.117171,31.2843697 C149.098671,31.2623066 149.093919,31.232514 149.103254,31.1952919 L149.141103,31.1646738 C149.248963,31.1531169 149.260844,31.2367164 149.263814,31.274764 L149.222571,31.3178395 Z M149.192614,27.8316495 C149.199743,27.8267716 149.206108,27.822344 149.210266,27.8181415 L149.263899,27.8084607 C149.296317,27.8224941 149.311507,27.8504856 149.302342,27.879753 C149.290291,27.9198267 149.234027,27.9533716 149.184552,27.9502197 L149.168428,27.9477432 L149.13635,27.9014408 C149.1456,27.8639936 149.172756,27.8452325 149.192614,27.8316495 L149.192614,27.8316495 Z M149.360388,28.4124935 L149.319484,28.4460384 C149.312271,28.4464887 149.305821,28.4465637 149.299711,28.4461135 C149.26636,28.4440122 149.247096,28.4300539 149.236913,28.4187973 C149.210181,28.3893048 149.214679,28.34743 149.220789,28.3104331 L149.261777,28.2768882 C149.308197,28.2736613 149.332044,28.2906964 149.344434,28.3041293 C149.370996,28.3335468 149.366498,28.3754216 149.360388,28.4124935 L149.360388,28.4124935 Z M149.25694,19.9065801 L149.317617,19.8743861 C149.350714,19.8848923 149.370487,19.9011769 149.376936,19.9230899 C149.386441,19.9558843 149.360049,19.982375 149.351223,19.9910802 L149.314732,20.004213 L149.27578,20.0017365 L149.234537,19.9664656 C149.230803,19.9335211 149.248369,19.9152853 149.25694,19.9065801 L149.25694,19.9065801 Z M148.810817,28.605733 L148.806489,28.6054328 L148.767282,28.5730887 C148.760493,28.5399941 148.766094,28.5141788 148.783916,28.4966184 C148.813363,28.4681765 148.8709,28.4735797 148.905948,28.5092258 L148.913331,28.5508005 C148.894661,28.5892983 148.85834,28.6088098 148.810817,28.605733 L148.810817,28.605733 Z M148.680638,24.8647671 L148.639394,24.822517 L148.644995,24.753251 L148.687681,24.7167044 C148.732404,24.7146031 148.758372,24.7322386 148.770592,24.7459717 C148.789092,24.7672093 148.794439,24.7965517 148.786631,24.836025 L148.739363,24.8685943 L148.680638,24.8647671 Z M148.637273,30.8479862 C148.607995,30.8461101 148.580245,30.8295252 148.567261,30.8053609 C148.553853,30.7811966 148.556823,30.753205 148.575408,30.7290407 L148.604685,30.7122308 C148.660949,30.7021748 148.683438,30.7435243 148.688784,30.7558316 L148.688784,30.7559817 C148.687851,30.7559066 148.681656,30.7511788 148.674188,30.7502783 L148.711782,30.7985319 C148.703381,30.8304258 148.673509,30.8503126 148.637273,30.8479862 L148.637273,30.8479862 Z M148.646353,25.465723 C148.691415,25.4832084 148.71331,25.5170534 148.707539,25.5612546 L148.667484,25.5959252 L148.65136,25.5963004 C148.624628,25.5946494 148.608844,25.5824922 148.600442,25.5760384 L148.563442,25.5242577 C148.568619,25.5089486 148.578718,25.4997182 148.584743,25.4942399 L148.646353,25.465723 Z M148.573117,21.3072098 L148.619961,21.2759913 L148.658913,21.2784678 L148.690736,21.3424807 C148.688021,21.3455575 148.684966,21.3484092 148.682929,21.3511858 L148.692773,21.370097 C148.673764,21.4040171 148.643468,21.4058932 148.631248,21.4052178 C148.613851,21.4040171 148.600867,21.3965127 148.591107,21.3911095 L148.551561,21.3367773 C148.556993,21.3216183 148.567176,21.312688 148.573117,21.3072098 L148.573117,21.3072098 Z M148.525339,27.9875919 L148.500304,28.0070284 C148.484774,28.0117562 148.472045,28.0137073 148.459825,28.0128818 L148.419006,27.9953214 C148.401694,27.9771607 148.403815,27.9550226 148.405173,27.9404639 C148.405004,27.9382126 148.416969,27.9521709 148.432838,27.9532215 L148.389898,27.8987392 C148.41366,27.847709 148.489187,27.8473338 148.52135,27.8979888 C148.539596,27.9265807 148.541038,27.9601256 148.525339,27.9875919 L148.525339,27.9875919 Z M148.538993,28.2567763 C148.537188,28.2753873 148.52626,28.2921222 148.508314,28.3039042 C148.494578,28.3128345 148.470516,28.3228905 148.43332,28.3209393 L148.437431,28.2783141 C148.431215,28.278239 148.428307,28.2808656 148.420788,28.2795148 C148.422994,28.256326 148.425199,28.2330623 148.427505,28.2100987 C148.430814,28.2100987 148.431917,28.2120498 148.434824,28.212425 L148.436027,28.1707754 C148.504003,28.1745276 148.542301,28.2180534 148.538993,28.2564011 L148.538993,28.2567763 Z M148.421721,28.9000573 L148.378866,28.9082372 C148.343818,28.8987065 148.333804,28.8737918 148.331937,28.8510533 L148.308005,28.8695143 C148.28645,28.865687 148.218051,28.8455751 148.239182,28.7511691 L148.271939,28.7206261 C148.313097,28.7111705 148.339999,28.725654 148.351285,28.7378112 C148.359432,28.7467415 148.363591,28.7565724 148.365373,28.7665533 L148.37038,28.761 C148.414932,28.754246 148.44752,28.7689547 148.458552,28.798222 C148.473827,28.8377704 148.438864,28.8862492 148.421721,28.9000573 L148.421721,28.9000573 Z M148.135734,25.7683023 C148.134207,25.7451135 148.144899,25.7232006 148.165691,25.7066157 L148.204133,25.6971601 C148.238248,25.7030886 148.263537,25.7227503 148.271599,25.7499164 C148.28068,25.7799342 148.267781,25.8139293 148.238757,25.8363676 L148.183342,25.838694 C148.154574,25.8204582 148.137347,25.7947179 148.135734,25.7683023 L148.135734,25.7683023 Z M148.14108,23.2098868 C148.142778,23.2005813 148.146003,23.184822 148.145069,23.179794 L148.180542,23.1328162 C148.220427,23.125837 148.246989,23.1411461 148.257852,23.1535284 C148.279661,23.1784432 148.273212,23.2109374 148.267441,23.2395294 C148.265574,23.2488349 148.262519,23.2645942 148.263368,23.2695472 L148.22798,23.3169002 C148.217966,23.3185512 148.208886,23.3192266 148.200484,23.3186262 C148.174177,23.3169002 148.158902,23.3054184 148.150755,23.2960378 C148.12886,23.2711231 148.13514,23.2385538 148.14108,23.2098868 L148.14108,23.2098868 Z M148.13217,20.09209 C148.12292,20.1191811 148.088466,20.1347153 148.044507,20.1319386 C148.003603,20.1293121 147.97424,20.1110012 147.965839,20.0830847 L147.964566,20.0686011 C147.97144,20.0125429 148.016502,20.0124678 148.025497,20.0130682 C148.046713,20.014419 148.062243,20.026276 148.073699,20.0350562 L148.091521,20.0249252 C148.140486,20.0495398 148.136243,20.0800829 148.13217,20.09209 L148.13217,20.09209 Z M148.01769,23.1153308 C148.008864,23.1147304 147.99902,23.1131545 147.987988,23.1104529 L147.963633,23.0494418 C147.97458,23.0360839 147.974071,23.032932 147.957607,23.0080923 C147.939277,22.9802508 147.908557,22.9340985 147.958456,22.8741379 L148.032117,22.8764643 C148.043149,22.8918484 148.056133,22.9059568 148.068862,22.91984 C148.088126,22.9409275 148.107984,22.9626904 148.123768,22.9896313 L148.127502,23.016047 C148.119101,23.0508676 148.101874,23.120659 148.01769,23.1153308 L148.01769,23.1153308 Z M148.015965,19.0527599 C148.014663,19.0705034 148.013242,19.0882469 148.012058,19.1058752 C147.876605,19.123273 147.971683,18.9604708 148.015965,19.0527599 L148.015965,19.0527599 Z M148.528054,20.0306286 L148.557332,20.0167454 C148.617415,20.0111921 148.644316,20.0324297 148.664683,20.0463129 C148.678007,20.0558435 148.683184,20.0591455 148.69447,20.0598959 L148.726039,20.1289368 C148.693028,20.1549773 148.647711,20.1907735 148.566412,20.1855954 C148.553768,20.1846949 148.540105,20.1829688 148.525169,20.179817 L148.490715,20.1437956 C148.48732,20.0976433 148.499625,20.0607214 148.528054,20.0306286 L148.528054,20.0306286 Z M148.641686,18.4346582 C148.662901,18.4386356 148.730876,18.4586725 148.709661,18.5529283 L148.643553,18.5792689 C148.588307,18.5510522 148.588052,18.4926676 148.588052,18.4736063 L148.641686,18.4346582 Z M148.798682,20.3245027 C148.806489,20.3668277 148.78731,20.4030742 148.749716,20.4171826 L148.717892,20.4182332 C148.693876,20.4110289 148.680722,20.3966954 148.671982,20.3873149 L148.632096,20.3387611 C148.633369,20.3260036 148.639904,20.3066421 148.665702,20.2962109 L148.661204,20.2880311 C148.683862,20.2556119 148.712461,20.25246 148.727397,20.2534356 C148.76253,20.2556119 148.791129,20.2842789 148.798682,20.3245027 L148.798682,20.3245027 Z M147.740783,20.5244961 C147.712015,20.5389797 147.689271,20.5450583 147.669668,20.5437826 L147.669498,20.5437826 C147.650829,20.5426569 147.634959,20.5349273 147.624606,20.5218696 C147.605936,20.4980805 147.615526,20.4682128 147.618581,20.458382 L147.654223,20.449977 C147.654308,20.4487763 147.654478,20.4476506 147.654478,20.4466 L147.704547,20.4029241 C147.739001,20.4051755 147.745281,20.4254375 147.761914,20.4797696 L147.740783,20.5244961 Z M147.58192,20.3069423 L147.546108,20.3428135 C147.535161,20.3448397 147.525147,20.3454401 147.515727,20.3448397 C147.463876,20.3415378 147.450383,20.3037904 147.444782,20.2876559 C147.442491,20.2806767 147.446225,20.2840537 147.450722,20.2849543 L147.419153,20.2403778 C147.428403,20.1920492 147.468034,20.1921243 147.475927,20.1926496 C147.494257,20.1937752 147.506732,20.2030808 147.515727,20.2099098 C147.518952,20.2122362 147.524129,20.2161385 147.526505,20.216964 L147.586248,20.2549365 L147.58192,20.3069423 Z M147.225666,22.2196753 L147.195795,22.2234275 C147.134269,22.2194501 147.13045,22.166919 147.129347,22.1497338 C147.129093,22.1455313 147.128583,22.1394527 147.128074,22.1374265 C147.129347,22.1413289 147.135797,22.1479328 147.144198,22.1495837 L147.116448,22.0883475 C147.141058,22.0568288 147.171269,22.053752 147.187054,22.0548026 C147.230843,22.0575793 147.261818,22.0958519 147.269456,22.1320233 C147.277772,22.1705212 147.26063,22.2048915 147.225666,22.2196753 L147.225666,22.2196753 Z M147.057384,22.6032275 L147.015716,22.6299433 L147.002308,22.629493 C146.965138,22.6270916 146.944516,22.612533 146.933739,22.6004508 C146.917445,22.5822901 146.911674,22.5580507 146.916936,22.5286333 L146.996452,22.5109228 C147.069264,22.5317851 147.06918,22.5726093 147.057384,22.6032275 L147.057384,22.6032275 Z M146.865933,19.9122085 L146.818325,19.9487551 L146.799231,19.9475544 C146.789896,19.9746454 146.760449,19.9946073 146.730577,19.9926561 L146.689419,19.9726943 C146.674228,19.9550588 146.671173,19.9302942 146.67932,19.8949482 L146.720309,19.8714593 L146.722006,19.8508221 L146.769699,19.8142754 L146.828933,19.8180277 L146.870176,19.8603527 L146.865933,19.9122085 Z M146.799995,20.9933739 C146.79049,20.9944995 146.781919,20.9945746 146.774366,20.9941243 C146.746447,20.9923233 146.728371,20.9820422 146.71649,20.9752131 C146.711738,20.9725866 146.707834,20.9703352 146.704949,20.9695097 L146.673804,20.9274848 C146.678726,20.8883116 146.71318,20.861821 146.755782,20.8646726 C146.780816,20.8662486 146.804408,20.8774302 146.820277,20.8954409 C146.836571,20.9136016 146.843105,20.9367904 146.838692,20.9606545 L146.799995,20.9933739 Z M146.522749,20.473616 L146.522579,20.473616 C146.519269,20.4734659 146.524955,20.4662616 146.524955,20.4613838 L146.467079,20.500707 C146.413361,20.4856231 146.395794,20.4484011 146.402498,20.4181582 C146.41387,20.3649516 146.492707,20.335159 146.56221,20.3611994 L146.588687,20.3898664 C146.595561,20.4210098 146.58962,20.4607834 146.522749,20.473616 L146.522749,20.473616 Z M146.301851,21.1535187 C146.270027,21.1514925 146.252461,21.1291293 146.239562,21.1128446 C146.234894,21.106616 146.226578,21.0962598 146.222589,21.0942336 L146.171162,21.0504077 C146.181346,20.9911976 146.226238,20.9894716 146.239816,20.990222 C146.251612,20.9910475 146.261117,20.9944245 146.267906,20.9968259 C146.249151,20.9963757 146.235997,21.0086079 146.233536,21.0161874 C146.233876,21.0161874 146.234215,21.0162624 146.234555,21.0162624 L146.285897,20.98677 C146.335626,20.9960004 146.343943,21.0376501 146.347422,21.0554356 C146.348271,21.0595631 146.349544,21.0658668 146.350392,21.067818 C146.349204,21.0651914 146.344113,21.0609139 146.338766,21.0599383 L146.365753,21.1221502 C146.347083,21.1445134 146.325612,21.1550196 146.301851,21.1535187 L146.301851,21.1535187 Z M146.084008,22.2379861 L146.040559,22.2707805 L146.027575,22.2704053 C145.990235,22.2680789 145.969613,22.2532952 145.958921,22.2413631 C145.942288,22.2230523 145.936602,22.1988129 145.941863,22.1692454 L145.985652,22.1358506 L145.998042,22.1362258 C146.036315,22.1386273 146.057277,22.1537862 146.067969,22.1658684 C146.084263,22.1844794 146.089779,22.2086437 146.084008,22.2379861 L146.084008,22.2379861 Z M145.904184,20.9403925 L145.856152,20.9490977 C145.808544,20.9322877 145.777909,20.8863605 145.768828,20.8481629 C145.760342,20.8125918 145.768828,20.7803977 145.791996,20.7593853 L145.854794,20.7586348 C145.889588,20.7882774 145.93134,20.8335292 145.931765,20.8805821 C145.932019,20.9033205 145.92243,20.9241078 145.904184,20.9403925 L145.904184,20.9403925 Z M145.444992,21.866366 L145.387625,21.8966839 C145.370822,21.8918061 145.360469,21.8829508 145.354444,21.8776977 L145.320838,21.8270427 C145.326269,21.8121088 145.336283,21.8031035 145.342308,21.7976253 L145.398148,21.7678326 C145.415799,21.7722602 145.426237,21.7812656 145.432517,21.7867438 L145.466123,21.8373988 C145.460692,21.8522576 145.450848,21.8611129 145.444992,21.866366 L145.444992,21.866366 Z M145.116743,22.5084463 L145.069729,22.5401151 L145.030777,22.5376386 L144.998954,22.4738508 C145.001669,22.470774 145.004555,22.4676972 145.006506,22.4649205 L144.996747,22.4461594 C145.015587,22.4119392 145.045968,22.409913 145.058273,22.4108135 C145.07567,22.4119392 145.088908,22.4193686 145.098582,22.4248468 L145.138044,22.4784285 C145.132952,22.4937376 145.122683,22.5030431 145.116743,22.5084463 L145.116743,22.5084463 Z M144.702868,21.626599 C144.670959,21.6245728 144.6399,21.6112899 144.622248,21.5918534 L144.612574,21.5627361 C144.617835,21.5201859 144.657975,21.4929448 144.710251,21.4963218 C144.742583,21.498348 144.773643,21.511781 144.79104,21.5312925 L144.80046,21.5601096 C144.795198,21.6026598 144.755228,21.629976 144.702868,21.626599 L144.702868,21.626599 Z M144.666377,22.452163 L144.637354,22.4751266 C144.621824,22.4788788 144.608246,22.4803046 144.595856,22.4795542 C144.551897,22.4767025 144.536112,22.4473601 144.529493,22.4346776 L144.505986,22.3886003 C144.513454,22.3592579 144.542223,22.3410972 144.577441,22.3434236 C144.609264,22.3454498 144.642361,22.3634604 144.659757,22.3883002 C144.673675,22.4084121 144.676221,22.4317509 144.666377,22.452163 L144.666377,22.452163 Z M144.584654,20.8706012 L144.622333,20.8624964 C144.643464,20.8666238 144.711354,20.887186 144.690223,20.9809915 L144.649828,21.0126603 C144.643209,21.0131856 144.63676,21.0131856 144.630904,21.0128104 L144.630734,21.0128104 C144.592037,21.0103339 144.562759,20.9909725 144.552067,20.9612549 C144.540695,20.929361 144.553764,20.8931145 144.584654,20.8706012 L144.584654,20.8706012 Z M144.001817,20.8127419 C143.993161,20.8210718 143.98128,20.8267752 143.967957,20.8296269 C143.972624,20.8457614 143.974576,20.861821 143.976358,20.8751789 C143.978395,20.8897375 143.980007,20.9042211 143.984165,20.9169786 L143.921367,20.9632811 C143.926968,20.9662078 143.935624,20.9617051 143.937151,20.9605795 C143.926459,20.9737122 143.917294,20.985119 143.90431,20.9920981 C143.917209,20.9984769 143.929768,21.0079325 143.936727,21.0233917 C143.944704,21.0411021 143.942583,21.0609139 143.930193,21.0823766 L143.887167,21.1037643 L143.828697,21.100012 L143.789405,21.0489068 C143.790084,21.0467305 143.790763,21.0447793 143.791103,21.0430533 C143.788981,21.0431283 143.78669,21.0434285 143.784059,21.0437287 L143.758006,21.0051559 C143.703355,20.9860946 143.694105,20.9358898 143.687994,20.9020448 C143.685279,20.8867357 143.681036,20.8634719 143.673907,20.8603951 L143.649127,20.8221224 L143.651928,20.7873018 L143.689861,20.7511304 C143.729747,20.7461775 143.754442,20.7609612 143.765644,20.7794972 C143.768105,20.7771708 143.77082,20.7746943 143.773791,20.7722929 C143.772263,20.7710172 143.770905,20.7695913 143.769548,20.7680904 C143.74969,20.7462525 143.753848,20.7186361 143.757412,20.696423 C143.758515,20.6898191 143.759958,20.6830651 143.759619,20.6772866 L143.813252,20.6363124 C143.837353,20.64074 143.887761,20.6583004 143.885215,20.7258404 L143.911438,20.7127076 L143.928326,20.7124074 C143.954973,20.7141335 143.970757,20.7261406 143.979413,20.7327445 L144.017856,20.7680904 C144.020402,20.7849754 144.014716,20.8008849 144.001817,20.8127419 L144.001817,20.8127419 Z M143.871298,22.2434644 L143.824029,22.2045163 C143.818259,22.1693204 143.856702,22.1337494 143.924167,22.1117613 L143.977801,22.1691704 C143.94394,22.2193 143.905837,22.2456406 143.871298,22.2434644 L143.871298,22.2434644 Z M143.693341,21.5958307 C143.673313,21.572567 143.665166,21.5436748 143.671277,21.5164337 L143.71549,21.4846149 C143.715829,21.4844648 143.716169,21.4844648 143.716678,21.4844648 C143.763862,21.4875416 143.786096,21.5035261 143.802305,21.515158 C143.811385,21.5216118 143.816816,21.525289 143.822926,21.5269399 L143.853222,21.5752686 C143.838795,21.6217211 143.799504,21.6360546 143.76785,21.6340284 C143.740185,21.6322273 143.712265,21.6179689 143.693341,21.5958307 L143.693341,21.5958307 Z M143.737554,22.6001506 L143.68129,22.6014264 C143.667967,22.5924961 143.662451,22.5893442 143.651334,22.5886688 L143.60712,22.5572252 C143.596258,22.5121235 143.617219,22.4890098 143.628336,22.4765524 L143.678829,22.4237962 L143.679084,22.4237962 C143.719139,22.4263477 143.747144,22.4467598 143.759703,22.4800045 C143.773536,22.5170764 143.766917,22.5777123 143.737554,22.6001506 L143.737554,22.6001506 Z M143.658123,22.9945843 C143.650994,23.0283543 143.607629,23.0465901 143.571223,23.0443388 C143.546359,23.0426878 143.526586,23.0307557 143.518099,23.0123698 C143.5024,22.9782246 143.533969,22.946856 143.544492,22.9363498 L143.590742,22.9247929 C143.658293,22.9431788 143.662026,22.9764235 143.658123,22.9945843 L143.658123,22.9945843 Z M143.436461,21.7336874 C143.438838,21.6938388 143.458441,21.6706501 143.474225,21.6581927 C143.517336,21.6248729 143.589554,21.6329777 143.623414,21.6741771 C143.644375,21.6996923 143.65057,21.7336124 143.640386,21.7699339 L143.627063,21.7896706 C143.598973,21.812334 143.570629,21.8155609 143.551705,21.8144352 C143.509783,21.8117336 143.476686,21.785393 143.454792,21.7681328 L143.436461,21.7336874 Z M143.543728,21.066242 C143.589384,21.0312713 143.670428,21.0384756 143.701488,21.0809508 C143.719139,21.1048899 143.7216,21.1356582 143.708701,21.1678522 L143.68129,21.1919415 C143.657614,21.1992208 143.636992,21.2022976 143.618492,21.2010219 C143.587008,21.1990707 143.533459,21.1828611 143.528368,21.098211 L143.543728,21.066242 Z M142.878998,23.3391884 L142.854133,23.357049 C142.781151,23.3494695 142.740248,23.3076697 142.741945,23.242306 L142.799227,23.2055342 C142.789468,23.2057594 142.79125,23.2054592 142.787856,23.2059845 L142.812805,23.1879738 C142.885872,23.1958535 142.926691,23.2376533 142.925079,23.3027168 L142.867627,23.3397137 C142.87501,23.3394135 142.875519,23.3397888 142.878998,23.3391884 L142.878998,23.3391884 Z M142.330361,23.1619334 C142.290475,23.1593819 142.233532,23.1439978 142.20417,23.1088019 C142.187537,23.0891403 142.181851,23.0655763 142.187707,23.0420874 L142.23209,23.0111691 L142.2752,23.0146211 C142.27834,23.0155967 142.269005,23.0223507 142.267053,23.0309808 L142.304478,22.9993121 C142.381109,22.9900066 142.396893,23.0483912 142.400797,23.0688032 C142.401815,23.0730057 142.402918,23.0794596 142.404022,23.0815608 C142.402749,23.0789342 142.397911,23.0749569 142.392735,23.0739813 L142.415818,23.1403206 C142.392735,23.161258 142.356583,23.1635844 142.330361,23.1619334 L142.330361,23.1619334 Z M142.018066,23.0630999 L141.940162,23.0758574 C141.942114,23.0781838 141.943896,23.0790843 141.943896,23.0790843 C141.867265,23.0546949 141.866756,23.0140958 141.878212,22.9837028 L141.913515,22.956987 C141.968846,22.9490323 141.999396,22.9685439 142.011616,22.9842281 C142.027146,23.0041149 142.029098,23.0306807 142.018066,23.0630999 L142.018066,23.0630999 Z M141.707808,23.3319841 L141.646961,23.3664295 C141.592479,23.3550228 141.57347,23.3184011 141.578817,23.2870325 C141.58569,23.2476342 141.628122,23.2167909 141.671487,23.2195675 C141.697794,23.2212936 141.721301,23.2344263 141.737934,23.2565645 L141.742686,23.291235 C141.734455,23.3123225 141.718331,23.3241045 141.707808,23.3319841 L141.707808,23.3319841 Z M141.545956,21.7673824 C141.542355,21.7673073 141.541255,21.7652811 141.538054,21.7649809 L141.537353,21.8066306 C141.506844,21.8049796 141.479435,21.7948486 141.460129,21.7781137 C141.441823,21.7622043 141.43242,21.7411918 141.43442,21.7207798 L141.43442,21.7202544 C141.437922,21.6859591 141.475233,21.6529396 141.539654,21.6563166 L141.539054,21.6989418 C141.544156,21.6991669 141.546456,21.6967655 141.552558,21.6978912 C141.550458,21.7210049 141.548057,21.7444188 141.545956,21.7673824 L141.545956,21.7673824 Z M140.912984,22.9025798 C140.886167,22.9008538 140.865291,22.8871206 140.846876,22.8749634 C140.838305,22.86926 140.823878,22.8597294 140.818362,22.8594292 L140.775336,22.798268 C140.793836,22.7737285 140.821841,22.7614212 140.853919,22.7635224 C140.888968,22.7658488 140.920282,22.7842347 140.945571,22.7991685 C140.953294,22.8035961 140.959913,22.8079487 140.965259,22.8098999 L140.984438,22.8694852 C140.960252,22.8991277 140.932248,22.9037805 140.912984,22.9025798 L140.912984,22.9025798 Z M140.845433,22.9618649 L140.765068,22.9825021 C140.767359,22.9851287 140.769311,22.9861793 140.769311,22.9861793 C140.69285,22.9616398 140.69251,22.9208906 140.704137,22.8905727 L140.794685,22.8661082 C140.807075,22.8668586 140.847555,22.8733124 140.848403,22.9238174 L140.845433,22.9618649 Z M140.591524,23.9950769 L140.576927,23.9959774 C140.538909,23.993576 140.51065,23.9529019 140.51031,23.9524517 C140.495544,23.9312141 140.498684,23.914179 140.503861,23.9038229 C140.526519,23.8600719 140.562246,23.8575955 140.576503,23.8585711 C140.617152,23.8611226 140.644393,23.8957181 140.647194,23.927612 C140.650079,23.9606315 140.62776,23.9877226 140.591524,23.9950769 L140.591524,23.9950769 Z M140.49478,23.8810093 L140.447087,23.917556 L140.387938,23.9137287 L140.346865,23.8785329 C140.343046,23.8455884 140.360612,23.8273526 140.369268,23.8186474 L140.418149,23.7843521 L140.45778,23.7869036 L140.499023,23.8292287 L140.49478,23.8810093 Z M140.723485,22.1690953 C140.72357,22.165118 140.72391,22.1609155 140.72357,22.1571632 L140.761843,22.1155136 C140.769311,22.114613 140.776524,22.1143129 140.783229,22.1147631 C140.812676,22.1166392 140.848403,22.131423 140.849252,22.1912334 L140.792224,22.2296562 C140.794176,22.2298063 140.797825,22.2298813 140.80071,22.2295811 L140.774148,22.2466913 C140.720006,22.2365603 140.722637,22.1857552 140.723485,22.1690953 L140.723485,22.1690953 Z M140.217958,22.725625 L140.177479,22.7303528 C140.118669,22.7115917 140.047554,22.664914 140.041444,22.5487452 L140.076747,22.5082962 C140.172132,22.4899854 140.255043,22.5276577 140.275919,22.5947474 C140.291025,22.6433762 140.268197,22.6946316 140.217958,22.725625 L140.217958,22.725625 Z M140.137339,23.4146831 C140.125967,23.4438754 140.095926,23.4612857 140.060623,23.4590344 C140.02846,23.4570082 139.997654,23.4394478 139.981615,23.414458 C139.967359,23.392545 139.966595,23.3670299 139.979324,23.3445166 L140.022519,23.3228287 L140.101017,23.3279317 L140.142261,23.3715326 C140.141157,23.3811383 140.137508,23.3914193 140.129192,23.4001245 L140.137339,23.4146831 Z M140.019464,23.7880293 L139.983398,23.8007118 L139.94453,23.7981603 L139.903287,23.7629644 C139.899553,23.7300199 139.91712,23.7117841 139.925691,23.703079 L139.986028,23.6708849 C140.019549,23.6810909 140.039916,23.6977508 140.046366,23.7198889 C140.055616,23.7532086 140.02846,23.7794742 140.019464,23.7880293 L140.019464,23.7880293 Z M140.038134,22.8925989 C140.040038,22.8753386 140.041943,22.8579283 140.043735,22.840518 C140.054041,22.8376663 140.058745,22.8411934 140.065915,22.8420189 L140.070619,22.7981929 C140.123716,22.8006694 140.160459,22.8325633 140.156202,22.8721117 C140.154409,22.8878711 140.14612,22.9025798 140.133014,22.9139865 C140.114195,22.9301211 140.085966,22.9386762 140.055945,22.9372503 L140.06065,22.8931992 C140.053369,22.8933493 140.04788,22.8964261 140.038134,22.8925989 L140.038134,22.8925989 Z M139.693591,23.6094235 C139.653112,23.6067969 139.616112,23.5788804 139.609408,23.5459359 C139.604995,23.5235726 139.614414,23.4941552 139.654215,23.4782458 L139.699107,23.4826734 C139.712601,23.4917538 139.719984,23.5029354 139.72533,23.5109652 L139.768865,23.5694998 C139.754947,23.5961406 139.726094,23.6114497 139.693591,23.6094235 L139.693591,23.6094235 Z M138.120322,24.1051671 L138.077211,24.1135721 C138.023154,24.0988634 138.02833,24.0464824 138.030537,24.023969 C138.031216,24.0178154 138.031895,24.0118869 138.031555,24.0064837 L138.068216,23.9662598 C138.112344,23.9590556 138.145101,23.9737643 138.156558,24.0031817 C138.171918,24.0426551 138.137379,24.091434 138.120322,24.1051671 L138.120322,24.1051671 Z M137.903582,24.1973968 L137.827715,24.2055766 C137.806669,24.1783355 137.806754,24.1542462 137.80913,24.1326334 C137.804632,24.1376614 137.800304,24.142164 137.796231,24.1463665 C137.780616,24.162426 137.771111,24.1720317 137.770433,24.1931943 L137.73199,24.2309416 C137.723758,24.2319922 137.716375,24.2322924 137.709077,24.2318422 L137.708907,24.2318422 C137.648739,24.2279398 137.639489,24.1790859 137.635925,24.1607 C137.635077,24.1563474 137.633804,24.1495934 137.6327,24.1475672 C137.634398,24.1509442 137.640338,24.1546214 137.644157,24.1550717 L137.603083,24.0874566 C137.617171,24.0756747 137.690916,24.017215 137.763644,24.0219428 C137.786896,24.0233687 137.808281,24.0313234 137.824999,24.0449064 L137.826357,24.0491089 L137.853343,24.0213425 L137.865394,24.0214926 C137.941007,24.0262954 137.941007,24.0922595 137.941007,24.1204011 C137.940922,24.1289562 137.941007,24.1431396 137.943043,24.1474922 L137.903582,24.1973968 Z M156.219162,16.0820897 L156.159249,16.11631 C156.083636,16.0918455 156.057074,16.0450928 156.080242,15.9774777 L156.126238,15.9494862 L156.185047,15.9531633 L156.226291,15.9954884 L156.219162,16.0820897 Z M155.775449,15.4487887 C155.796004,15.4519527 155.80378,15.457518 155.804608,15.4589206 C155.805541,15.4605716 155.805626,15.4719783 155.789078,15.4954672 L155.790011,15.5388429 C155.822005,15.5800423 155.867831,15.5831192 155.901436,15.5854455 C155.932411,15.5875468 155.949129,15.5894229 155.965168,15.6057075 L156.042987,15.574339 C156.031191,15.5011706 156.030852,15.4324299 156.041799,15.358286 L156.002847,15.3138597 C155.960586,15.309432 155.940897,15.2897704 155.913402,15.2625293 C155.900011,15.2492074 155.885373,15.23488 155.867244,15.2221276 L155.875966,15.2170223 C155.872547,15.2183653 155.869127,15.2197101 155.865707,15.221056 C155.856675,15.2148156 155.84678,15.2089755 155.835752,15.2038445 C155.915693,15.1724759 156.000047,15.140507 156.091444,15.1103391 C156.088558,15.1182188 156.084655,15.1268489 156.082448,15.1336779 C156.074556,15.1568667 156.066664,15.1809559 156.054783,15.1924377 L156.105276,15.2554 C156.113932,15.2520981 156.131923,15.2510475 156.147623,15.250222 C156.164595,15.2492464 156.18666,15.2481207 156.207451,15.2426425 C156.202784,15.2726603 156.207706,15.3014773 156.219247,15.3193379 L156.302667,15.2988508 C156.302922,15.3122837 156.293162,15.3214391 156.287986,15.3234653 C156.289344,15.3227899 156.293417,15.3220395 156.299527,15.3217393 C156.298594,15.3258668 156.298424,15.3304445 156.299018,15.3353224 C156.299697,15.3408006 156.301394,15.3455284 156.303601,15.3496559 C156.295114,15.3469543 156.286968,15.3441026 156.283828,15.341476 L156.215768,15.3468042 L156.208469,15.3564099 C156.192855,15.3776474 156.194722,15.3800489 156.176052,15.3772722 L156.125813,15.4102167 C156.116987,15.4602714 156.151527,15.4838353 156.174949,15.4960676 C156.157976,15.5167799 156.152884,15.5453718 156.151272,15.5684855 C156.147029,15.5674349 156.142786,15.5666844 156.138033,15.5663842 L156.090765,15.6119362 C156.094753,15.6339993 156.086861,15.6514846 156.078036,15.6715966 C156.065221,15.7000384 156.046127,15.7429638 156.087625,15.7872401 L156.111217,15.8002978 C156.117921,15.8018737 156.124116,15.8026992 156.129802,15.8030744 C156.158316,15.8049506 156.177325,15.7950447 156.188696,15.7891162 L156.20533,15.7881406 L156.263291,15.7639763 C156.267194,15.7539203 156.269061,15.744915 156.269486,15.7368852 L156.287816,15.7587982 C156.367502,15.783788 156.401702,15.7325327 156.414092,15.709494 C156.416553,15.7051414 156.418759,15.7006388 156.421645,15.6969616 L156.418844,15.6907329 C156.462633,15.6782005 156.490893,15.6514096 156.51406,15.6291964 L156.522462,15.6210916 L156.493014,15.5726129 C156.494796,15.5699113 156.496833,15.5671347 156.498445,15.5645081 L156.560395,15.5918243 C156.562432,15.5927248 156.568033,15.5966272 156.571682,15.5993288 C156.58526,15.6091596 156.605712,15.6241685 156.636602,15.6261196 L156.651792,15.6259695 C156.741747,15.6193656 156.80794,15.5482985 156.86641,15.4854863 C156.896452,15.4529921 156.924965,15.4222238 156.955177,15.4017367 C156.961541,15.4077403 156.969773,15.4135187 156.980635,15.4180214 L157.043434,15.3908553 C157.044792,15.3892043 157.051411,15.3856022 157.055739,15.3832758 C157.072032,15.3741954 157.099358,15.3591115 157.107845,15.3256416 L157.07636,15.3049294 C157.079246,15.2923969 157.076445,15.2782886 157.068044,15.2630546 L157.025019,15.2382899 C157.020775,15.2379897 157.015429,15.2379897 157.005585,15.23844 C156.99328,15.2288343 156.984709,15.2186282 156.976222,15.2087974 C156.960183,15.1900363 156.936592,15.1669977 156.900525,15.1680483 C156.89764,15.1546153 156.891869,15.1418578 156.88194,15.1309763 C156.86972,15.1175434 156.84511,15.1001331 156.799199,15.1037352 L156.75821,15.1483116 C156.762199,15.1745021 156.756004,15.1874098 156.746754,15.2068463 C156.738098,15.224932 156.72732,15.2476705 156.727066,15.2803898 L156.759738,15.3146101 C156.754391,15.3225648 156.7493,15.3290937 156.744887,15.3318703 C156.739455,15.3343468 156.731988,15.3358477 156.718579,15.3311199 C156.701437,15.3258668 156.676487,15.3179121 156.636008,15.3186625 C156.630661,15.2440683 156.55751,15.221555 156.513721,15.2082721 L156.482237,15.2090226 C156.471459,15.2128498 156.462294,15.216527 156.454402,15.219979 C156.440145,15.2257575 156.433695,15.2281589 156.428858,15.2285341 C156.430046,15.1984413 156.422578,15.1715754 156.406115,15.1471859 L156.374291,15.1282747 L156.360289,15.1269239 C156.315821,15.1240722 156.277633,15.1361544 156.249798,15.1612943 L156.247506,15.1589679 C156.250816,15.1552157 156.254465,15.1510882 156.25752,15.1478613 C156.280009,15.1233218 156.31039,15.0896268 156.302158,15.049403 C156.379298,15.0303417 156.462294,15.0136819 156.551994,15.0001738 C156.550551,15.032518 156.558443,15.0591588 156.57567,15.079796 C156.595528,15.1035101 156.6254,15.1174683 156.664776,15.1213706 L156.6809,15.120245 C156.724605,15.1104141 156.750827,15.0867751 156.76729,15.0647871 C156.803442,15.0803964 156.85385,15.0773195 156.873454,15.0276401 C156.900355,15.0255389 156.924796,15.0154829 156.948472,15.0057271 C156.971725,14.9960464 156.994044,14.986966 157.015344,14.986966 L157.023576,14.9782609 C157.169031,15.0810718 157.139668,15.3034285 157.173274,15.3055297 C157.150191,15.2971247 157.132794,15.5173052 157.141535,15.4875876 C157.132285,15.5188811 157.123205,15.5487488 157.114379,15.5776409 C157.111239,15.5772657 157.108099,15.5766653 157.104789,15.5762901 L157.054381,15.6177897 C157.057521,15.6654429 157.066686,15.6872058 157.074239,15.7046161 C157.074239,15.7047662 157.074324,15.7049163 157.074409,15.7050664 C157.019078,15.876618 156.970367,16.0074955 156.918092,16.1377727 L156.894924,16.1577345 C156.898234,16.1668899 156.899082,16.1764956 156.898743,16.1859512 C156.898403,16.1866266 156.898149,16.187227 156.897894,16.1879774 L156.864458,16.1545076 C156.794871,16.1407745 156.742595,16.1482789 156.71179,16.1773962 C156.687689,16.2002847 156.679118,16.2340547 156.686162,16.2777306 L156.727066,16.3114256 L156.824827,16.3177293 L156.865222,16.2675996 C156.862252,16.2748039 156.859282,16.2820081 156.856311,16.2893625 C156.856481,16.2845596 156.857245,16.2810326 156.857245,16.2808074 C156.850116,16.2899628 156.836878,16.3083487 156.838236,16.3328132 C156.799029,16.4275193 156.755919,16.5311557 156.70568,16.6570053 C156.685483,16.7076603 156.66588,16.7571146 156.646276,16.8060435 C156.641948,16.8046177 156.63779,16.8030418 156.632953,16.8021412 L156.594765,16.8112967 C156.565911,16.8341102 156.553097,16.8681053 156.562347,16.898048 C156.567439,16.9145578 156.57881,16.9274655 156.594255,16.936846 C156.467046,17.2562352 156.343316,17.5677447 156.162983,18.0174861 C156.057329,18.2808922 155.981207,18.4833621 155.907801,18.6735998 C155.910092,18.6330007 155.889216,18.6014821 155.846954,18.5851974 L155.785429,18.613189 C155.779319,18.6185171 155.769135,18.6275225 155.763789,18.6426064 L155.80045,18.6952126 C155.808936,18.7016664 155.82472,18.7136735 155.851452,18.7153995 L155.868085,18.7150243 L155.904067,18.6833556 C155.821835,18.8961066 155.742573,19.0945241 155.628433,19.3462982 C155.621474,19.3617574 155.614006,19.3776668 155.606623,19.3935012 C155.587868,19.398229 155.569284,19.4088853 155.561306,19.4325243 L155.575903,19.4587148 C155.399728,19.827108 155.15091,20.2672438 155.023447,20.5418314 C154.969134,20.6586756 154.506802,21.878223 154.356001,21.8418265 C154.46505,21.923775 154.137565,22.575461 154.021048,22.544993 C154.068062,22.5815396 153.987697,22.9022046 153.863798,22.8735376 C153.988546,22.9733467 153.518152,23.7173374 153.544289,23.6527241 C153.405878,23.9954521 153.250919,24.2969807 152.958397,24.8485575 C152.949487,24.8655175 152.46246,26.0876164 152.282805,26.0904681 C152.388714,26.1501284 152.216697,26.3285091 152.20558,26.3586019 C152.1595,26.4830256 151.773459,27.4228073 151.625459,27.3831838 C151.690633,27.4339139 151.715159,27.5301959 151.569958,27.491548 C151.663817,27.5647914 151.59652,27.5615645 151.638273,27.5847532 C151.57225,27.5766484 151.591768,27.601263 151.523199,27.5815263 C151.503935,27.5663673 151.295512,28.3870535 151.301113,28.4533177 C151.037275,28.4328306 150.923559,28.7436647 150.899713,28.774508 C150.674657,29.0665059 150.602354,29.4610146 150.422784,29.767271 C150.433222,29.7494855 149.948402,30.4261613 150.090632,30.4668354 C149.9585,30.4339659 149.944668,30.5102111 150.024354,30.582704 C149.902746,30.5451068 149.483269,31.2803173 149.561088,31.3555869 C149.432097,31.3127365 148.941336,32.5075942 148.397705,32.2145457 C147.992231,32.0183795 148.347806,31.2794167 148.042725,31.3113857 C148.183597,31.2553275 148.088296,30.7341438 148.087108,30.6944452 C148.078961,30.4277373 148.04247,29.91751 148.028128,29.5281044 C148.028383,29.5352336 148.017351,29.4460808 148.004367,29.3120514 C148.018624,29.2850354 148.017011,29.2526912 147.999105,29.2248497 C147.998257,29.2234239 147.996984,29.2225234 147.99605,29.2211726 C147.96219,28.8382958 147.928669,28.2318615 148.046798,28.2176031 C147.913903,28.182032 148.004876,28.0991079 147.989685,27.9705568 C147.954467,27.6726303 148.114434,27.1468689 147.868841,27.1204532 C147.880552,27.0991406 148.170867,26.6602056 147.914073,26.7141625 C148.094067,26.6825688 147.959474,26.1802213 147.955401,26.179846 C148.034493,26.1553065 147.992062,25.5829425 147.992316,25.5617049 C147.996899,25.0743662 147.970931,24.9444643 147.947169,24.434237 C147.934355,24.158974 147.845758,23.6633054 147.849322,23.4152084 L147.899986,23.4013252 C147.90966,23.3530716 147.902786,23.3146489 147.879788,23.2873327 C147.877921,23.2851564 147.874951,23.2842559 147.872914,23.2822297 C147.877582,23.2753256 147.882843,23.2697723 147.889123,23.2672208 C147.816905,23.267521 147.743668,23.0344329 147.808164,22.9169133 C147.828701,22.8795411 147.854329,22.84382 147.877582,22.8077236 C147.618835,22.9405523 146.949438,22.9290705 146.95139,23.0519933 C146.739658,23.0134955 146.745853,23.0336074 146.607696,23.0552202 C146.686279,23.0429129 145.227659,23.3025667 145.193629,23.2145396 C145.181324,23.3223034 145.072784,23.2731493 144.872508,23.3246298 C144.552236,23.4068035 143.908128,23.4042519 143.898709,23.5677738 C143.865273,23.4906281 143.355757,23.5209461 143.343112,23.6804155 C143.282096,23.5391068 143.145467,23.6220309 143.157687,23.7175625 C143.098029,23.709833 142.477767,23.6960248 142.225895,23.8158708 C142.221227,23.8144449 142.216899,23.8133943 142.213759,23.8127939 L142.17642,23.8210488 C142.150791,23.8398099 142.144681,23.8596967 142.144596,23.8747807 C142.131697,23.89054 142.123211,23.9075751 142.12092,23.9264863 C142.036142,23.7197388 142.053708,24.0185658 141.956286,23.8637491 C141.95077,23.9222088 141.881692,23.9273118 141.792755,23.9441217 C141.470362,24.0051329 141.191927,24.032374 140.937509,24.0554127 C140.953803,24.0469326 140.968739,24.0319988 140.975952,24.0061835 L140.929702,23.9544028 C140.92444,23.9463731 140.917057,23.9354166 140.903479,23.9262612 L140.834316,23.9458478 C140.82252,23.978267 140.825999,24.010386 140.84433,24.0344002 C140.854598,24.0479833 140.869449,24.0558629 140.885403,24.0602155 C140.678847,24.0788265 140.487143,24.0961618 140.302057,24.1285059 C139.817321,24.213006 139.481604,24.3120647 138.829434,24.3540896 C138.719113,24.3611438 138.527747,24.3950638 138.314318,24.4183276 C138.30388,24.3945385 138.280797,24.3739013 138.249822,24.3719502 C138.235565,24.3709746 138.200092,24.373376 138.177858,24.4163765 C138.175737,24.4204289 138.174379,24.425757 138.173785,24.4316105 C138.098936,24.437464 138.023069,24.440991 137.948305,24.440991 C137.947456,24.3589675 137.885252,24.3284994 137.843415,24.317693 L137.788254,24.3669222 C137.792836,24.3808054 137.799795,24.393638 137.806414,24.4053449 C137.809469,24.410523 137.813373,24.4175772 137.816683,24.4178023 L137.817022,24.4178023 C137.81507,24.4190781 137.811167,24.4209542 137.804632,24.4235057 L137.808536,24.4363383 C137.739967,24.4315354 137.673859,24.4226802 137.611994,24.4084218 L137.575333,24.3693236 L137.564046,24.3684231 C137.539606,24.3669222 137.519239,24.3696238 137.500569,24.3745017 C137.486991,24.3693236 137.473583,24.3638454 137.460684,24.3577668 L137.504388,24.326098 C137.514232,24.3152916 137.532308,24.2953298 137.52798,24.2595336 L137.497344,24.2304163 C137.52187,24.2070024 137.520342,24.1717316 137.518899,24.1405131 C137.518305,24.1287311 137.517372,24.1091445 137.519748,24.1034411 L137.465097,24.0462572 C137.457713,24.0423549 137.447445,24.0370268 137.433612,24.0361262 C137.43183,24.0360512 137.4292,24.0358261 137.42589,24.0361262 C137.420034,24.0140632 137.419865,24.005283 137.418507,24.0045325 C137.422156,24.0025814 137.430557,23.9994295 137.437177,23.9968029 C137.447275,23.9929006 137.458817,23.988398 137.471631,23.9823944 L137.491065,23.9304636 C137.456356,23.8663006 137.399498,23.8632238 137.347222,23.8624734 C137.391096,23.8150453 137.444305,23.7659662 137.503285,23.716662 L137.499805,23.7587619 L137.551826,23.8012371 C137.557257,23.8016123 137.562943,23.8022877 137.568714,23.8029631 C137.576436,23.8039387 137.584244,23.8048392 137.591542,23.8053645 C137.602489,23.8060399 137.636265,23.8082162 137.658074,23.7851776 C137.67284,23.7694182 137.676405,23.7482557 137.669022,23.7220652 L137.63898,23.6943738 L137.619462,23.6910718 C137.612673,23.6906216 137.606393,23.6908467 137.600877,23.6915971 C137.589336,23.6756127 137.571599,23.6713351 137.560567,23.6701344 C137.857332,23.4349451 138.253217,23.2089112 138.316524,23.1703384 C138.272735,23.1970542 139.590059,22.4191434 139.589719,22.4189933 C139.806883,22.4962141 139.825977,22.3359942 139.965237,22.2797859 C140.025574,22.2554715 141.284767,21.5349697 141.367678,21.6362047 C141.346038,21.5420989 141.705941,21.4163995 141.988619,21.2869478 C141.995832,21.2896494 142.00347,21.2919007 142.01221,21.2925011 C142.031474,21.2937018 142.066523,21.2881485 142.08672,21.240045 C142.10505,21.2308145 142.122702,21.221509 142.13942,21.2122785 C142.428462,21.0531093 142.934159,20.8462117 143.236355,20.6960478 C143.442062,20.5937622 144.367066,20.061772 144.460839,20.1831189 C144.43538,20.0418853 144.841024,19.9720189 144.994286,19.8882693 C145.303696,19.7191191 145.631181,19.5742082 145.899686,19.4542122 C145.904354,19.4521109 146.140187,19.3616824 146.365837,19.2571454 C146.357606,19.2679518 146.353023,19.2806343 146.35523,19.2944425 L146.376785,19.3132036 C146.373136,19.3056242 146.373645,19.2990202 146.374833,19.2960185 L146.414124,19.3471237 L146.453501,19.3496002 L146.492453,19.3338409 C146.50951,19.3136539 146.513159,19.2903151 146.502721,19.2700531 C146.489567,19.2447631 146.452058,19.2308799 146.418367,19.2325309 C146.609648,19.1411267 146.779373,19.0433438 146.774112,18.9863851 C146.764522,19.1319713 147.115939,18.885075 147.207676,18.846127 C147.134184,18.8772704 148.757184,18.0680661 148.88626,18.1644982 C148.845696,18.0558338 148.984701,18.0502806 149.037146,18.0995848 C149.004643,18.0111824 149.409014,17.8995913 149.587565,17.8103634 C149.9372,17.63566 150.253229,17.4784418 150.608124,17.3229497 C150.602608,17.3253512 151.718298,16.8669046 151.769386,16.9361706 C151.753177,16.8349357 151.971444,16.8267558 151.995884,16.686948 C151.975093,16.747659 152.543758,16.5625243 152.552329,16.5589222 C152.782562,16.4594883 153.04606,16.3400175 153.265091,16.2426848 L153.269249,16.2464371 C153.327635,16.2465121 153.367775,16.2297022 153.388821,16.1966826 L153.388312,16.1901537 C153.616338,16.1032522 154.173377,15.942507 154.172868,15.7964705 C154.231253,15.8785692 154.599557,15.7189496 154.69664,15.6907329 C154.879604,15.6374513 155.069018,15.5336649 155.257328,15.4403096 L155.258686,15.4445121 C155.314695,15.4782821 155.337778,15.4923154 155.366292,15.4941164 C155.389459,15.4956173 155.406856,15.4878877 155.425356,15.4797829 C155.430957,15.4772314 155.437492,15.4743047 155.445214,15.4713029 C155.451579,15.4770063 155.458368,15.4821844 155.464478,15.4872123 C155.472116,15.4929908 155.483402,15.5019961 155.480517,15.501771 L155.505976,15.5704366 L155.509795,15.5706618 C155.521082,15.5713372 155.53135,15.5708119 155.540515,15.5694611 C155.54391,15.574489 155.547898,15.5788416 155.552226,15.5823687 C155.548577,15.5833443 155.544249,15.5826689 155.536527,15.5813181 L155.485609,15.5977528 C155.476698,15.609835 155.46974,15.6241685 155.462866,15.6382018 C155.439359,15.6863803 155.431806,15.6820277 155.40745,15.6770748 L155.35526,15.7016894 C155.336929,15.7451401 155.353987,15.7708053 155.363152,15.7845385 L155.386744,15.8374448 C155.39192,15.8402214 155.397352,15.8426229 155.402868,15.844499 L155.380125,15.8583822 C155.380464,15.8673875 155.381397,15.8760927 155.382586,15.8843476 L155.374184,15.8845727 L155.352459,15.9046096 C155.357721,15.9025834 155.362982,15.9018329 155.371553,15.901908 L155.314356,15.9369537 L155.311555,15.9716993 L155.329631,16.0064449 C155.358739,16.0253561 155.393363,16.0238552 155.416785,16.0071203 C155.411609,16.0333108 155.409996,16.0644543 155.418907,16.0951474 C155.411439,16.0935715 155.405923,16.0947722 155.39854,16.0952225 L155.362728,16.1154845 C155.353732,16.1304934 155.333026,16.1396488 155.30901,16.1503051 C155.289831,16.1590103 155.268106,16.168691 155.248927,16.1833247 C155.229663,16.1791222 155.208447,16.1799477 155.168732,16.1830995 L155.154475,16.1841502 L155.139454,16.1995343 C155.081662,16.1896284 155.040843,16.2059881 155.023786,16.2373567 C155.017846,16.2483132 155.015809,16.2600952 155.017676,16.2718021 C155.002231,16.2826085 154.990859,16.2973172 154.995357,16.3174291 L155.023786,16.3392671 L154.985004,16.3519496 L154.979403,16.4213657 L154.99035,16.4501828 C155.001128,16.4611392 155.018609,16.475998 155.044323,16.4777241 C155.060871,16.4786996 155.073855,16.4738218 155.082511,16.4705198 C155.083784,16.4701446 155.084802,16.4697694 155.086075,16.4693191 C155.102793,16.5189985 155.135635,16.5596726 155.184007,16.5905159 L155.213878,16.5977952 C155.261486,16.594043 155.299505,16.5773081 155.327085,16.5564457 C155.325728,16.5625243 155.325134,16.5686779 155.325218,16.5749066 L155.260214,16.5976451 C155.25631,16.6811696 155.320211,16.6894245 155.333111,16.690325 C155.374778,16.6929516 155.419925,16.666761 155.445978,16.636368 L155.469994,16.6290887 C155.478141,16.6226349 155.48773,16.6108529 155.48824,16.5920168 L155.488409,16.5816606 C155.488494,16.5804599 155.488494,16.5790341 155.488579,16.5776833 C155.494859,16.5778334 155.504364,16.5785088 155.515056,16.5801597 L155.496811,16.594118 L155.493841,16.6302144 C155.445978,16.6456735 155.429175,16.6982797 155.419586,16.7290479 C155.417464,16.735877 155.414664,16.7448073 155.411863,16.7520115 L155.370705,16.7680711 C155.35229,16.7546381 155.32717,16.7534374 155.310537,16.7519365 L155.264711,16.786607 C155.248587,16.9005245 155.284315,16.9483278 155.371893,16.9909531 C155.370959,17.0004837 155.372826,17.01114 155.379446,17.0231471 C155.381822,17.0275748 155.38318,17.0299011 155.382076,17.0392817 L155.409317,17.0637462 C155.379955,17.0677986 155.350847,17.0818319 155.328443,17.1034447 C155.296535,17.1339878 155.282363,17.1755624 155.289576,17.2175123 L155.327425,17.2505318 C155.328273,17.250757 155.329292,17.250832 155.33031,17.2510571 L155.311386,17.2591619 C155.303578,17.2685425 155.300608,17.2754466 155.280581,17.3676762 C155.27812,17.3786327 155.276422,17.3874129 155.275319,17.3910901 C155.262505,17.3907149 155.2502,17.392666 155.238913,17.3970936 L155.224826,17.4611066 C155.235094,17.470262 155.239762,17.4932256 155.244259,17.5152887 C155.252491,17.5555875 155.263608,17.6108953 155.325134,17.632358 L155.376815,17.6197505 C155.386914,17.6081937 155.40431,17.6000138 155.424593,17.5904832 C155.425356,17.5914588 155.42612,17.5922843 155.426884,17.5931098 L155.454719,17.6075933 L155.466515,17.608794 C155.504788,17.6112705 155.529483,17.5974623 155.545777,17.588457 C155.554008,17.5839543 155.558676,17.5814779 155.564616,17.5805773 C155.571066,17.5937101 155.586596,17.6175742 155.623765,17.6199757 C155.630724,17.6204259 155.637853,17.6200507 155.656098,17.6161484 C155.683678,17.6057172 155.69836,17.5857554 155.708968,17.5712718 C155.711598,17.5677447 155.71372,17.5651182 155.715502,17.5628668 C155.745034,17.5841044 155.768796,17.6007643 155.807663,17.580052 C155.811736,17.5824534 155.815895,17.5848549 155.819968,17.5870312 C155.834989,17.5957363 155.847973,17.6030907 155.851707,17.6111955 L155.92995,17.6182496 C155.963047,17.5745738 156.033398,17.468611 155.969666,17.4278619 L155.915184,17.4294378 C155.92053,17.4255355 155.929101,17.4222335 155.940134,17.4250102 C155.919512,17.4158548 155.885397,17.3566447 155.887773,17.3433618 L155.85909,17.2753715 C155.814197,17.2735705 155.791624,17.2906056 155.780592,17.3050141 C155.756576,17.3366078 155.769644,17.377507 155.785599,17.4110519 C155.779149,17.4154795 155.773803,17.4203574 155.769135,17.4253854 C155.761837,17.4086505 155.753436,17.3940919 155.745883,17.3812593 C155.731371,17.3560443 155.72314,17.3408854 155.723903,17.3220492 C155.724328,17.3050141 155.734936,17.2889546 155.747326,17.2705687 C155.770832,17.2350727 155.806475,17.1814909 155.751229,17.1091481 L155.700057,17.1177032 C155.715587,17.1110242 155.734851,17.0998426 155.740282,17.0774793 C155.742658,17.0687742 155.742149,17.0605193 155.740112,17.0530148 C155.74444,17.0521893 155.748938,17.0510637 155.753605,17.0497129 C155.769814,17.0464109 155.783222,17.0377808 155.791369,17.0254735 C155.793406,17.0224717 155.795018,17.0193199 155.796376,17.0163181 C155.816404,17.0264491 155.833207,17.0253234 155.855016,17.0210459 L155.868934,17.0157928 C155.879202,17.0097142 155.888282,17.0016844 155.896514,16.9923039 L155.932241,17.0274247 C155.956512,17.0283252 155.989609,17.0295259 156.012776,17.0068625 C156.022705,16.9971067 156.033567,16.9795463 156.0289,16.9512546 L155.987911,16.9173345 L155.948874,16.914858 C155.953372,16.908029 155.958124,16.9015751 155.962283,16.8969974 C155.964744,16.8998491 155.967884,16.9036764 155.971872,16.9092297 L156.054529,16.887917 C156.053425,16.8290071 156.030767,16.7937363 156.014219,16.7678459 C156.009636,16.7609418 156.005393,16.754488 156.002168,16.747734 C155.998349,16.7397793 155.995634,16.7297233 155.992833,16.7192922 C155.987317,16.6996305 155.979595,16.6724644 155.962452,16.6507766 C155.980019,16.6578308 155.999792,16.6639094 156.023129,16.6673614 C156.024742,16.6724644 156.027203,16.6772673 156.030343,16.6817699 C156.040696,16.6961034 156.058093,16.7051088 156.07846,16.7063845 C156.107992,16.7083357 156.153394,16.6916758 156.167566,16.6621083 L156.182502,16.6747158 C156.228243,16.6612078 156.261424,16.6631589 156.305213,16.6826705 L156.369539,16.6455235 C156.367332,16.6046993 156.357913,16.5713045 156.35019,16.5441384 C156.346117,16.5301051 156.341619,16.5140456 156.341959,16.5078919 L156.302073,16.5025638 L156.319555,16.4920576 C156.312766,16.4719456 156.299018,16.4299207 156.252683,16.426919 L156.227139,16.4299207 L156.197098,16.4629403 C156.196843,16.4655669 156.196419,16.4675931 156.196334,16.469094 C156.1898,16.4684186 156.183011,16.4668426 156.175882,16.4654918 C156.139646,16.4580624 156.103664,16.4564865 156.077696,16.4699945 C156.0631,16.4564865 156.054444,16.445455 156.052068,16.4298457 L156.046467,16.423542 L156.046551,16.423617 C156.051473,16.4239172 156.05665,16.4245926 156.062081,16.4254931 L156.114696,16.3940495 C156.122928,16.3548763 156.102731,16.3312373 156.09051,16.3173541 C156.082109,16.3076733 156.082109,16.307148 156.082873,16.3028705 C156.084825,16.2915388 156.086607,16.2862857 156.08754,16.283434 L156.073113,16.2346551 C156.071586,16.2333793 156.06887,16.231053 156.064882,16.2258749 C156.079733,16.2127421 156.088389,16.1966075 156.094159,16.1857261 C156.097639,16.1791222 156.101542,16.1717678 156.104598,16.168691 L156.098827,16.1118824 C156.077526,16.0967234 156.050455,16.092671 156.026439,16.0891439 C156.01634,16.0874929 155.999113,16.0848664 155.998774,16.0889188 C155.998774,16.0889188 155.998519,16.0856168 156.001489,16.0778872 L155.953287,16.0262566 C155.907377,16.0315848 155.873516,16.0480195 155.843645,16.0625031 C155.841778,16.0634787 155.839656,16.0644543 155.837874,16.0652047 C155.846106,16.0530475 155.855695,16.0477194 155.869443,16.0466687 L155.873941,15.9684724 C155.861805,15.9665213 155.849246,15.9650954 155.836516,15.9636696 C155.83083,15.9629942 155.823787,15.9621687 155.816489,15.9611181 L155.830321,15.9464093 C155.830152,15.9505368 155.82803,15.9557899 155.828369,15.95594 C155.834819,15.9536136 155.846785,15.9493361 155.857817,15.9408561 C155.862824,15.9501616 155.869613,15.9581913 155.87445,15.9641198 L155.89923,15.9587166 L155.898466,15.9595421 C155.908734,15.9743259 155.926131,15.9993157 155.959482,16.0014169 L155.980104,15.9995408 L155.997416,15.9909857 C156.015492,15.9767273 156.050964,15.9214946 156.037556,15.8793946 C156.031361,15.8594328 156.015831,15.8450243 155.994191,15.8384954 L155.955409,15.7992472 C155.951251,15.7993973 155.946668,15.7990971 155.942001,15.7987969 L155.938861,15.8365443 L155.92715,15.7978213 C155.876487,15.7945944 155.845766,15.8088529 155.835498,15.8402214 L155.836601,15.8439737 L155.836007,15.8436735 C155.805287,15.8417223 155.792642,15.8302405 155.782119,15.7919679 C155.80325,15.7879905 155.825229,15.7772592 155.832443,15.7494927 L155.813688,15.707768 C155.768032,15.6809771 155.753775,15.6580135 155.754284,15.6516347 C155.754284,15.6505091 155.758527,15.6440552 155.776773,15.6362506 L155.768541,15.618315 L155.779404,15.635125 L155.774142,15.6249189 L155.780677,15.6345996 L155.754709,15.5867963 L155.783392,15.5647333 C155.78161,15.5610561 155.780846,15.5494242 155.780252,15.5417697 C155.77881,15.5193314 155.775245,15.4708527 155.727383,15.4553935 C155.728006,15.4546618 155.728625,15.4539196 155.729235,15.4531648 L155.73933,15.4595158 L155.777126,15.4517503 L155.775449,15.4487887 Z M155.745761,15.42535 L155.739045,15.4345325 L155.740282,15.4164454 L155.745761,15.42535 Z M140.082814,22.8702819 L140.208464,22.8768639 L140.083291,22.8694326 C140.083291,22.8694326 140.082814,22.8694326 140.082814,22.8702819 Z M147.807977,22.9180393 C147.808216,22.917827 147.808216,22.9176147 147.808454,22.9176147 C147.808454,22.91719 147.808693,22.9167654 147.808931,22.9165531 L147.807977,22.9180393 Z" id="path-1"></path>
        <filter x="-50%" y="-50%" width="200%" height="200%" filterUnits="objectBoundingBox" id="filter-2">
            <feOffset dx="1" dy="1" in="SourceAlpha" result="shadowOffsetOuter1"></feOffset>
            <feGaussianBlur stdDeviation="1" in="shadowOffsetOuter1" result="shadowBlurOuter1"></feGaussianBlur>
            <feColorMatrix values="0 0 0 0 0.411764706   0 0 0 0 0.31372549   0 0 0 0 0.231372549  0 0 0 0.311594203 0" type="matrix" in="shadowBlurOuter1"></feColorMatrix>
        </filter>
    </defs>
    <g id="To-Principle" stroke="none" stroke-width="1" fill="none" fill-rule="evenodd">
        <g id="DeskWide_Locate-Drawer" transform="translate(-268.000000, -218.000000)">
            <g id="Locate-Expanded" transform="translate(0.152686, 151.000000)">
                <g id="find-me" transform="translate(132.000000, 53.478261)">
                    <g id="locate-arrow">
                        <use fill="black" fill-opacity="1" filter="url(#filter-2)" xlink:href="#path-1"></use>
                        <use fill="#E8653A" fill-rule="evenodd" xlink:href="#path-1"></use>
                    </g>
                </g>
            </g>
        </g>
    </g>
</svg>