<svg width="12" height="14" viewBox="0 0 12 14" xmlns="http://www.w3.org/2000/svg"><title>AAB0795B-27CF-47F9-A803-5FA285B38315</title><path d="M.038 13.412c-.136-.344.134-.8.209-1.115.072-.304.342-.826.296-1.139.163-.196.171-.567.378-.716-.015-.333.34-.69.477-.981.125-.268.351-1.16.624-1.249.01-.415.358-.816.498-1.2.1-.273.316-.617.177-.9 0-.113-.192-.303-.16-.446-.234-.294-.342-.727-.456-1.114a9.456 9.456 0 0 0-.232-.674c-.058-.149-.148-.349-.173-.521-.15-.15-.39-.658-.39-.786-.124-.225-.194-.519-.321-.82C.83 1.432.605 1.117.438.777.448.733.061.064.045.064.059.022.11-.027.115.03.148.01.146.056.15.067c.019-.01.107-.03.107-.03.151-.182.843.371.966.442.157.09.511.228.617.392 1.158.315 2.388.963 3.45 1.608.41.25.853.495 1.268.747.281.17.55.368.843.493.421.18.953.292 1.326.623.262-.075.573.235.761.322.145.067.34.078.493.146.058.026.371.155.406.185-.002.05.717.425.807.474.249.135.609.228.807.437l-.003.109c-.12.169-.376.212-.556.323-.336.209-.645.382-.986.567-.662.36-1.232.895-1.89 1.299-.754.462-1.455.962-2.211 1.432-.328.204-.655.46-.972.657-.272.17-1.094.48-1.187.795-.36.102-.65.444-.97.62-.247.136-.492.252-.75.398-.274.157-.476.37-.752.537-.185.113-.456.168-.583.373-.403-.087-.746.338-1.102.396z" fill="#93D270" fill-rule="evenodd"/></svg>