<?xml version="1.0" encoding="utf-8"?>
<!-- Generator: Adobe Illustrator 21.0.2, SVG Export Plug-In . SVG Version: 6.00 Build 0)  -->
<svg version="1.1" id="Layer_1" xmlns="http://www.w3.org/2000/svg" xmlns:xlink="http://www.w3.org/1999/xlink" x="0px" y="0px"
	 viewBox="0 0 4.6 1054.7" style="enable-background:new 0 0 4.6 1054.7;" xml:space="preserve">
<style type="text/css">
	.st0{opacity:0.3;fill:#776659;enable-background:new    ;}
</style>
<title>3057A8DD-D03E-42BD-B738-B290D0BBFF5C</title>
<path class="st0" d="M4.3,0.6C4.4,1.7,4.1,3,4.1,4.5c0,2.3,0,2.7,0.2,3.9c-0.1-0.5,0,4.1,0,3.2c-0.1,1.8-0.1,1.2-0.1,2.5
	c0,4.3-0.2,8.3,0,9.8c0-0.2,0.1,1.8,0.1,0.8c0,0.4-0.1,2.7-0.1,3.6c0-0.4,0,8.5,0.2,7.9c0-0.1-0.1,0.5-0.1,0.4
	c0,1.9-0.1,11.6-0.1,11.6c0.1,0,0.1,0.1,0.2,0.2c-0.2,0-0.2,1.9-0.2,2.7c-0.1,1.5,0,5,0.2,5c0,0.8-0.1,3.7-0.1,5.1
	c0,3.1,0,4.1,0,5.2c0-1.7-0.1,2.3,0,0.7c0,0.4-0.1,0.9-0.1,0.9c0,0.2,0,0.7,0,0.7c0,0.2,0.1,0.1,0.1,0.9c0,0.6-0.1,3.3,0.1,3.1
	c-0.2,0-0.1,0.2-0.2,0.4c0,0.7,0.2,3.4,0.2,3.9c0,2,0,6.6-0.1,8.9c0-0.8-0.1,0.2-0.1,0.2s0.2,8.8-0.1,8.3c0.4,0-0.1,8.2,0.3,8.7
	c0,2.5-0.2,7-0.2,11.5c0,0,0.1,1.9,0.1,2c0-0.1,0,0.7,0,0.4c0,0.5,0,0.9,0,1.4c0,5.8,0.1,13.2,0.1,17.7c0,3.8,0,6.8,0,9.8
	c0,0.5-0.3,3.6,0,4c-0.2-0.4-0.1,8.7-0.1,10.4v3.3c0,3.4-0.2,18.8,0.1,20.9c0.1,0.7-0.1,2.4-0.1,2.8c0-0.2,0,2.6,0.1,1.8
	c-0.1,1.8,0,3.1,0,6.2c0,4.5-0.1,3.1,0,5c0-0.2-0.1,2.1-0.1,2.1c0,0.2,0.1,0.6,0.1,0.5c0,0.5-0.1,6-0.1,6s0.1-0.1,0.1,0.2
	c-0.1,1.5,0,7.8,0,8.1c0.1,1.9,0,0.2,0,3.2c0,0.5,0,0.9,0.1,1.9c0,0.5,0,3.1,0,4L4.4,227c0,3.1,0.1,4.4,0.1,3.7c0,2-0.2,2.3-0.1,5.1
	c0.1,0.1,0.1,0.2,0,0.6c0,5.1-0.1,1.9,0,3.9c0,1.4-0.1,1.4-0.1,2.5c-0.2,3.4,0.1,0.1,0.1,1.8c0-0.5-0.3,4.1,0,3.7
	c-0.2,0.4,0,6.9,0.1,7.6c0,0-0.3,0.7-0.3,0.8c0.2,0.2,0.2,1.3,0.2,2.4s0.1,3.7,0.1,4.7c0-0.6-0.1,0.7-0.1,0.6c-0.2,0.9,0,4.1,0,5.9
	c0-0.5-0.1,3.2-0.1,3.9c0.1-0.6,0.3,2.4,0.3,1.9c-0.6,0-0.1,2.5-0.1,3.6c0,0.9-0.1,4.9-0.1,6c0,3.1,0,6,0,10.8
	c0,0.8-0.1,0.6-0.1,1.2c0.1-1.1,0.2,12.3,0.1,12.2c0,6,0.1,6.6,0.2,8.7c-0.1-0.7-0.2,2.4-0.2,2.3c0,0.8,0.1,0.2,0.1,0.8
	c0,1.3,0.1,0.6,0.1,2c0,1.1,0,4-0.1,5.6c-0.2,2.3,0.1,2.4,0.1,3.1c0,1.4,0,1.8-0.2,2c0,1.4,0.2,1.7,0.1,3.1c0,0.4,0.1,3.7,0.1,3.3
	c-0.1-0.1-0.1,0-0.1,0.6c-0.1,0.7,0.2,4-0.1,4c0.1,0.1,0.1,0.4,0.2,0.6c0,0.1-0.1,0.9-0.1,0.7c0,2,0,2.1,0,3.3c0,0.1,0,0.1,0,0.4
	c0,2.3-0.1,4.9-0.1,7c0,0.4,0,1.1,0,1.4c0.1,0.6,0.1,0.9,0,1.3c0,2.5,0.1,4.3,0.1,4.4c0.1-0.7,0,0.6,0,0.7c-0.1,1.1-0.1,3.6,0,5.3
	c0-0.2-0.2,1.8,0.1,1.1c-0.2,2.4-0.2,3.3-0.1,4c0,0.1-0.1,1.8-0.1,2.3c0,0,0.1,0.1,0.1,0.7c0,1.4,0,5.8-0.1,5.6c0,0,0.1,0.8,0.1,1.1
	c-0.1,0.1-0.1,0.5-0.1,1.1s0.1,1.4,0.1,2.6c0,0.8,0,1.2,0,2.3c0-0.2,0,0.5,0,0.5c0,0.7,0,4.7,0,5.6c0-0.1-0.1,1.2-0.1,0.9
	c0,1.2,0.1,0.6,0.1,1.2c0.1,0.8,0,1.3-0.1,1.4c0,3.4,0.4,13.6,0,14.3c0-0.1,0.2,1.8,0.2,2.3c0,1.1-0.1,3-0.1,3.6
	c-0.1,2.5-0.1,2.5-0.1,4.3c0,1.3,0.1,1.4,0.1,1.9c0,2.4-0.1,2.1-0.1,4c0,1.1,0,1.7,0,3s0.1,1.9,0.1,3.6c0-0.4-0.2,0.4-0.1,0.9
	c0,2.5,0,6,0,6c0,0.4,0,4.7,0.1,5.7c0,0.5,0.1,2.1,0.1,3c-0.1,1.2-0.2,3.7-0.1,5.3c0.1,0.4,0.1,0.5,0,0.6c0,2.4,0.1,3.8,0.1,5.2
	c0,3.6-0.1,8.1-0.2,8.3c0.2-0.4-0.1,6,0,5c0,0,0,3.7,0,3.6c0,0.9,0,6.6,0.1,7.5c0-0.1,0.1,0.9,0.1,0.5c-0.2,3.4-0.2,3.1-0.2,4.3
	c0.2-0.1,0.2,2.8,0.1,2.1c0-0.1,0,0.9,0,0.6c0,0,0.1-0.1,0.1,0.4c0-0.2-0.1,0.1-0.1,0.7c0-0.2,0.1,0.8,0.1,1.4c0,3.7,0,6,0,8.7
	s-0.4,9.7-0.2,14.2c0,0.1,0.2,0.9,0.2,0.9c-0.1,0-0.2,0.4-0.2,0.7c0.1-0.6,0.1,1.8,0.2,2c0,0.1,0,4-0.2,4c0.1,0,0.1,0.2,0.2,0.6
	c-0.2,0.2-0.2,0.1-0.2,0.9c0-0.7,0,10.9,0.2,10.7c-0.2,0.2-0.1,5.6,0,5.7c0,4.1-0.1,6.2-0.1,7.6c0,1.1,0,3,0.1,3.1
	c0,2-0.2,4.4,0.1,5c-0.3-0.5-0.3,7.2-0.3,7c0.1,3.6,0,3.6,0,4.7c0,5,0.2,9,0.1,11.1c-0.1,1.2,0,7.8,0,7.9c0-0.1,0.1,1.1,0.1,0.5
	c0,0.5,0,4.7,0.1,4.3c0,3.3-0.1,4.9-0.1,4.9c0,0.1,0,2.3-0.1,2.3c0.1,0.2,0,0.6,0,2.7c0,0,0,0.1,0.1,0.6c0-0.2-0.1,0.1-0.1,0.4
	c0-0.7,0,5.6-0.1,5.6c0,0.2,0.2,0.2,0.2,0.7c-0.3,0.4-0.1,1.9-0.2,3c-0.1,0.5,0.1,4,0.1,4.4c0,1.7,0,3.4,0,5.1
	c0,0.5-0.2,7.7,0.1,7.3c-0.3,2,0,4.1,0,4c-0.2,0-0.1,3.1-0.1,2.7c0,0.9,0.1,1.8,0.1,1.3c0,0.9-0.5,0.5,0,1.1c0-1.1-0.4,4.1,0,3.3
	c0,0-0.2,0.6-0.2,1.3c0.4,0.5,0.1,0.2,0.1,5.9c0,7.1-0.1,6,0.1,9.6c-0.1-1.1-0.2,2.7-0.1,1.5c0,2.7,0,6,0,5.9
	c-0.1,2.3-0.1,2.7-0.1,3.4c0,1.7-0.1,8.3,0.2,8.7c0-0.1-0.2,2.3-0.2,2.3c0,2.1,0.1,3.2,0.1,3.1c0.3,1.8-0.2,11.5-0.1,14.2
	c0,0.8,0,3.1,0,3.1c0,0.6-0.1,2.8-0.1,2.3c0,0.5,0.3,2.4,0.2,2.3c-0.1-0.2,0,3.6,0.1,2.7c0,0.6-0.1,0.7-0.1,1.1
	c-0.1,3.6,0.2,6.3-0.1,11.3c0-0.4-0.2,0.4-0.1,0.6c0.2,0.5,0.1,5.5,0.1,5.8c0,0.7,0.1,2,0.1,2.8c0,3,0,6.2,0,10.2
	c0,0.1-0.1,3-0.1,3.1c0.1,0.9,0.1,1.5,0.1,2.3c0-0.6-0.1,0.2-0.1,0.2c-0.3,4.4-0.1,11.6-0.1,15.2c0.1,0,0.2,0.5,0.1,1.3
	c0,1.7-0.1,3-0.1,2.3c-0.1,3.4,0.1,8.8,0.2,9.7c0.1,0.8-0.1,1.2-0.1,1.1c0,0.6,0.1,1.9,0.1,2.4c0,2.7-0.1,3.2-0.1,3.1
	c0,3,0.1,5,0.1,9c0,2.6-0.3,6.6-0.2,7.2c0-0.1,0.1,1.3,0.1,0.6c0,0.9-0.1,1.4-0.1,2.3c0,0.6,0.1,0.6,0,1.9c0,0.8,0,1.5,0,1.4
	c0,0.1,0,0.4-0.1,0.6c0.1-0.1,0,1.9,0,1.7c0,0.7-0.1-0.2,0.1,0.4c0.2,1.1-0.3,1.9,0.1,2.6c0,3-0.2,6-0.2,8.1c0,0.4,0.1,0.5,0.1,0.6
	c-0.1,1.1-0.1,3.2-0.1,3.1c0-0.7,0.1,0.7,0,0.6c0.1,0.7,0.1,3-0.1,3.9c0.1-0.5,0,4.4,0,4.3c0,0.1,0.2,1.2,0.2,1.5
	c0-0.5-0.1,0.6-0.1,0.6c-0.2,1.2,0.3,8.3,0,9.1c0,0.1-0.1,2.3-0.1,2.3c0.1,0.2,0.1,3.4,0.1,3.6c0,0.9,0.1,4.7,0,5.1
	c-0.1,2.1-0.1,3.6-0.2,6.3c0,0.2-0.1,0-0.1,0.6c0,4.5,0.2,9.1,0.1,14c0-0.6,0,3.2,0,3.1c0-0.1,0.1,0.4,0.1,0.7c0,0.1-0.1,2.7-0.1,3
	c0,3,0.1,5.9,0,5.7c0.3,0.5-0.1,6.3-0.1,7.2c0,0.9,0,3.2,0,3.9c0,1.1,0.3,7.7,0,8.3c0.2-0.4,0.1,5.9,0,5c0.2,3.1,0.3,6.8,0.1,8.3
	c-0.1,0.7,0.1,1.8,0.1,1.4c-0.2,0.1,0,3.7,0,3.6c0,1.7-0.1,6.2-0.1,6.2c0.3,0.5-0.4-0.4,0.2,0.9c-0.1-1.4-0.4,2.3-0.1,1.9
	c-0.1,0.2,0,1.1-0.1,0.9c0.2,0.5-0.1,0.8,0.1,1.3c-0.2-0.4-0.2,3.8,0,3.4c0,0-0.2,3.7-0.2,3.3C3.9,947,4,949,4,949
	c-0.1-0.1,0,7.7,0.1,8.3c-0.1,0.2-0.1,0.4-0.2,0.4c-0.1-0.5,0,3.8,0,4.1c0,2.4,0,4.7-0.1,5.3c-0.1-0.1,0.3,9,0.1,7.6
	c0,0.2-0.1,0-0.1,0.4c0,0.4,0.1,2.3,0.2,2.6c-0.2-1.1,0,3.8,0.1,1.9c-0.3,0-0.1,3.4-0.3,3.1c0.2,0.4,0,1.4,0.1,2.4
	c0-0.2,0.1,1.4,0.1,0.6c0-0.1-0.1,0.8-0.1,0.8c-0.1,2.4-0.2,6.5-0.1,8.1c0.1,1.3,0.1,0.7,0.1,2.3c0,3.1,0,5.5,0,6.3
	c0,3.8-0.1,8.8-0.1,11c0.1,2.4,0.2,2.9,0.1,3.9c0,0.9,0,2.4,0,4.3c0,0.5,0,0.6,0,0.7c0,0.8,0,1.1-0.1,1.3c0,0.6,0.1,6.5,0.1,6.4
	c-0.1,3.6,0,18.5,0,18.3c-0.4,0.6-0.1,1.3-0.1,2.1c0,0-0.1,2.5-0.1,2c0,1.2-4,3.2-4.3-1.4c0-0.7,0.1-6.3,0.1-5.3
	c0-1.3-0.1-0.1-0.1-0.9c0-0.4,0.1-0.1,0.1-0.2c0,0.2,0-0.7,0-0.6c0-0.2-0.1,0-0.1-0.4c0,0.5,0.1-0.5,0.1-0.4
	c0.1-0.7-0.1-5.3-0.1-5.3c0-0.8,0.2-3,0.2-3.3c0,0.2-0.1-5-0.2-6c0-0.6,0.1-3.2,0.1-3c0-5.3,0.3-19-0.1-19.6c0-0.7,0.2-1.1,0.2-1.4
	c0,0-0.2-0.7-0.2-0.9c0-5.1,0.2-8.1,0.1-10c-0.2-2.8,0.1-0.7-0.1-2c0,0.2,0.2-2.5,0.2-2.3c-0.2-3-0.1,1.8,0-1.1c0-1.5,0-0.5,0.1-2
	c0.2-3.6-0.1-10.2-0.1-15.4c0-0.6,0.1-0.9,0.1-0.9c0,0.7-0.2-3.7-0.2-3.3c0-0.1,0.2-0.5,0.2-0.9c-0.3-0.5-0.2-2.5-0.1-3.1
	c0.2-1.2,0-3.8,0-6c0.1-4.3,0.1-3.9,0.1-5.3c0,0.2,0.1-6.3,0-6c0-0.8,0.1-3,0.1-3.3c0-0.6-0.1-0.7-0.1-0.6c0-0.9,0.2-1.7,0.1-3.3
	c0,0.1-0.1-1.4-0.1-0.6c0-2.7,0.2-11.6,0-12c-0.1-0.1,0.2-2.5-0.1-3c0,0.5,0.5-4.9,0.1-4.3c0-0.1,0.2-3.1,0.1-4.3
	c0,0-0.1-1.3-0.1-0.6c0-1.5,0-3.7,0.1-4.6c0-3,0-4.7,0-6c0-1.5,0.1-2.3,0.1-3.9c0-1.2,0-1.1-0.1-1.4c0,0,0.2-5.7,0.2-5.3
	c0,1.1-0.1-0.8-0.1-0.6c-0.1-0.5-0.1,0-0.1-0.6c0,0.8,0.1-0.8,0.1-0.6c0,0.4,0.1-3.4,0.1-2.6c0-3.6,0-5.5,0-10
	c0-0.4-0.2-3.7-0.2-4.6c0,0,0-0.6,0.1-1.1c0.1-0.6,0.1-0.9-0.1-1.1c0-0.9,0.1-3.2,0.1-3.1c0,0.1,0.1-3.4,0.1-3c0-0.7,0-5.1,0-4.7
	c0,1.1-0.1-14.9-0.3-14.3c0.2,0.5,0.2,0.2,0-0.8c0-0.9-0.1-3.4-0.1-4.6c-0.2-4.1,0.5-8.9,0-9.6c0,0.1,0.3-5.9,0.2-5.9
	c-0.1,0.2-0.1-0.6-0.1-0.7c0,0.1-0.1-1.4-0.1-0.6c0-1.8,0.2-2,0.2-2.6c0-0.4-0.1-2.3,0-3.2c0,0,0-1.7-0.1-1.9c0.2,0.4,0-0.9,0-0.6
	c0.1-1.2,0-5.8,0-8.1c0,0,0.1-0.1,0.1-0.5c0,0.4-0.1-0.4-0.1-0.5c0.1,1.2,0-1.8-0.1-0.7c0.4,0,0-3.8,0.2-4.6c-0.1,0.5,0-3.2,0-3.7
	c-0.2-1.9,0-10.1,0-11.6c0-0.5-0.2-2-0.2-2.6c0.6-0.7,0.1-0.2,0.1-0.7c0.1-0.8,0.1-1.1,0.1-1.2c0.1-1.4,0-2.7,0-3.2
	c0,0.6,0-13.2,0-13c-0.2-0.2,0.1-2.8,0-4.6c0-0.4,0-0.8-0.1-0.7c0-2.6,0.1-1.9,0.1-2.6c0.1-1.1-0.1-5.2-0.1-8.1c0-0.1,0-5,0.1-5.3
	c0,1.1,0.1-0.4,0.1-0.2c0.2-2.8-0.2-4.1-0.2-4.7c0.2-2.5,0.3-3.2,0.2-4.6v-5.6c0-0.7,0-1.1-0.1-1.1c0-1.9,0-5.1,0-7
	c0-4.7,0.2,0.8,0.1-1.4c-0.1-2.7,0-2.8,0-3.9c0-2-0.1-3.6-0.1-2.8c0-0.2,0-0.5,0-0.5c0-1.3,0.1-4.3,0.1-5.7c0-0.9,0-0.9,0-2.6
	c0-0.6-0.2-3.3,0-5.1c0,0,0.1-1.4,0.1-0.6c0-0.2,0-1.3-0.1-2.5c-0.1-1.5,0.1-3.7,0.1-5.5c0-4.9,0-17.2-0.2-17.3
	c0.3,0.1-0.1-2.6,0-4.4c0-5.9,0.2-9.2,0.1-14.3c0,1.2,0.2-4.7,0-4.4c0.1-0.1,0.1-1.4,0.1-1.9c0,0.1-0.1-4.9,0-4.4
	c-0.1-1.1,0,0-0.2-1.3c0.1,0.7,0.2-3.3,0.2-3.3c-0.2-0.4,0-1.4-0.1-2c0,0.1-0.1-1.3-0.1-0.7c0.2-2.5,0.1-11.1,0.1-10.3
	c0-0.9,0.1-1.4,0.1-1.7c0-0.3-0.1-2-0.1-3.7c0-0.5,0-6.4,0-6.4s0.2-2.3-0.1-2.3c0-2,0.3-2.5,0.1-5.7c-0.1-1.5,0.1-6.8,0.1-8.1
	c0-4.7,0-6.2,0-9.5c0-3.2-0.2-1.8,0-4.5c0,0.1-0.1-0.2-0.1-0.5c0,0.1,0.1-0.7,0.1-1.3c-0.1-0.7-0.1-7.3,0-8.3c0.1-2.4,0-6,0-8.8
	c0,0.5,0.1-0.5,0.1-0.5s-0.1,0-0.1-0.5c0-0.4,0.1-1.7,0.1-1.5c0-0.9-0.1-2.1-0.1-2.6c0-3.2,0-4.9,0-7.7c0-0.5,0.1-0.4,0.1-0.9
	c0,0.2-0.1,0-0.1-0.4c0,0.2,0.1,0,0.1-0.4c0,0.1-0.1,0-0.1-0.4c0-0.6,0.1-1.8,0.1-2.6c0,0.7,0.1-5.7,0-6.4C0,540.8,0,539.7,0,538
	c0-0.5,0.1-0.6,0.1-1.7c0-1.2,0-5.2,0.1-5.3c-0.2,0.4,0-4.6,0-4c0-0.2,0.1-1.2-0.1-0.9c0,0,0.1-1.5,0.1-2.3c0-0.1,0.1-10.1-0.2-10.5
	c0,0,0.2-3.4,0.2-3.3c0-0.5-0.1-2.6-0.1-2.6c0.1-0.4,0.1-6.3,0.1-7.3c0-0.8-0.1-4,0-6.3c0-0.1,0.1-1.7,0.1-2c0-3.7-0.1-8.8-0.1-10.1
	c0,0.9,0.1-4-0.1-2.7c0.1-0.5,0.2-1.1,0.2-1.3c0-1.1-0.2-3.8-0.2-3.6c0.2-1.3,0-0.7,0.2-2c0-0.1-0.1-2.3-0.1-2.7
	c0.1-0.2,0.1-0.8,0.1-1.4c0,0.5-0.1-0.9-0.1-0.7c-0.2-0.9,0.1-7.5,0.1-8.3c0-0.2-0.1-2.1-0.1-2.3c0-2.4,0-4.7,0-6
	c0-0.6-0.1-3-0.1-3.7c0-4.1,0-5.7,0-8.5c0,0.4,0.1-0.6,0.1-0.6c0.1-0.7-0.1-1.7,0.1-1.7c-0.2,0.2-0.1-3.3-0.1-3.1
	c-0.2-5.5,0.1-6.2,0.1-7.9c0-3.4-0.1-5.8,0-8.1c0-0.4,0-2.3,0-3.7c0-0.9,0.1-3.9,0.1-5.1c0-1.5,0-4,0-5.8c0-2.1-0.2-5.9,0-5.9
	c-0.1-0.7-0.2-7.5-0.2-8.4c0-0.2,0.1-1.2,0.1-1.8s-0.2-1.1,0.1-1.1c0.1-0.1-0.1-2.4-0.2-3.3c0-1.8,0.3-1.4,0.1-2.6
	c-0.1-0.4-0.1-2.3-0.1-2c0-0.1,0.2-0.8,0.2-0.7c0-0.8-0.1-2.1-0.1-2.4c0.1,0.8,0-6.6-0.1-6.4v-4.4v-4.9c0-0.6,0.1-5.9,0-5.1
	c0,0,0-0.7,0-0.5c0-0.5,0.2-3.3,0-3.7c0-0.7,0.1-0.9,0.2-0.6c-0.1,1.4-0.1-2-0.1-2.3c0,0.1-0.1-0.6-0.1-1.3c0-1.3,0.3,0,0.1-1.4
	c0,0.1-0.1-1.4-0.1-0.5c0-0.9,0.1-1.8,0-3.3c0.2-2.4,0-3.6,0.1-4.4c0-3.9,0-15.9,0-15.9s-0.1-2.4-0.1-2c0-2.1,0.1-4.9,0.1-6
	c0-1.7-0.1-3.7-0.1-3.7c0-3.2,0-5.3,0-8.2c0-5,0.1-9.2,0.1-13.2c0-1.2,0-5.1,0-4.6c0-0.8-0.1-1.5-0.1-2.5c-0.1,2.1,0-23.1-0.2-22.8
	c0.5-0.8,0-12.7,0-14.2s0-3.9,0-5.5c0-0.6,0.1-0.7,0.1-0.6c0-0.6-0.1-0.9-0.1-0.7c0-0.4,0.1-6.3,0-6c0,0.2,0.1-0.8,0.1-0.8
	c0,0.1-0.1-2-0.1-2.6c0-1.3,0.1-1.3,0.1-3c0-0.6,0-0.9-0.1-2.4c0-2,0.1-5.2,0.1-6.4c0-0.4-0.1,0-0.1-0.9c0,0.2,0.1-2.8,0.1-2.7
	c0,0.2-0.2-1.4-0.2-1.3c0,0.1,0.2-5.3,0.1-5c0,0,0.1-0.6,0.1-0.4c-0.1-2.8-0.2-0.9-0.2-2.5c0-0.4,0.2-1.7,0.2-2c0-0.8-0.1-3.1,0-3.3
	c0,0.1,0-1.9-0.1-2.3c0,0.2-0.2-2.7,0.1-2.3c-0.1-3.4,0-3.7,0-9.2c0-0.9,0-4.5,0-5.3c0-2.8-0.2-5.2-0.2-7.9c0-0.1,0-0.6,0-0.4
	c0,0.6-0.1-3.3-0.1-2.4c0,0.4,0.2-3,0.2-2.7c0.1-1.4-0.1-2.8-0.1-3c0.2,0.4,0-9.4-0.1-8.3c0.2,0.4,0.3-0.2,0.2-1.5
	c0-3.1-0.1-5.1,0-8.2c0,0.2-0.1-2.7-0.1-3.2c0-3.2,0.1-4.4,0.1-5.5c0-0.5,0-1.2-0.2-1.4c0-2,0.2-0.7,0.1-2c0-0.2,0.1-5.1-0.1-4.7
	c0.2-0.5,0-5.7,0-6.3s0.1-0.6,0.1-0.6c-0.1-5.5-0.1-11.4-0.1-14.9c0,0.4,0.1-1.1,0.1-0.7c0-0.9,0-0.7-0.1-0.9c0.2,0.4,0-3.6,0-3.3
	c-0.1-1.3,0-1.7,0-3.7c0-2.1,0.2-5.1,0-4.7c0.1-0.1,0.1-6.8,0-9.1c0.1-4.5,0.2-10.2-0.1-10.5c0-4,0.3-4.1,0.1-5.8
	c-0.2-1.1,0-0.6,0.1-1.4c0-0.1-0.3-1.4-0.3-1.4c0-2,0.2-5,0.1-5.7c0,0.1,0.1-7,0.1-6.5c0.1-0.9,0.1-0.1,0.1-0.8L-0.2,49
	c-0.1-1.2,0.2-1.3,0.1-2.7c0,0.6-0.1-0.5-0.1-0.4c0-0.6,0-3.6-0.1-3.6c0.1-0.1,0.1-0.7,0.1-1.7c-0.1-4.1,0-5.5-0.1-7.2
	c0-0.5,0.1-3.7,0.1-4.7c0,0.1-0.1-3.3-0.1-3.3s0.1-1.3,0.1-0.6c0-1.9,0-5.9,0-8.7c0-0.9-0.2-2.6-0.1-3.3c0.2-1.2,0,0.6-0.1-0.9
	c0.3,2,0-5,0-4.4l0.2-0.9c0-0.6-0.1-1.1-0.1-1.1c0-0.9,0.1-0.1,0.1-1.1c-0.4-1.4,0-3.2-0.1-3C-0.2,1-0.2,1.5-0.2,0.5
	C1.4,0.4,2.9-0.6,4.3,0.6L4.3,0.6z"/>
</svg>
