<svg width="51" height="9" viewBox="0 0 51 9" xmlns="http://www.w3.org/2000/svg"><title>25418365-9892-4A42-9862-4E2392C64D13</title><path d="M49.797.357c.075.174-3.582.03-3.864-.188a.88.88 0 0 0-.167.398c.092-.101-1.859-.214-2.064-.191-.577.066-.605 0-1.03.002-.064 0-1.168.03-1.459.206-.296.137-4.542-.617-3.864-.19-.097-.057-.017.2-.17.2-.145 0-1.084-.23-1.29-.396.505.308-1.746.081-.86-.198.012.655-1.584.235-1.456.604-.168-.322-.666-.004-1.117-.199.089.039-.666-.187-.259-.199.076-.002-.403.21-.385.204-.305.118-.8.045-.644.001-.44.123-2.416.343-3.09.209-.602-.12-.341-.199-1.117-.197l-.687.001c-.724.002-1.844.057-2.232.057-1.761 0-4.099.165-5.149.165.294.017-1.38-.137-1.116.003.007-.25-.223-.317-.688-.2-.438 0-1.086.073-1.975.004-.194-.015-.282.046-.343.056-.362.058-.515-.088-.6.152.158-.337-.35-.024-.43 0 .15-.046-2.604-.193-2.532-.202-.174.021-.955.18-.902.01.081.277-.033.277-.344.001C9.502.471 2.535.327 2.665.289c-.287.715-.608.213-1.03.204-.003 0-1.134.204-.943.203-.565.001-1.49 7.691.65 8.297.202.058.192-.29.343 0-.028-.064 2.572-.209 2.145-.207.606-.001.033.2.43.198.162 0 .067-.148.086-.148-.128 0 .313-.064.279-.056.116-.03-.018.203.15.203-.24.001.217-.23.17-.2.322-.214 2.487.204 2.492.193.182-.473.127 0 .343 0 .058 0 1.024-.296 1.2-.408-.101.047 2.296.166 2.834.292.25.058 1.486-.103 1.374-.103 2.488-.004 8.87-.568 9.1.176.34 0 .477-.419.685-.401.012.027.313.43.432.4.012-.676 1.69-.163 1.373-.005 1.018-.003 2.41-.407 3.261-.21 1.3.303.34-.178.946.2-.1-.058 1.186-.357 1.028-.406 1.374.421-.844.097.516.095.736-.002.246.044.944-.098 1.63-.332 4.762.19 7.212.18.295 0 .47-.202.45-.205-.334-.058 1.712.333 1.526.402.063-.03.243-.41.427-.406.194.493 1.187.416 1.46.2.535-.421 1.796-.005 2.834-.01 0 0 .054-2.368 2.27-4.168 2.217-1.8 2.77-3.15 2.77-3.6 0-.45-.625-.544-.625-.544z" fill="#93D270" fill-rule="evenodd"/></svg>