<svg xmlns="http://www.w3.org/2000/svg" width="27" height="29" viewBox="0 0 27 29">
  <g transform="translate(0,2)">
      <path fill="#ffffff" fill-rule="evenodd" d="M25.811 2.063c2.464 2.457-9.804 12.993-12.218 15.508C10.98 20.296 3.077 30.187.546 26.211c-1.225-1.925-.313-1.825 1.688-3.687 1.158-1.078 7.03-7.278 8.15-8.439 1.054-1.093 10.318-10.141 11.334-11.24C23.661.74 23.94.171 25.811 2.062"/>
  </g>
  <g transform="translate(0,2)">
      <path fill="#ffffff" fill-rule="evenodd" d="M13.593 10.429C10.98 7.704 3.077-2.187.546 1.789-.679 3.713.233 3.612 2.234 5.475c1.158 1.078 7.03 7.278 8.15 8.439 1.054 1.092 10.318 10.141 11.334 11.24 1.943 2.104 2.221 2.673 4.093.782 2.464-2.457-9.804-12.993-12.218-15.508z"/>
  </g>
</svg>