<?xml version="1.0" encoding="utf-8"?>
<!-- Generator: Adobe Illustrator 21.1.0, SVG Export Plug-In . SVG Version: 6.00 Build 0)  -->
<svg version="1.1" id="Layer_1" xmlns="http://www.w3.org/2000/svg" xmlns:xlink="http://www.w3.org/1999/xlink" x="0px" y="0px"
	 viewBox="0 -5 25 25" style="enable-background:new 0 0 25 16;" xml:space="preserve">
<style type="text/css">
	.st0{fill:#65A019;}
</style>
<path class="st0" d="M24.7,11.4c-0.3-0.5-0.8-0.7-1.4-0.7H22c-0.6-1.5-1.7-2.5-3.3-3c-0.5-0.1-0.9-0.1-1.3,0
	c-1.5,0.5-2.7,1.3-3.3,2.9c-0.1,0.1-0.4,0.2-0.6,0.2H2c-0.6,0-1.1,0.1-1.5,0.7c-0.1,0.3-0.1,0.6,0,0.8C0.8,12.8,1.3,13,1.9,13
	c7.7,0,3.8,0,11.5,0c0.5,0,0.7,0.1,0.9,0.6c0.8,1.6,2.1,2.6,3.9,2.5c1.8-0.1,3-1.1,3.7-2.7c0.1-0.2,0.1-0.3,0.2-0.5
	c0.1,0,0.1,0,0.2,0s0.4,0,1,0s1.1-0.1,1.5-0.7C24.9,11.9,24.9,11.6,24.7,11.4z M18,13.9c-1.3,0-2.1-0.8-2.1-2.1s0.8-2.1,2.1-2.1
	c1.3,0,2,0.8,2,2.1C20,13.2,19.2,13.9,18,13.9z"/>
<path class="st0" d="M0.4,5.5C0.7,6,1.2,6.2,1.8,6.2h1.3c0.6,1.5,1.7,2.5,3.3,3c0.5,0.1,0.9,0.1,1.3,0c1.5-0.5,2.7-1.3,3.3-2.9
	c0.1-0.1,0.4-0.2,0.6-0.2h11.5c0.6,0,1.1-0.1,1.5-0.7c0.1-0.3,0.1-0.6,0-0.8C24.4,4.2,23.9,4,23.3,4c-7.7,0-3.8,0-11.5,0
	c-0.5,0-0.7-0.1-0.9-0.6C10.1,1.9,8.8,0.9,7,0.9C5.2,1,4,2.1,3.3,3.6C3.2,3.8,3.1,3.9,3.1,4.1c-0.1,0-0.1,0-0.2,0c-0.1,0-0.4,0-1,0
	S0.8,4.2,0.4,4.8C0.2,5,0.3,5.3,0.4,5.5z M7.1,3c1.3,0,2.1,0.8,2.1,2.1S8.4,7.2,7.1,7.2s-2-0.8-2-2.1S5.9,3,7.1,3z"/>
</svg>
