<?xml version="1.0" encoding="utf-8"?>
<!-- Generator: Adobe Illustrator 16.0.0, SVG Export Plug-In . SVG Version: 6.00 Build 0)  -->
<!DOCTYPE svg PUBLIC "-//W3C//DTD SVG 1.1//EN" "http://www.w3.org/Graphics/SVG/1.1/DTD/svg11.dtd">
<svg version="1.1" id="Capa_1" xmlns="http://www.w3.org/2000/svg" xmlns:xlink="http://www.w3.org/1999/xlink" x="0px" y="0px"
	 width="88px" height="53px" viewBox="0 0 88 53" enable-background="new 0 0 88 53" xml:space="preserve">
<g>
	<g enable-background="new    ">
		<path fill="#494949" d="M5.262,48.735c-0.533,0.604-1.109,1.009-1.858,1.009c-1.93,0-3.284-0.922-3.284-3.486v-3.717
			c0-2.563,1.354-3.485,3.284-3.485c2.031,0,3.125,1.167,3.198,3.529H4.614c0-1.34-0.49-1.772-1.21-1.772
			c-0.792,0-1.296,0.317-1.296,1.47v4.235c0,1.152,0.504,1.469,1.296,1.469c0.749,0,1.21-0.547,1.21-1.44v-0.634H3.217V44.27h3.385
			v5.33H5.565L5.262,48.735z"/>
		<path fill="#494949" d="M8.501,39.199h1.815v10.4H8.501V39.199z"/>
		<path fill="#494949" d="M17.748,41.764V49.6H15.99v-0.893c-0.663,0.576-1.282,1.037-2.031,1.037c-1.109,0-1.686-0.563-1.686-2.018
			v-5.963h1.815v5.762c0,0.519,0.173,0.864,0.663,0.864c0.375,0,0.792-0.36,1.181-0.706v-5.92H17.748z"/>
		<path fill="#494949" d="M18.696,43.578v-1.469h0.72v-2.132h1.815v2.132h1.167v1.469h-1.167v4.005c0,0.389,0.331,0.576,0.821,0.576
			c0.129,0,0.245,0,0.36-0.015v1.527c-0.346,0.058-0.691,0.072-1.037,0.072c-1.181,0-1.959-0.433-1.959-1.557v-4.609H18.696z"/>
		<path fill="#494949" d="M25.148,46.113v1.037c0,0.778,0.461,1.124,1.066,1.124c0.763,0,1.066-0.489,1.066-1.095h1.815
			c-0.086,1.613-1.051,2.564-2.881,2.564c-1.729,0-2.881-1.066-2.881-2.78v-2.564c0-1.714,1.152-2.78,2.881-2.78
			c1.685,0,2.881,1.066,2.881,2.665v1.829H25.148z M27.28,44.645v-0.432c0-0.691-0.331-1.124-1.066-1.124s-1.066,0.433-1.066,1.124
			v0.432H27.28z"/>
		<path fill="#494949" d="M30.677,49.6v-7.836h1.757v0.893c0.663-0.576,1.282-1.037,2.031-1.037c1.109,0,1.685,0.563,1.685,2.018
			V49.6h-1.815v-5.762c0-0.519-0.173-0.864-0.663-0.864c-0.375,0-0.792,0.36-1.181,0.706v5.92H30.677z"/>
		<path fill="#494949" d="M41.909,49.6v-10.4h5.185v1.758h-3.197v2.391h2.506v1.758h-2.506V49.6H41.909z"/>
		<path fill="#494949" d="M48.273,49.6v-7.836h1.771v1.037h0.029c0.418-0.777,0.965-1.182,1.873-1.182v1.959
			c-0.303-0.086-0.648-0.201-0.966-0.201c-0.591,0-0.894,0.446-0.894,0.864V49.6H48.273z"/>
		<path fill="#494949" d="M53.299,40.41v-1.643h1.814v1.643H53.299z M55.113,41.764V49.6h-1.814v-7.836H55.113z"/>
		<path fill="#494949" d="M58.742,46.113v1.037c0,0.778,0.461,1.124,1.066,1.124c0.764,0,1.066-0.489,1.066-1.095h1.814
			c-0.086,1.613-1.051,2.564-2.881,2.564c-1.729,0-2.881-1.066-2.881-2.78v-2.564c0-1.714,1.152-2.78,2.881-2.78
			c1.686,0,2.881,1.066,2.881,2.665v1.829H58.742z M60.875,44.645v-0.432c0-0.691-0.332-1.124-1.066-1.124s-1.066,0.433-1.066,1.124
			v0.432H60.875z"/>
		<path fill="#494949" d="M64.271,49.6v-7.836h1.758v0.893c0.662-0.576,1.281-1.037,2.031-1.037c1.109,0,1.686,0.563,1.686,2.018
			V49.6h-1.815v-5.762c0-0.519-0.173-0.864-0.663-0.864c-0.374,0-0.791,0.36-1.181,0.706v5.92H64.271z"/>
		<path fill="#494949" d="M75.274,49.6v-0.951h-0.028c-0.317,0.49-1.124,1.096-1.931,1.096c-1.411,0-1.987-1.096-1.987-3.111V44.73
			c0-2.016,0.576-3.111,1.987-3.111c0.489,0,0.95,0.23,1.815,0.865v-3.285h1.814v10.4H75.274z M75.131,43.535
			c-0.361-0.389-0.691-0.562-1.096-0.562c-0.489,0-0.893,0.317-0.893,1.872v1.672c0,1.555,0.403,1.872,0.893,1.872
			c0.404,0,0.734-0.173,1.096-0.562V43.535z"/>
		<path fill="#494949" d="M78.902,39.199h1.814v10.4h-1.814V39.199z"/>
		<path fill="#494949" d="M82.271,50.752c0.173,0.029,0.346,0.029,0.533,0.029c0.792,0,1.311-0.691,1.311-1.037
			c0-0.461-0.145-0.994-0.332-1.657l-1.814-6.323h1.844l1.225,5.186h0.029l1.137-5.186h1.844l-2.088,7.807
			c-0.563,2.118-1.297,2.795-3.111,2.795c-0.173,0-0.375-0.015-0.576-0.029V50.752z"/>
	</g>
	<path fill="#46167E" d="M49.439,16.46c-1.494-0.559-3.363,0.249-4.795,1.988V17.08c0.123-0.62,0.373-1.242,0.685-1.863
		c1.121-1.926,2.864-2.671,3.675-2.174C49.876,13.54,50.001,14.968,49.439,16.46L49.439,16.46z M49.004,27.206
		c-1.121,1.925-2.865,2.67-3.675,2.174c-0.374-0.249-0.56-0.685-0.623-0.994v-1.429c0.125-0.62,0.374-1.242,0.685-1.863
		c1.121-1.926,2.866-2.671,3.676-2.174c0.561,0.31,0.686,1.118,0.686,1.553C49.814,25.28,49.564,26.336,49.004,27.206z
		 M44.645,22.05c0.123-0.62,0.373-1.242,0.685-1.863c1.121-1.926,2.864-2.671,3.675-2.174c0.811,0.435,0.934,1.925,0.374,3.416
		c-1.495-0.559-3.364,0.249-4.733,1.988V22.05z M44.021,14.472c-0.063,0.063-0.063,0.125-0.125,0.249
		c-0.062-0.062-0.062-0.124-0.124-0.249c-0.511-0.851-1.164-1.607-1.931-2.236v-0.497c0-2.236,1.12-3.726,2.117-3.726
		s2.118,1.552,2.118,3.726v0.497C45.266,12.796,44.581,13.541,44.021,14.472z M43.149,18.448c-1.37-1.74-3.302-2.547-4.797-1.988
		c-0.56-1.49-0.436-2.92,0.374-3.416c0.872-0.497,2.616,0.31,3.675,2.174c0.374,0.62,0.56,1.242,0.685,1.863v1.367H43.149z
		 M43.149,23.417c-1.37-1.74-3.302-2.547-4.735-1.988c-0.56-1.49-0.436-2.92,0.374-3.416c0.872-0.497,2.616,0.31,3.675,2.174
		c0.374,0.621,0.561,1.242,0.686,1.863V23.417z M43.149,28.386c-0.063,0.373-0.25,0.808-0.623,0.994
		c-0.872,0.497-2.617-0.31-3.675-2.174c-0.499-0.932-0.81-1.926-0.748-2.795c0-0.435,0.125-1.18,0.685-1.553
		c0.872-0.497,2.616,0.31,3.675,2.174c0.374,0.62,0.561,1.242,0.686,1.863V28.386L43.149,28.386z M50.374,12.112v-8.51
		c-0.006-0.41-0.337-0.74-0.747-0.745c-0.374,0-0.748,0.373-0.748,0.746v7.764c-0.436-0.062-0.872,0-1.309,0.124
		c-0.062-2.422-1.244-4.41-2.864-4.907V0.745C44.7,0.335,44.368,0.004,43.958,0c-0.373,0-0.747,0.373-0.747,0.745v5.839
		c-1.62,0.497-2.803,2.422-2.865,4.907c-0.437-0.124-0.873-0.124-1.309-0.124V3.603c-0.005-0.41-0.337-0.741-0.747-0.746
		c-0.374,0-0.748,0.373-0.748,0.746v8.571c-1.12,1.118-1.245,3.23-0.311,5.342c-0.81,1.18-0.872,3.044,0,4.907
		c-0.374,0.559-0.56,1.18-0.623,1.988c-0.062,1.18,0.311,2.422,0.997,3.603c1.432,2.484,3.924,3.727,5.668,2.856v4.659
		c0,0.435,0.374,0.744,0.748,0.744c0.373,0,0.747-0.371,0.747-0.744v-4.721c0.375,0.187,0.811,0.311,1.246,0.311
		c1.557,0,3.303-1.18,4.424-3.105c0.685-1.181,0.996-2.485,0.996-3.603c-0.063-0.808-0.25-1.491-0.623-1.988
		c0.748-1.926,0.748-3.789-0.125-4.97C51.62,15.342,51.496,13.23,50.374,12.112L50.374,12.112z"/>
</g>
</svg>
