<svg xmlns="http://www.w3.org/2000/svg" width="76" height="76" viewBox="0 0 76 76">
    <path fill="#FFD118" fill-rule="evenodd" d="M38 76C17.013 76 0 58.987 0 38S17.013 0 38 0s38 17.013 38 38-17.013 38-38 38zm0-4c18.778 0 34-15.222 34-34S56.778 4 38 4 4 19.222 4 38s15.222 34 34 34zm0-4C21.431 68 8 54.569 8 38 8 21.431 21.431 8 38 8c16.569 0 30 13.431 30 30 0 16.569-13.431 30-30 30zM26.721 22.754a2 2 0 0 0-2 2v25.508a2 2 0 0 0 2 2h5.836a2 2 0 0 0 2-2V24.754a2 2 0 0 0-2-2h-5.836zm15.738 0a2 2 0 0 0-2 2v25.508a2 2 0 0 0 2 2h5.836a2 2 0 0 0 2-2V24.754a2 2 0 0 0-2-2H42.46z"/>
</svg>
