<?xml version="1.0" encoding="UTF-8" standalone="no"?>
<!-- Generator: Adobe Illustrator 21.1.0, SVG Export Plug-In . SVG Version: 6.00 Build 0)  -->
<svg id="Layer_1" style="enable-background:new 0 0 30 12" xmlns="http://www.w3.org/2000/svg" xml:space="preserve" viewBox="0 0 30 12" version="1.1" y="0px" x="0px" xmlns:xlink="http://www.w3.org/1999/xlink">
<style type="text/css">
	.st0{fill:#FEFEFE;}
	.st1{fill:#C0191D;}
	.st2{fill:#7F2321;}
	.st3{fill:#94B042;}
	.st4{fill:#E89D9B;}
	.st5{fill:#AECC72;}
	.st6{fill:#6D7E1E;}
	.st7{fill:#393602;}
</style>
<path class="st0" d="m22.4 8.2c0.1 0 0.1-0.1 0.2-0.1 0.3-0.2 0.5-0.4 0.8-0.6 0.2-0.2 0.4-0.4 0.6-0.7 0.1-0.2 0.2-0.4 0.2-0.6 0.1-0.2 0.2-0.4 0.2-0.6 0-0.1 0.1-0.1 0.1-0.2 0.1-0.3 0.3-0.5 0.6-0.7s0.6-0.3 0.9-0.5c0.2-0.1 0.4-0.3 0.7-0.4 0.1-0.1 0.2-0.1 0.4-0.2l0.6-0.3c0.5-0.3 1-0.7 1.3-1.1 0.1-0.1 0.2-0.3 0.2-0.5s0.1-0.3 0.1-0.5c0-0.1 0-0.1-0.1-0.2-0.1 0-0.2 0.1-0.2 0.1-0.1 0.1-0.3 0.2-0.4 0.3-0.2 0.1-0.2 0.2-0.3 0.4 0 0.1-0.1 0.3-0.2 0.4s-0.2 0.2-0.4 0.3-0.4 0.2-0.5 0.4c-0.3 0.2-0.7 0.4-1 0.6s-0.7 0.4-1.1 0.4c-0.5 0.1-1.1 0.2-1.5 0.4-0.2 0.1-0.4 0.1-0.6 0.2-0.1 0-0.3 0.1-0.4 0.1h-0.5c-0.3 0-0.6 0.1-0.9 0.1-0.2 0-0.4 0.1-0.5 0.1h-0.4c-0.5-0.1-1-0.2-1.5-0.2h-0.4c-0.3-0.1-0.6 0-0.9 0.1-0.4 0.1-0.8 0.1-1.2 0.1-0.6-0.1-1.1-0.1-1.7 0.1-0.3 0.1-0.6 0.2-0.9 0.2h-1.5c-0.6 0-1.1 0.1-1.6 0.2-0.4 0.1-0.7 0.1-1.1 0.2-0.7 0.2-1.4 0.2-2.1 0-0.1 0-0.3 0-0.4-0.1-0.6-0.2-1.3-0.2-1.9 0-0.1 0.1-0.2 0.1-0.3 0.1-0.3 0.1-0.7 0.1-1 0.2-0.4 0.1-0.7 0.3-1 0.4-0.2 0.1-0.4 0.1-0.6 0 0-0.1 0-0.1-0.1-0.2-0.1 0-0.1-0.1-0.2-0.2 0 0-0.1-0.1-0.2-0.1 0 0.1 0 0.1-0.1 0.2 0 0.1 0 0.1 0.1 0.2 0.2 0.4 0.3 0.7 0.4 1 0 0 0 0.1 0.1 0.1 0.2 0.3 0.4 0.5 0.7 0.7 0.1 0.2 0.4 0.3 0.7 0.3s0.7 0 1 0.1c0.5 0.1 1.1 0.2 1.7 0.2 0.3 0 0.6 0 0.9 0.1 0.6 0.1 1.1 0.3 1.7 0.5 0.5 0.2 1.1 0.3 1.6 0.4 0.6 0.1 1.3 0.2 1.9 0.1 0.5-0.1 1-0.1 1.5-0.2 0.4 0 0.8 0 1.2 0.1 0.4 0 0.7 0.2 1.1 0.2 0.7 0.1 1.4 0.1 2.1-0.3 0.1 0 0.1 0 0.2-0.1 0.5-0.1 0.9-0.1 1.4-0.2 0.5 0 1.1-0.1 1.6-0.4 0.3-0.1 0.5-0.3 0.8-0.4h0.1z"/>
<path class="st1" d="m2.1 7l-0.3-0.9c0-0.1 0-0.1-0.1-0.2h0.1l0.1 0.1c0.1 0 0.2 0.1 0.2 0.1 0.2 0.1 0.4 0.1 0.6 0 0.3-0.1 0.6-0.3 1-0.4 0.3-0.1 0.7-0.1 1-0.2 0.1 0 0.2 0 0.3-0.1 0.6-0.2 1.3-0.2 1.9 0 0.1 0 0.1 0.1 0.1 0.1 0.3 0 0.5 0.3 0.9 0.3 0.2 0 0.4 0.1 0.6 0.1 0.3 0 0.7 0.1 1 0.1v-0.1c0.1 0 0.1 0.1 0.1 0.1h0.2 0.3 0.3c0.1-0.2 0.2-0.1 0.3 0s0.2 0.1 0.3 0h0.1 0.7 0.1c0.3 0 0.5 0.1 0.8-0.1h0.1c0-0.1-0.1-0.1-0.1-0.2h0.2c0.2 0 0.3 0.1 0.5 0h0.1 0.2 0.8c0.2 0 0.4-0.1 0.6-0.2 0.3-0.2 0.5-0.3 0.9-0.3h0.8 0.9 0.6c0.2 0 0.4 0.1 0.6 0h0.3c0.3 0 0.5 0.1 0.8 0.1s0.6 0 0.9 0.1c0.1 0 0.2 0 0.2-0.1v0.1c-0.1-0.2 0-0.1-0.1 0v0.2l0.1-0.1v0.2h-0.2v0.1c-0.3 0-0.5 0-0.8-0.1v-0.1c-0.1 0-0.1 0.1-0.2 0.1-0.1-0.1-0.2-0.1-0.3 0-0.2 0-0.3-0.3-0.4-0.1h-0.1c-0.1 0.1-0.3 0.1-0.4 0-0.2-0.1-0.4-0.2-0.6-0.1l-0.1-0.1h-0.4-0.4c-0.2-0.1-0.4-0.1-0.6 0.1h-0.1v0.1c0.1 0.1 0.1 0.3 0 0.4 0 0.2 0.1 0.3 0.1 0.4 0.2 0.1 0.4 0.2 0.6 0.1 0.1 0.1 0.2 0.1 0.2 0.2l0.2 0.2c0 0.1 0 0.2 0.1 0.2 0.1 0.2 0.2 0.3 0.3 0.5h0.1c0-0.1-0.1-0.2-0.1-0.3v-0.3h0.1c-0.1 0-0.1 0.1 0 0.2h0.1c0-0.3-0.1-0.6-0.1-0.9v0.1 0c0.1 0.1 0.1 0.2 0.2 0.3 0.1 0.2 0.2 0.5 0.2 0.7 0 0.1 0.1 0.2 0 0.3-0.1 0.2 0 0.4 0.3 0.4 0.1-0.1 0.2-0.1 0.2-0.1 0.2 0.1 0.4 0.1 0.6 0.1s0.3-0.1 0.5-0.2c0-0.1-0.1-0.2-0.1-0.3 0 0.1 0.1 0.1 0.1 0.2s0 0.1 0.1 0.2c0.1 0 0.1 0.2 0.2 0.1s0.3-0.2 0.3-0.3c0-0.2 0.1-0.3 0-0.5-0.1-0.1 0-0.2 0.1-0.2h0.1c0-0.1 0-0.2 0.1-0.2 0.2 0 0.4-0.1 0.6-0.1 0-0.2 0.1-0.1 0.1-0.1v0.2s-0.1 0-0.1 0.1v0.1c0.3-0.2 0.4-0.2 0.4-0.1h-0.1c0-0.1 0-0.1-0.1-0.1h-0.1v0.1c0.1 0.1 0.1 0.3 0.2 0.4 0.1 0.2 0.1 0.4 0.3 0.4 0 0.1-0.1 0.2-0.1 0.3-0.1 0-0.1 0-0.2 0.1s-0.2 0.2-0.2 0.3c-0.1 0.1-0.2 0.2-0.2 0.1-0.2 0-0.4 0.1-0.6 0.1s-0.4 0.1-0.6 0.1-0.4-0.1-0.5 0c-0.3-0.2-0.6 0.1-0.9-0.1h-0.1-0.4-0.4c-0.3 0.1-0.6 0.1-0.9 0.1-0.1 0-0.1 0-0.2-0.1-0.1 0-0.2-0.1-0.2-0.1h-0.2c-0.1-0.1-0.2 0-0.3 0.1s-0.2 0.2-0.3 0.2h-0.5-0.2c-0.1 0-0.3 0-0.4-0.2 0 0-0.1-0.1-0.2 0-0.1 0-0.2 0.1-0.3 0s-0.1-0.1-0.2 0c-0.1 0-0.2 0-0.3 0.1h-0.2c-0.2 0-0.3 0-0.5-0.1-0.1 0-0.2-0.1-0.3 0s-0.3 0.2-0.5 0.2h-0.1-0.1c-0.2-0.2-0.3-0.1-0.5 0-0.1 0.1-0.2 0.1-0.3 0h-0.3c-0.2 0-0.4-0.1-0.6-0.1s-0.4-0.2-0.7-0.1c-0.1 0-0.1-0.1-0.2-0.1-0.4-0.1-0.7-0.4-1-0.7-0.4-0.2-0.5-0.4-0.7-0.5-0.1-0.1-0.2-0.1-0.3-0.2-0.1-0.2-0.3-0.2-0.4-0.1-0.2 0-0.3 0-0.4-0.1 0 0-0.1-0.1-0.1-0.2l-0.1 0.1c0 0.1 0 0.1 0.1 0.2 0 0 0-0.1-0.1-0.1l-0.6 0.3s0-0.1-0.1-0.1c0 0.1-0.1 0.1-0.1 0.2v-0.1c-0.1 0-0.2 0.1-0.2 0.1-0.1 0-0.1-0.1-0.2-0.1 0 0-0.1 0.1-0.2 0.1v-0.1c-0.3 0-0.4-0.3-0.6-0.4v0.2c-0.1-0.2-0.1-0.3-0.2-0.4-0.1 0.1-0.4 0-0.6 0h-0.4c-0.1 0-0.1 0-0.2-0.1h-0.1-0.1c-0.2 0.1-0.5 0.2-0.7 0.3l-0.1 0.1zm9.5 0.9s-0.1 0 0 0v-0.3c0.1 0.1 0.1 0.1 0.1 0.2h0.1c0.1-0.1 0.2-0.2 0.2-0.3 0-0.2 0.2-0.3 0.2-0.4h0.1v0.3c0.1 0 0.1-0.1 0.1-0.1h0.1c-0.1 0-0.2 0.1-0.2 0.1-0.1 0.3 0 0.4 0.3 0.3-0.1 0-0.1 0.1-0.1 0.1 0.1 0 0.1 0.1 0.2 0.1s0.3 0.2 0.3-0.1c0.1-0.2 0.1-0.2 0.3-0.1 0-0.1 0.1-0.1 0.1-0.2s0.1-0.1 0.1-0.2v-0.4-0.2c0-0.1-0.1-0.2-0.1-0.3 0.1 0 0.1 0 0.2 0.1 0-0.1 0-0.2 0.1-0.3h0.3v0.2h0.1c0.2-0.2 0-0.4 0-0.6 0 0 0 0.1-0.1 0.1 0-0.1-0.1-0.1-0.1-0.1-0.1 0-0.3 0-0.4 0.1 0 0-0.1 0.1-0.2 0-0.1 0-0.2 0-0.3 0.1h-0.2-0.4c-0.2 0-0.3 0-0.5 0.1v0.1h-0.4c-0.2 0-0.4 0.2-0.6 0.2h-0.3-0.3v0.1h-0.4c-0.1 0-0.2 0-0.2-0.1-0.3 0-0.6-0.1-0.9-0.1-0.2 0.3-0.5 0.2-0.7 0.1-0.4-0.2-0.8-0.3-1.2-0.4-0.1 0-0.2 0-0.2-0.1-0.3-0.1-0.7-0.2-1-0.2-0.2 0-0.3 0.1-0.5 0.1 0 0.1-0.1 0.2-0.1 0.3v-0.1s0-0.1-0.1-0.1c0 0-0.1 0-0.1 0.1 0 0 0 0.1-0.1 0.2 0 0.1 0.1 0.1 0.2 0.2 0.1 0 0.2 0 0.1-0.1h0.4c0.1-0.3 0.3-0.4 0.5-0.3l0.6 0.3c0.3 0.1 0.5 0.1 0.8 0.3 0.1 0.1 0.2 0.1 0.3 0.1s0.2 0.1 0.3 0.1c0 0.1 0.1 0.1 0.1 0.1 0.2 0.1 0.4 0.1 0.5 0.3 0 0 0 0.1 0.1 0.1 0.2 0.1 0.3 0.3 0.5 0.4h0.1v-0.1c0.1 0 0.1 0.1 0.2 0.1h0.1 0.2c0.1 0 0.2-0.1 0.2 0 0.1 0 0.3 0.1 0.4 0 0 0 0.1 0 0.1 0.1 0 0 0 0.1 0.1 0.1 0.1-0.1 0.1-0.2 0.2-0.3 0 0-0.1 0-0.1-0.1 0.1-0.1 0.2-0.1 0.4-0.2v0.2c0.1 0 0.1-0.1 0.2-0.1 0.1 0.1 0.2 0.2 0.2 0.3-0.1 0.1 0 0.2 0 0.2h0.1c-0.1 0 0 0 0 0l0.1 0.1c0-0.1-0.1-0.1-0.1-0.1zm4.9-0.2v0c-0.1 0.1-0.1 0.1-0.2 0.1v-0.1 0.1h-0.1c0-0.3-0.1-0.5-0.3-0.7 0.2-0.1 0-0.5-0.3-0.8v0.7c-0.1 0-0.1 0-0.2-0.1v0.4c0 0.2-0.1 0.3 0.1 0.5 0 0.2 0.2 0.2 0.3 0.2 0.2 0.1 0.4-0.1 0.6 0.2 0-0.1 0.1-0.1 0.1-0.1 0.1-0.2 0.1-0.2 0-0.4 0 0.1 0.1 0.1 0 0 0.1 0.1 0 0.1 0 0 0.2 0.1 0.2-0.1 0.3-0.2 0.1 0 0.2 0 0.3 0.1h-0.3c0.1 0 0.2 0 0.3 0.1h-0.2c0.2 0.1 0.3 0.2 0.5 0.2 0-0.2-0.1-0.3-0.1-0.5h0.1c-0.1-0.2-0.1-0.2-0.2-0.3-0.1 0-0.1-0.1-0.2-0.1h-0.2l0.1 0.1h-0.1c-0.1 0-0.2 0-0.2 0.1v0.3c-0.1 0-0.1 0.1-0.1 0.1-0.1 0.1-0.1 0.2 0 0.1zm-2-1.1c-0.2 0.1-0.2 0.3-0.2 0.4 0.1 0.2 0 0.5 0 0.7 0 0.1 0 0.2 0.1 0.2 0.1 0.1 0.2 0.1 0.3 0.1s0.3 0 0.5 0.1c0.1 0.1 0.3-0.1 0.3-0.2 0-0.2-0.1-0.3-0.1-0.5 0-0.1 0-0.2-0.1-0.3 0-0.2-0.1-0.3-0.1-0.5-0.2 0.1-0.3 0.2-0.3 0.4 0 0.1-0.1 0.2-0.1 0.2l-0.3-0.6zm6.9 1s0.1 0 0.1-0.1c-0.1-0.1-0.3-0.1-0.4-0.2v0.3c0 0.1 0.1 0.2 0.2 0.2s0.1-0.1 0.1-0.2zm-5.5-1.9c-0.1 0-0.1 0 0 0h-0.2c-0.1 0.1-0.1 0.1 0 0.3 0.1-0.1 0.1-0.2 0.2-0.3zm0.7 0.9l-0.1-0.1 0.3 0.3c0-0.1 0-0.2-0.1-0.2h-0.1zm-2.2-0.5v0.3c0.1-0.1 0.2-0.2 0-0.3zm2.2 2s0.1 0 0 0c0.1 0.1 0.1 0 0 0 0.1 0 0.1 0 0 0zm-7-0.3zm1-1.1v0 0zm1.8-0.8z"/>
<path class="st2" d="m2.1 7c0.1 0 0.1-0.1 0.2-0.1 0.2-0.1 0.5-0.2 0.7-0.3h0.1 0.1c0.1 0 0.1 0 0.2 0.1h0.4c0.1 0.1 0.5 0.1 0.6 0 0 0.1 0 0.2 0.2 0.3v-0.2c0.2 0.1 0.3 0.4 0.6 0.4v0.1c0.1-0.1 0.1-0.1 0.2-0.1 0 0 0.1 0.1 0.2 0.1s0.1-0.1 0.2-0.1v0.1s0.1-0.1 0.1-0.2c0 0 0 0.1 0.1 0.1 0.2 0 0.2 0 0.5-0.2 0 0 0 0.1 0.1 0.1 0-0.1 0-0.1-0.1-0.2l0.1-0.1c0 0.1 0.1 0.1 0.1 0.2 0.1 0.1 0.2 0.2 0.4 0.1 0.2 0 0.3 0 0.5 0.1 0.1 0.1 0.2 0.1 0.3 0.2s0.2 0.3 0.3 0.4c0.3 0.3 0.6 0.6 1 0.7 0.1 0 0.1 0.1 0.2 0.1 0.2-0.1 0.4 0.1 0.7 0.1 0.2 0 0.4 0 0.6 0.1h0.3 0.3c0.1-0.1 0.3-0.2 0.5 0h0.1 0.1c0.1 0 0.4-0.1 0.5-0.2s0.2 0 0.3 0c0.2 0.1 0.3 0.1 0.5 0.1h0.2c0.1 0 0.2 0 0.3-0.1h0.2c0.1 0.1 0.2 0.1 0.3 0h0.2c0.1 0.1 0.3 0.1 0.4 0.2h0.2 0.5c0.1 0 0.2-0.1 0.3-0.2s0.2-0.1 0.3-0.1h0.2c0.1 0 0.2 0.1 0.2 0.1 0.1 0 0.1 0.1 0.2 0.1 0.3 0 0.6 0 0.9-0.1h0.4 0.4 0.1c0.3 0.2 0.6-0.1 0.9 0.1 0.2-0.1 0.4 0 0.5 0 0.2 0 0.4-0.1 0.6-0.1s0.4-0.1 0.6-0.1c0.1 0 0.2-0.1 0.2-0.1 0.1-0.1 0.2-0.2 0.2-0.3 0 0 0.1 0 0.2-0.1v0.1c0.1 0 0.1 0 0.2 0.1-0.3 0.1-0.5 0.3-0.8 0.4-0.2 0.3-0.8 0.4-1.4 0.5-0.5 0.1-0.9 0.1-1.4 0.2-0.1 0-0.1 0-0.2 0.1-0.7 0.4-1.4 0.3-2.1 0.3-0.4 0-0.7-0.2-1.1-0.2s-0.8-0.1-1.2-0.1c-0.5 0-1 0.1-1.5 0.2-0.6 0.1-1.3 0-1.9-0.1-0.4-0.3-1-0.4-1.5-0.5-0.6-0.2-1.1-0.4-1.7-0.5-0.3-0.1-0.6-0.1-0.9-0.1-0.6 0-1.1-0.1-1.7-0.2-0.3-0.1-0.6-0.1-1-0.1-0.3 0-0.6-0.1-0.8-0.3s-0.5-0.4-0.7-0.7v-0.1zm6.7 1.7c-0.2-0.1-0.4-0.3-0.6-0.3-0.2-0.1-0.4-0.2-0.7-0.4-0.1-0.1-0.2-0.1-0.3-0.1h-0.1c-0.1-0.1-0.2-0.1-0.4 0 0.1 0 0.2-0.1 0.2 0.1-0.1 0-0.3 0-0.4 0.1 0.2 0.1 0.4 0.1 0.6 0.2s0.3 0.1 0.5 0.2 0.4 0.1 0.6 0.1c-0.1-0.1-0.2-0.1-0.3-0.2 0.4 0 0.6 0.3 0.9 0.3zm-3.2-0.8c0.1 0.1 0.1 0.1 0.2 0.1 0.2 0 0.4-0.1 0.7-0.1h0.1l0.1-0.1h-0.1-0.3-0.1c-0.3 0.1-0.4 0.1-0.6 0.1zm-0.8-0.2c0.2 0.1 0.3 0.2 0.4 0.2h0.3c-0.4-0.2-0.5-0.2-0.7-0.2zm1.6 0.4c-0.2-0.1-0.2 0-0.3 0h0.3zm2.6 0.7v0c-0.1-0.1-0.1-0.1 0 0-0.1 0-0.1 0 0 0z"/>
<path class="st3" d="m20.9 5.1v0c-0.1-0.1-0.1-0.1-0.1-0.2 0.2 0 0.4-0.1 0.5-0.1 0.3 0 0.6-0.1 0.9-0.1h0.5l0.1 0.1c-0.1 0.1-0.1 0.2 0.1 0.4 0 0.1 0 0.2 0.1 0.3s0.1 0.2 0 0.3-0.3-0.2-0.4 0.1c-0.2 0-0.3-0.1-0.5-0.2 0.1-0.1 0.2-0.2 0.3-0.2-0.2 0-0.3-0.1-0.5-0.1-0.1 0-0.3 0.1-0.3 0.2 0.1 0.1 0.2 0.2 0.3 0.2h0.1l0.3 0.3c0.1 0.1 0.1 0.2 0.1 0.2v-0.1c0.1 0 0.2 0 0.3-0.1 0.1 0 0.1 0 0.2-0.1 0.2-0.1 0.3-0.1 0.5 0 0.1 0.1 0.2 0 0.3 0h0.2v-0.1c-0.2-0.1-0.3-0.1-0.5-0.2 0-0.1 0-0.1-0.1-0.2l-0.1-0.1c-0.1-0.1-0.2-0.3-0.2-0.4v0c0.1 0 0.1 0.1 0.2 0.1 0.3 0.1 0.3 0.4 0.6 0.5 0 0.1 0.1 0.1 0.2 0.1v-0.3-0.3c-0.1-0.1-0.3-0.1-0.4-0.2h-0.1v0.2c-0.1-0.1-0.1-0.2-0.2-0.2-0.1-0.1-0.2-0.1-0.3-0.2 0.1 0 0.1 0 0.2-0.1 0.1 0 0.3-0.1 0.4-0.1l0.1-0.1c0.5-0.3 1-0.4 1.5-0.4 0.4-0.1 0.7-0.2 1.1-0.4 0.3-0.2 0.7-0.4 1-0.6 0 0.1 0 0.1-0.1 0.2s-0.2 0.1-0.3 0.1-0.2 0.1-0.2 0.2c-0.1 0.1-0.3 0.2-0.4 0.3v0.1c0.1 0 0.1-0.1 0.2-0.1 0.2-0.1 0.3-0.1 0.5-0.2s0.4-0.2 0.5-0.2v0.1l-0.6 0.3c-0.1 0.1-0.2 0.1-0.4 0.2 0 0-0.2 0.1-0.5 0.2v0.1c-0.3 0.2-0.6 0.3-0.9 0.5s-0.5 0.4-0.6 0.7c0 0.1-0.1 0.1-0.1 0.2v-0.4c-0.1 0.1-0.1 0.2-0.2 0.3 0 0.1-0.1 0.2 0 0.3v0.1 0.3c-0.1 0.2-0.1 0.4-0.2 0.6-0.2 0.2-0.4 0.4-0.6 0.7v-0.1c0-0.1 0.1-0.1 0.1-0.2 0-0.2-0.1-0.4-0.2-0.6-0.1 0-0.1 0.1-0.1 0.2-0.1 0-0.2 0.1-0.3 0.1-0.2 0-0.3 0.1-0.4 0.3-0.2-0.1-0.3-0.1-0.4-0.2v-0.4-0.1c0-0.2-0.1-0.4-0.3-0.6-0.1-0.1-0.2-0.2-0.2-0.3-0.1-0.1-0.3-0.2-0.4-0.4 0-0.1-0.1-0.2-0.3-0.2zm3.6-0.7c0 0.2 0.2 0.1 0.3 0.1 0.3-0.1 0.5-0.1 0.8-0.2 0.1 0 0.3-0.1 0.4-0.2l-0.1-0.1c0.1 0 0.2 0 0.2-0.1-0.1 0-0.4 0-0.5 0.1h-0.2-0.2c-0.1 0-0.2 0.1-0.2 0.1-0.2 0-0.4 0-0.6 0.1v0.1c-0.1 0-0.2 0-0.2 0.2 0.1-0.1 0.2-0.1 0.3-0.1zm-1.2 1.9c-0.3 0-0.5 0.2-0.6 0.5 0.1 0 0.1-0.1 0.2-0.1s0.2-0.1 0.2-0.2 0.1-0.1 0.2-0.2zm-1 0.3c0.1 0 0.3 0.2 0.4 0-0.1 0-0.2-0.1-0.3-0.1s-0.1 0.1-0.1 0.1zm1.3 0.2v0c0-0.1-0.1-0.2-0.1-0.2v0.1c-0.1 0 0 0.1 0.1 0.1zm-0.1-2.2v0 0c0.1 0.1 0.1 0.1 0 0 0.1 0 0 0 0 0z"/>
<path class="st4" d="m20.8 4.9l0.1 0.1c0 0.1 0 0.1-0.2 0.1-0.3-0.1-0.6-0.1-0.9-0.1s-0.5-0.1-0.8-0.1h-0.3c-0.2 0.1-0.4 0-0.6 0h-0.6-0.9-0.8c-0.3 0-0.6 0.2-0.9 0.3-0.2 0.1-0.4 0.2-0.6 0.2h-0.8-0.2-0.1c-0.1 0.1-0.3 0.1-0.5 0h-0.2c0 0.1 0.1 0.1 0.1 0.2h-0.1c-0.2 0.2-0.5 0.1-0.8 0.1h-0.1-0.7-0.1c-0.1 0-0.2 0.1-0.3 0s-0.2-0.2-0.3 0h-0.3-0.3-0.2s-0.1 0-0.1-0.1v0.1c-0.3 0-0.7-0.1-1-0.1-0.2 0-0.4-0.1-0.6-0.1-0.1 0.3-0.4 0-0.7 0v-0.1c0.1 0 0.3 0 0.4 0.1 0.7 0.2 1.4 0.3 2.1 0.1 0.4-0.1 0.7-0.1 1.1-0.2 0.5-0.1 1.1-0.2 1.6-0.2h1.5c0.3 0 0.6-0.1 0.9-0.2 0.6-0.2 1.1-0.2 1.7-0.1 0.4 0 0.8 0.1 1.2-0.1 0.3-0.1 0.6-0.1 0.9-0.1h0.4c0.5 0 1 0.1 1.5 0.2h0.5z"/>
<path class="st5" d="m23.7 4.4s0 0.1-0.1 0.1c-0.1 0.1-0.3 0.1-0.4 0.1 0 0-0.1 0-0.2 0.1 0.1 0.1 0.2 0.1 0.3 0.2l0.2 0.2v-0.2h0.1c0.1 0.1 0.3 0.1 0.4 0.3 0.1 0.1 0 0.2 0 0.3v0.3c-0.1 0-0.2 0-0.2-0.1-0.3-0.1-0.3-0.4-0.6-0.5-0.1-0.1-0.1-0.2-0.2-0.2 0 0.1 0 0.1 0.1 0.2s0.2 0.3 0.2 0.4l0.1 0.1c0 0.1 0 0.1 0.1 0.2 0.2 0 0.3 0.1 0.5 0.1v0.1h-0.2-0.3c-0.2-0.1-0.3 0-0.5 0-0.1 0-0.1 0.1-0.2 0.1s-0.2 0.1-0.3 0.1v0.1c0-0.1-0.1-0.2-0.1-0.2-0.2-0.2-0.3-0.3-0.4-0.3h-0.1c-0.1-0.1-0.2-0.1-0.3-0.2 0-0.1 0.2-0.2 0.3-0.2 0.2 0 0.3 0 0.5 0.1-0.1 0.1-0.2 0.1-0.3 0.2 0.2 0 0.3 0.2 0.5 0.2 0.1-0.3 0.3 0 0.4-0.1s0.1-0.2 0-0.3-0.1-0.2-0.1-0.3c-0.2-0.2-0.2-0.3-0.1-0.4l-0.1-0.1c0.1 0 0.3-0.1 0.4-0.1 0.2-0.2 0.4-0.2 0.6-0.3z"/>
<path class="st6" d="m22.1 7.1c0.1 0.1 0.3 0.1 0.4 0.2 0-0.2 0.2-0.3 0.4-0.3 0.1 0 0.1-0.1 0.2-0.1 0 0 0.1-0.1 0.1-0.2 0.1 0.2 0.3 0.4 0.2 0.6 0 0.1-0.1 0.1-0.1 0.2v0.1c-0.3 0.2-0.5 0.4-0.8 0.6v-0.1h-0.2c0.1-0.3 0-0.6-0.2-0.7v-0.3z"/>
<path class="st6" d="m26.8 3.5c0-0.1 0.1-0.2 0.2-0.2s0.2-0.1 0.3-0.1c0 0 0-0.1 0.1-0.2 0.2-0.1 0.4-0.2 0.5-0.4 0.1-0.1 0.3-0.2 0.4-0.3s0.1-0.3 0.2-0.4c0-0.2 0.1-0.3 0.3-0.4 0.1-0.1 0.3-0.2 0.4-0.3 0 0.1 0.2 0.1 0 0.3-0.1 0.1-0.2 0.3-0.2 0.5 0 0.1-0.1 0.2-0.1 0.2-0.1 0.1-0.2 0.2-0.3 0.4l-0.1 0.1c-0.6 0.3-1.1 0.6-1.7 0.8z"/>
<path class="st5" d="m26.8 3.5c0.6-0.2 1.1-0.6 1.6-1l0.1-0.1c0.1-0.1 0.3-0.2 0.4-0.4 0.1 0 0.2-0.3 0.4-0.2-0.1 0.2-0.1 0.3-0.2 0.5-0.4 0.5-0.8 0.8-1.3 1.1v-0.1h0.1v0.1c-0.2 0.1-0.4 0.2-0.5 0.2-0.2 0.1-0.3 0.1-0.5 0.2-0.1 0-0.1 0.1-0.2 0.1v-0.1c-0.2-0.1 0-0.2 0.1-0.3z"/>
<path class="st3" d="m29.3 1.8c-0.3 0-0.3 0.2-0.4 0.3s-0.3 0.2-0.4 0.4c0.1-0.1 0.2-0.2 0.3-0.4 0-0.1 0.1-0.1 0.1-0.2 0-0.2 0.1-0.3 0.2-0.5 0.1-0.1 0-0.2 0-0.3 0.1 0 0.2-0.1 0.2-0.1 0 0.1 0.1 0.1 0.1 0.2 0 0.3-0.1 0.4-0.1 0.6z"/>
<path class="st5" d="m24.2 6.3v-0.3-0.1c-0.1-0.1-0.1-0.2 0-0.3s0.1-0.2 0.2-0.3v0.4c0 0.2-0.1 0.4-0.2 0.6z"/>
<path class="st2" d="m1.9 6l-0.1-0.1h-0.1c0-0.1 0-0.1 0.1-0.2 0.1 0 0.1 0 0.2 0.1 0 0 0 0.1 0.1 0.1-0.1 0-0.1 0-0.2-0.1v0.2z"/>
<path class="st5" d="m26.1 4.3c0.2-0.2 0.4-0.3 0.6-0.4-0.2 0.1-0.4 0.3-0.6 0.4z"/>
<path class="st3" d="m22.4 8h0.2v0.1c-0.1 0-0.1 0-0.2 0.1v-0.2c-0.1 0-0.1 0 0 0z"/>
<path class="st4" d="m1.9 6s0-0.1-0.1-0.2c0.2 0.1 0.2 0.1 0.3 0.1 0 0.1 0 0.1 0.1 0.2-0.1 0-0.2-0.1-0.3-0.1z"/>
<path class="st6" d="m22.3 8l0.1 0.1h-0.1-0.1c-0.1 0-0.1 0-0.2-0.1 0.2 0.1 0.3 0.1 0.3 0z"/>
<path class="st2" d="m22.4 8.2z"/>
<path class="st2" d="m22.4 8.2z"/>
<path class="st2" d="m1.8 6.1z"/>
<path class="st4" d="m22 6.5c-0.1 0-0.2-0.1-0.1 0.1-0.2 0-0.4 0.1-0.6 0.1-0.1 0-0.1 0.1-0.1 0.2h-0.1c-0.1 0-0.2 0.1-0.1 0.2 0.1 0.2 0 0.4 0 0.5s-0.2 0.2-0.3 0.3-0.2 0-0.2-0.1c-0.1-0.1-0.1-0.1-0.1-0.2s-0.1-0.1-0.1-0.2c0 0.1 0.1 0.2 0.1 0.3-0.4 0.3-0.6 0.4-0.8 0.4s-0.4 0.1-0.6-0.1h-0.2c-0.3 0-0.3-0.1-0.3-0.4v-0.3c-0.1-0.2-0.2-0.5-0.2-0.7-0.1-0.1-0.1-0.2-0.2-0.3v-0.1c-0.1 0.3 0.1 0.6 0.1 0.9h-0.1c-0.1 0-0.1-0.1-0.2-0.2h-0.1v0.3c0.2 0.2 0.2 0.3 0.2 0.4h-0.1c-0.1-0.2-0.2-0.3-0.3-0.5 0-0.1 0-0.2-0.1-0.2-0.1-0.1-0.1-0.2-0.2-0.2l-0.2-0.2c-0.2 0.1-0.4 0-0.6-0.1 0-0.1 0-0.3-0.1-0.4 0.1-0.1 0.1-0.2 0-0.4v-0.1h0.1c0.2-0.2 0.4-0.1 0.6-0.1h0.4 0.4s0.1 0 0.1 0.1c0.2-0.1 0.4 0 0.6 0.1 0.1 0 0.3 0.1 0.4 0h0.1c0.2-0.2 0.3 0.1 0.4 0.1 0.1-0.1 0.2-0.1 0.3 0 0.1 0 0.1-0.1 0.2-0.1v0.1c0.3 0 0.5 0 0.8 0.1v-0.1h0.2l0.6 0.3c0 0.1 0.1 0.2 0.1 0.3 0.2 0.1 0.2 0.1 0.3 0.2zm-1.7 0.2v0.3l0.1 0.1c0.1 0 0.1-0.1 0.2-0.1l-0.3-0.3z"/>
<path class="st4" d="m11.1 6.6c0.2-0.1 0.4-0.3 0.6-0.2h0.4v-0.1c0.2 0 0.3 0 0.5-0.1h0.4 0.2c0.1-0.1 0.2-0.1 0.3-0.1h0.2c0.1-0.1 0.3 0 0.4-0.1 0 0 0 0.1 0.1 0.1 0-0.1 0-0.1 0.1-0.1 0 0.2 0.2 0.4 0 0.6h-0.1v-0.2h-0.3c0 0.1 0 0.2-0.1 0.3-0.1 0-0.1-0.1-0.2-0.1 0 0.1 0.1 0.2 0.1 0.3v0.2 0.4c0 0.1-0.1 0.1-0.1 0.2 0 0-0.1 0.1-0.1 0.2-0.2-0.1-0.2-0.1-0.3 0.1-0.3 0.2-0.5 0-0.6 0s-0.1-0.1-0.2-0.1l0.1-0.1c-0.3 0.1-0.4-0.1-0.3-0.3 0.1 0 0.1-0.1 0.2-0.1v0.3l0.2-0.2v0.3h0.1c0-0.1 0.1-0.1 0.1-0.2 0.1-0.1 0.2-0.1 0.3-0.2h-0.2v-0.1h0.5v-0.2l-0.1 0.1c-0.1 0-0.1-0.1-0.1-0.1l0.1-0.1c-0.3 0-0.3-0.1-0.3-0.2h-0.2s0.1 0 0.1 0.1c-0.1 0-0.1 0-0.2 0.1 0.2 0 0.3 0.1 0.2 0.2-0.1 0-0.2-0.1-0.2-0.1v0.2c-0.1 0-0.2 0.1-0.3 0h-0.1l-0.1 0.1v-0.3h-0.1c0 0.2-0.2 0.2-0.2 0.4 0 0.1-0.1 0.2-0.2 0.3h-0.1s-0.1-0.1-0.1-0.2v0.2s-0.1 0-0.2 0.1c-0.1 0-0.1-0.1 0-0.2-0.1-0.1-0.2-0.2-0.2-0.3-0.1 0-0.1 0.1-0.2 0.1v-0.2c-0.1 0.1-0.2 0.1-0.4 0.2l0.1 0.1c-0.1 0.1-0.1 0.2-0.2 0.3 0-0.1-0.1-0.1-0.1-0.1l-0.1-0.1c-0.1 0.1-0.3 0-0.4 0h-0.2-0.2-0.1c-0.1 0-0.1-0.1-0.2-0.1v0.1h-0.1c-0.1-0.1-0.2-0.3-0.4-0.4l-0.1-0.1c0-0.2-0.2-0.2-0.4-0.3-0.1 0-0.2 0-0.1-0.1-0.1-0.1-0.2-0.2-0.3-0.2s-0.2 0-0.3-0.1c-0.2-0.1-0.5-0.1-0.8-0.2l-0.6-0.3c-0.2-0.1-0.4 0-0.4 0.2h-0.4c0-0.1 0.1-0.2 0.1-0.3 0.2 0 0.3-0.1 0.5-0.1 0.3 0 0.6 0.1 1 0.2 0.1 0 0.2 0 0.2 0.1 0.4 0.1 0.8 0.2 1.1 0.4 0.2 0.1 0.5 0.2 0.8 0.3s0.6 0.1 0.9 0.1c0.1 0 0.2 0.1 0.2 0.1h0.4v-0.1h0.3c0.1-0.2 0.3-0.2 0.4-0.3zm2.3 0.2v0 0.1c0 0.1 0.1 0 0-0.1v0z"/>
<path class="st4" d="m14.5 6.6c0.1 0.2 0.2 0.4 0.2 0.5 0.1 0 0.1-0.1 0.1-0.2 0-0.2 0.1-0.3 0.3-0.4 0 0.2 0.1 0.3 0.1 0.5 0 0.1 0 0.2 0.1 0.3 0 0.2 0.1 0.3 0.1 0.5 0 0.1-0.2 0.3-0.3 0.2h-0.4c-0.1 0-0.2 0-0.3-0.1-0.1 0-0.1-0.2-0.1-0.2 0-0.2 0.1-0.5 0-0.7 0-0.1 0-0.3 0.2-0.4z"/>
<path class="st4" d="m16.5 7.8l0.1 0.1s0 0.1-0.1 0.1c-0.1-0.2-0.3 0-0.5-0.1-0.1-0.1-0.3-0.1-0.3-0.2-0.2-0.1-0.1-0.3-0.1-0.5v-0.4c0.1 0 0.1 0 0.2 0.1v-0.7c0.2 0.3 0.4 0.7 0.2 0.8 0.2 0.2 0.3 0.4 0.3 0.7v0.1h0.2z"/>
<path class="st4" d="m16.5 7.7c-0.1 0.1-0.1 0-0.1-0.1 0 0 0-0.1 0.1-0.1v-0.3c0-0.1 0.1-0.1 0.2-0.1h0.1l-0.1-0.1c0.2 0 0.3 0 0.4 0.1 0 0.1 0.1 0.1 0.2 0.1 0.1 0.1 0.1 0.1 0.2 0.3h-0.1c0 0.2 0.1 0.3 0.1 0.5-0.2 0.1-0.3-0.1-0.5-0.2h0.2c-0.1 0-0.2 0-0.3-0.1h0.3c-0.1 0-0.2 0-0.3-0.1-0.2 0.1-0.2 0.2-0.4 0.1v0z"/>
<path class="st7" d="m22.3 8c-0.1 0-0.1 0.1-0.2 0.1v-0.1c0-0.1 0.1-0.2 0.1-0.3 0.1-0.1 0-0.2-0.1-0.3-0.1 0-0.1 0-0.1-0.1v-0.2c0-0.1 0.1-0.2 0.1-0.3v0.4 0.2c0.2 0 0.3 0.3 0.2 0.6z"/>
<path class="st2" d="m21.7 6.1l-0.6-0.3v-0.2l-0.1 0.1c0-0.1-0.1-0.2 0-0.2 0.1-0.1 0-0.2-0.1-0.4 0.2 0 0.2 0.1 0.3 0.2 0.1 0.2 0.2 0.3 0.4 0.4 0 0.2 0.1 0.3 0.1 0.4 0.1 0 0 0 0 0z"/>
<path class="st2" d="m22 7v0.2c0 0.1 0 0.2 0.1 0.2 0.1 0.1 0.2 0.1 0.1 0.3-0.2 0-0.2-0.2-0.3-0.3s-0.1-0.3-0.2-0.4v-0.1h0.1s0 0.1 0.1 0.1h0.1z"/>
<path class="st4" d="m21.4 7.6c0 0.1 0 0.2-0.1 0.2s-0.2-0.1-0.2-0.2v-0.3c0.2 0.1 0.3 0.1 0.4 0.2-0.1 0-0.1 0.1-0.1 0.1z"/>
<path class="st4" d="m5.1 6.2c0 0.1-0.1 0.1-0.1 0.1-0.1 0-0.2 0-0.2-0.2 0-0.1 0-0.1 0.1-0.2l0.1-0.1s0 0.1 0.1 0.1v0.3 0 0z"/>
<path class="st6" d="m21.7 6.1s0.1 0 0 0c0.3 0.1 0.4 0.3 0.4 0.6h-0.1v-0.2c0-0.1-0.1-0.1-0.1-0.2-0.1 0-0.1-0.1-0.2-0.2z"/>
<path class="st4" d="m15.9 5.7c0 0.1-0.1 0.2-0.1 0.4-0.1-0.2-0.1-0.2 0-0.3-0.1-0.1 0-0.1 0.1-0.1-0.1 0-0.1 0 0 0z"/>
<path class="st2" d="m22 6.7c0-0.1 0.1-0.1 0 0 0.1 0 0.1 0.1 0.1 0.1s-0.1 0.1-0.1 0.2c0-0.1-0.1-0.1-0.1-0.2l0.1-0.1c-0.1 0 0 0 0 0z"/>
<path class="st4" d="m16.6 6.6s0.1 0 0.1-0.1c0 0.1 0 0.2 0.1 0.2l-0.3-0.3c0 0.2 0.1 0.2 0.1 0.2z"/>
<path class="st4" d="m14.4 6.1c0.2 0.1 0.1 0.2 0 0.3v-0.3z"/>
<path class="st4" d="m11.6 7.9s0.1 0 0.1 0.1c-0.1 0-0.1-0.1-0.1-0.1z"/>
<path class="st4" d="m16.6 8.1c0.1 0 0.1 0 0 0 0.1 0 0.1 0.1 0 0 0.1 0 0 0 0 0z"/>
<path class="st4" d="m9.6 7.8z"/>
<path class="st4" d="m16.5 7.7c0 0.1 0.1 0.1 0 0 0.1 0.1 0 0.1 0 0v0 0z"/>
<path class="st4" d="m16.3 7.7c0.1 0 0 0.1 0 0v0z"/>
<path class="st4" d="m10.6 6.7v0 0z"/>
<path class="st4" d="m11.5 7.8c0 0.1 0.1 0.1 0 0 0.1 0.1 0.1 0.1 0 0 0.1 0.1 0 0.1 0 0z"/>
<polygon points="12.4 5.9 12.4 5.9" class="st4"/>
<path class="st1" d="m8.8 8.7c-0.3 0-0.5-0.3-0.9-0.3 0.1 0.1 0.2 0.1 0.2 0.2-0.2 0-0.4-0.1-0.6-0.1s-0.3-0.1-0.5-0.2c-0.1-0.1-0.3-0.1-0.5-0.2 0.1-0.1 0.3-0.1 0.4-0.1 0-0.1-0.1-0.1-0.2-0.1 0.1-0.2 0.2-0.2 0.4 0h0.1c0.1 0 0.2 0 0.4 0.1 0.2 0.2 0.4 0.3 0.6 0.4 0.2 0 0.4 0.2 0.6 0.3z"/>
<path class="st1" d="m5.6 7.9c0.2 0 0.3 0 0.5-0.1h0.1 0.3 0.1l-0.1 0.1h-0.1c-0.2 0-0.4 0.1-0.6 0.1-0.1 0-0.1 0-0.2-0.1z"/>
<path class="st1" d="m4.8 7.7c0.2 0 0.3 0 0.7 0.2h-0.3c-0.1 0-0.2-0.1-0.4-0.2z"/>
<path class="st1" d="m6.4 8.1h-0.3c0.1 0 0.1-0.1 0.3 0z"/>
<path class="st1" d="m9 8.8c-0.1 0-0.1 0 0 0-0.1-0.1-0.1-0.1 0 0v0z"/>
<path class="st6" d="m22.1 8.2z"/>
<path class="st6" d="m24.5 4.4h-0.3c0-0.2 0.1-0.2 0.2-0.2v-0.1c0.2 0 0.4 0 0.6-0.1 0.1 0 0.2-0.1 0.2-0.1h0.2 0.2c0.1-0.1 0.4-0.1 0.5-0.1 0 0.2-0.1 0.2-0.2 0.2s-0.2 0.1-0.4 0.1c-0.3 0.2-0.6 0.2-1 0.3z"/>
<path class="st5" d="m24.5 4.4c0.3-0.1 0.7-0.1 1-0.2 0.1 0 0.3-0.1 0.4-0.1 0 0 0.1 0 0.1 0.1-0.2 0.1-0.3 0.1-0.4 0.2-0.3 0.1-0.5 0.2-0.8 0.2-0.1-0.1-0.2 0-0.3-0.2z"/>
<path class="st5" d="m23.3 6.3c-0.1 0.1-0.2 0.1-0.2 0.2s-0.1 0.2-0.2 0.2-0.1 0.1-0.2 0.1c0.1-0.3 0.3-0.5 0.6-0.5z"/>
<path class="st6" d="m22.3 6.6l0.1-0.1c0.1 0 0.2 0.1 0.3 0.1-0.2 0.2-0.3 0-0.4 0z"/>
<path class="st6" d="m23.6 6.8c-0.1 0-0.1 0-0.2-0.1v-0.1c0.1 0 0.1 0.1 0.2 0.2v0z"/>
<path class="st5" d="m23.5 4.6s0.1 0 0 0c0.1 0.1 0.1 0.1 0 0v0 0z"/>
<polygon points="9.8 5.9 9.8 5.9" class="st1"/>
<path class="st3" d="m27.7 3.3z"/>
<path class="st1" d="m20.3 6.7l0.3 0.3c-0.1 0-0.1 0.1-0.2 0.1 0 0-0.1 0-0.1-0.1v-0.3z"/>
<path class="st1" d="m12.4 7.4c0.1 0.1 0.2 0 0.3 0v-0.2c0.1 0 0.2 0.1 0.2 0.1 0-0.1 0-0.2-0.2-0.3 0.1 0 0.1 0 0.2-0.1-0.1 0-0.1 0-0.1-0.1h0.2c0 0.1 0 0.2 0.3 0.1-0.1 0.1-0.1 0.1-0.2 0.1l0.1 0.1s0-0.1 0.1-0.1v0.2h-0.5v0.1h0.2c-0.1 0.1-0.2 0.2-0.3 0.2 0 0.1-0.1 0.1-0.1 0.2h-0.1v-0.3l-0.2 0.2c0.1-0.1 0.1-0.2 0.1-0.2z"/>
<path class="st1" d="m13.4 6.8v0c0.1 0.1 0.1 0.1 0 0.1v-0.1 0z"/>
<path class="st1" d="m12.1 6.4c0.1 0 0.1 0 0 0z"/>
<path class="st1" d="m12.7 6.3z"/>
<path class="st1" d="m9.1 7.6z"/>
<path class="st1" d="m5.2 6.2c-0.1-0.1-0.1-0.1 0 0-0.1-0.1-0.1-0.1 0 0z"/>
<polygon points="11.1 6.6 11.1 6.6" class="st1"/>
<path class="st1" d="m9.4 7.8z"/>
<path class="st1" d="m16.5 7.7v0z"/>
</svg>
