<?xml version="1.0" encoding="UTF-8" standalone="no"?>
<!-- Generator: Adobe Illustrator 21.1.0, SVG Export Plug-In . SVG Version: 6.00 Build 0)  -->
<svg id="Layer_1" style="enable-background:new 0 0 30 12" xmlns="http://www.w3.org/2000/svg" xml:space="preserve" viewBox="0 0 30 12" version="1.1" y="0px" x="0px" xmlns:xlink="http://www.w3.org/1999/xlink">
<style type="text/css">
	.st0{fill:#FEFEFE;}
	.st1{fill:#C0191D;}
	.st2{fill:#94B042;}
	.st3{fill:#7F2321;}
	.st4{fill:#6D7E1E;}
	.st5{fill:#AECC72;}
	.st6{fill:#E89D9B;}
</style>
<path class="st0" d="m6.2 7.8h0.1 0.1 0.1 0.1 0.1 0.2c0.1 0 0.2 0 0.3 0.1h0.4c0.5 0.1 0.9 0.1 1.4 0.1h1.6 0.7c0.4 0.1 0.8 0.1 1.2 0 0.2 0 0.4 0 0.6-0.1h0.1 0.2 0.4c0.3 0 0.5 0.1 0.8 0.1 0.2 0 0.4-0.1 0.6-0.1 0.4-0.1 0.7-0.2 1.1-0.3 0.2 0 0.4 0 0.7-0.1h0.2c0.5 0 0.9-0.1 1.3-0.3 0.1 0 0.3 0 0.4 0.1 0.1-0.2 0.4-0.2 0.6-0.3s0.5-0.2 0.7-0.3c0.3-0.3 0.7-0.5 1-0.9 0.1 0 0.1-0.1 0.2-0.1 0.4-0.2 0.7-0.4 0.9-0.8 0.1-0.2 0.2-0.3 0.4-0.5v-0.1h0.1c0.3-0.2 0.8-0.3 1.3-0.3h0.2c0.4 0.1 0.7 0.2 1.1 0.3s0.7 0.3 0.9 0.6 0.4 0.5 0.6 0.8c0.1 0.1 0.2 0.2 0.2 0.3 0.2 0.2 0.3 0.5 0.4 0.7 0.1 0.1 0.2 0.2 0.3 0.1 0.1 0 0.3-0.1 0.4-0.1h0.2c-0.1-0.1-0.1-0.2-0.2-0.3l-0.1-0.1c0-0.2-0.1-0.3-0.1-0.3-0.2-0.3-0.3-0.5-0.5-0.8s-0.3-0.6-0.5-0.9c-0.2-0.4-0.6-0.6-1-0.8-0.4-0.1-0.8-0.2-1.2-0.4-0.5-0.2-1-0.2-1.6-0.2-0.5 0-1 0.1-1.4 0.1-0.3 0-0.6 0.1-0.9 0.2-0.1 0-0.1-0.1-0.2-0.1 0 0-0.2-0.1-0.3-0.1-0.2-0.1-0.4-0.1-0.6-0.2-0.3 0-0.6-0.1-0.9-0.1h-0.6l-0.1-0.1c0 0.1-0.1 0.1-0.1 0.2-0.3 0-0.6-0.1-0.9-0.1-0.4-0.1-0.7-0.2-1.1-0.3h-0.4-0.3-0.1c-0.4 0-0.8 0.1-1.2 0.1h-0.1-0.1-0.4c-0.2 0-0.4 0.1-0.6 0.1-0.1 0-0.2 0.1-0.3 0.1-0.2 0.3-0.6 0.4-1 0.5h-0.3-0.7c-0.1 0-0.3 0.1-0.4 0.1s-0.3 0-0.4 0.1h-0.1c-0.2 0.1-0.4 0.1-0.6 0.2 0 0-0.1 0-0.1 0.1-0.4 0.1-0.8 0.2-1.3 0.2-0.3 0-0.7 0.1-1.1 0.1h-0.5c-0.3 0-0.7 0.1-1 0-0.4 0-0.8 0-1.2 0.2-0.2 0.1-0.3 0.2-0.5 0.2-0.5 0.2-1 0.4-1.4 0.7-0.3 0.3-0.5 0.5-0.7 0.9-0.1 0.2 0 0.5 0.2 0.5 0.3 0 0.5 0.1 0.8 0.1h1.1 0.1c0.3-0.1 0.5 0 0.7 0.1h0.1c0.2 0.1 0.2 0.2 0.3 0.3 0.2 0.1 0.4 0.3 0.6 0.5 0.2 0.1 0.4 0.1 0.5 0.2h0.1c0.1 0 0.2 0 0.4 0.1-0.1-0.1 0 0 0 0z"/>
<path class="st1" d="m15.5 2.5h0.3c0.3 0 0.5 0.2 0.7 0.3 0.5 0.1 0.9 0.2 1.4 0.3 0 0.1 0.1 0.1 0.2 0.1 0.2-0.1 0.3-0.1 0.5 0.1 0 0 0.1 0 0.1 0.1l0.1 0.1v0.1 0.1c-0.1 0-0.3 0.1-0.4 0-0.3 0-0.7-0.1-1-0.2h-0.5c-0.1 0-0.2 0.2-0.3 0.3-0.1-0.3-0.4-0.2-0.6-0.2 0 0.2-0.1 0.3-0.3 0.3s-0.5 0.1-0.7 0.1c-0.1 0-0.3 0-0.2 0.2l-0.1 0.1-0.1 0.1-0.1-0.1c-0.1 0.1-0.2 0.1-0.3 0.2-0.1 0-0.1 0.2-0.1 0.2 0.1 0.2 0.2 0.5 0.1 0.7 0.1-0.1 0.1-0.2 0.2-0.2h0.2v-0.2-0.2c0.1 0 0.1-0.1 0.2-0.1h-0.1c0-0.1 0.1-0.2 0.1-0.3h0.1v0.2c0 0.2 0 0.4-0.1 0.6 0 0 0 0.1-0.1 0.2 0 0-0.1 0-0.1 0.1-0.1 0.2-0.1 0.3-0.1 0.5 0 0.1 0.1 0.2 0.2 0.2s0.2 0.1 0.3-0.1c-0.2-0.1-0.1-0.1 0-0.1h0.4 0.3c0-0.1 0.1-0.2 0.3-0.1 0 0 0.1 0 0.2-0.1 0.2-0.2 0.3-0.5 0.4-0.7v-1c0-0.1 0.1-0.1 0.1-0.1h0.2c0.2-0.1 0.4-0.1 0.6 0h0.1c0.2 0 0.4 0.1 0.4 0.3v0.2c-0.1 0.2-0.2 0.6 0 0.8l0.1 0.1 0.1-0.1s0-0.1 0.1-0.2c0 0.1 0 0.3 0.1 0.4h0.1c0-0.1 0.1-0.2 0.1-0.3h0.2v0.2c0 0.1 0 0.1 0.1 0.2-0.1 0.4-0.2 0.7-0.4 1.1 0.1 0.1 0 0.2 0 0.3l-0.1 0.1-0.1-0.1c-0.1 0-0.2 0-0.3 0.1s-0.2 0.2-0.4 0.1h-0.1c-0.2 0.1-0.4 0.2-0.5 0.3-0.2 0-0.4 0-0.7 0.1-0.1-0.1 0-0.1 0-0.2s0.1-0.2 0.1-0.4l-0.1 0.1-0.3 0.3c-0.1 0.1-0.2 0.1-0.2 0.1l-0.1 0.1c-0.2 0-0.3 0.1-0.4 0.1h-0.2c-0.2-0.1-0.4-0.2-0.6 0-0.1 0-0.2 0.1-0.2 0.1-0.2 0-0.4 0-0.7 0.1h-0.1-0.2-0.1c-0.2 0-0.4 0-0.6 0.1 0.1 0 0.1-0.1 0.2-0.1-0.1-0.1-0.1-0.3-0.3-0.3-0.1-0.2-0.3-0.3-0.5-0.4 0 0.1-0.2 0.1-0.2 0.2-0.2-0.1-0.3 0.1-0.4 0.2l-0.1-0.1c-0.1 0-0.1 0.1-0.2 0.1-0.2 0-0.3 0-0.4-0.1s-0.3 0-0.3-0.2h-0.1-0.1c-0.2-0.1-0.4 0-0.6 0.1h-0.1c-0.4-0.2-0.5-0.1-0.7 0s-0.3 0.1-0.5 0c0 0.1-0.1 0.2-0.1 0.3 0.2 0 0.3-0.1 0.5 0.1-0.3 0-0.6 0.1-0.9 0.1h-0.1-0.5l-0.1 0.1c-0.1 0-0.2 0-0.3-0.1s-0.1 0-0.2 0h-0.1-0.1-0.1-0.1-0.1c0.1 0 0.1-0.1 0.2-0.1-0.1 0-0.2-0.1-0.2-0.1 0-0.1-0.1 0-0.2 0h-0.1c-0.2-0.1-0.4-0.2-0.6-0.2-0.2-0.2-0.4-0.4-0.6-0.5-0.1-0.1-0.1-0.2-0.2-0.3 0-0.1 0-0.1-0.1 0v-0.1c0-0.1-0.1-0.2-0.2-0.2-0.2 0-0.3 0-0.5 0.1h-0.1c-0.1 0-0.3 0-0.4-0.1l-0.1-0.1h0.7c0.3 0 0.5 0 0.7 0.1 0.1 0.1 0.2 0 0.2-0.1s-0.1-0.3-0.3-0.3h-0.2-0.1-0.4c-0.1 0-0.2 0-0.2-0.1v-0.2c0-0.1-0.1-0.1-0.1-0.2l-0.1 0.1c-0.1-0.1-0.1-0.1-0.2-0.1 0 0-0.1-0.1-0.1-0.2 0.1-0.2 0-0.3-0.2-0.3h-0.1s0-0.1 0.1-0.1l0.6-0.3c0.1 0 0.2 0 0.1-0.2 0.2-0.1 0.3-0.2 0.5-0.2 0.4-0.1 0.8-0.2 1.2-0.2 0.3 0 0.7 0 1-0.1h0.5c0.4 0.1 0.8 0 1.1 0 0.5 0 0.9-0.2 1.3-0.3 0.3 0.1 0.6 0 0.8-0.2 0.1 0 0.3 0 0.4-0.1h0.6v-0.1h-0.2 0.7c0.1 0 0.1 0.1 0.2 0.1s0.3 0 0.4 0.1h0.3c0.2 0 0.3-0.1 0.5-0.2h0.1v-0.1h-0.2l0.1-0.1 0.1-0.1 0.1-0.1c0.2 0 0.4-0.1 0.6-0.1h0.4 0.1 0.1c0.1 0 0.1 0.1 0.2 0.1h0.5 0.1s0-0.1-0.1-0.1c0.3-0.1 0.5-0.1 0.7-0.2zm-5.1 2.5c0-0.1 0.1-0.1 0.1-0.1-0.1 0-0.2 0-0.1 0.1-0.1 0-0.1-0.1-0.2-0.1v0.1-0.1c-0.1 0-0.2 0.1-0.2 0-0.2 0-0.2 0.1-0.3 0.2 0.1 0.1 0.2 0.2 0.4 0.2-0.1 0-0.1-0.1-0.2-0.1 0.2 0 0.1-0.1 0.1-0.2 0.2 0.2 0.3 0 0.4 0-0.1 0 0 0 0 0zm3 1.1c0.1 0.2 0.2 0.2 0.3 0.2 0-0.2 0.2-0.3 0.1-0.4v-0.4c0-0.2 0.2-0.3 0-0.5v-0.3h-0.1c-0.1 0.1-0.1 0.2-0.2 0.3 0 0 0-0.1-0.1-0.1s-0.1 0.1-0.2 0.1c-0.2 0.3-0.4 0.6-0.3 0.9 0.2 0.1 0.3 0.3 0.5 0.2-0.1 0.1-0.1 0.1-0.1 0.2h0.1v-0.2zm-8.3 1.2v0c0.1-0.1 0-0.3 0.1-0.3 0.1-0.1 0-0.2-0.1-0.3l-0.3-0.3c-0.2 0.2-0.2 0.4 0 0.5 0.1 0.1 0.2 0.2 0.3 0.4v0zm4.1-1.9c0.1-0.2 0.1-0.3 0.2-0.5l-0.1-0.1c-0.1 0.1-0.1 0.2-0.2 0.3 0-0.1-0.1-0.1-0.2-0.2 0 0.1 0 0.1-0.1 0.2l-0.1 0.1c0 0.1 0.1 0.2 0.1 0.3h0.1v-0.2c0.1 0.1 0.2 0.1 0.3 0.1zm7.8-0.1c0.2-0.2 0.1-0.6-0.1-0.7 0 0.2 0 0.6 0.1 0.7zm-2.9 0.1c-0.1 0.2-0.1 0.3-0.1 0.5 0 0.1 0.1 0.1 0.2 0.2v-0.3 0.1h-0.1c0.1-0.2 0-0.3 0-0.5zm-7.5 0.2c-0.1 0.1-0.1 0.1 0 0v0.3c0.1 0.1 0.1-0.1 0.2-0.1-0.1 0-0.2-0.1-0.2-0.2zm4-1v0c-0.1 0.1-0.1 0.1-0.1 0.2s0.1 0.2 0.1 0.2h0.1v-0.3l-0.1-0.1zm-3.1 1c0-0.1 0-0.3-0.2-0.3v0.3h0.2zm3.6 0.3v-0.3h-0.1c0 0.1-0.1 0.1-0.1 0.2 0 0 0.1 0 0.2 0.1zm-1-1.1v-0.1 0.1zm4.1 0.6z"/>
<path class="st2" d="m18.7 3.6v-0.1h0.3c0 0.1 0.1 0.2 0.2 0.1 0.1 0 0.2-0.1 0.1-0.2v-0.1c0-0.1 0.1-0.1 0.1-0.2h0.2v-0.1c-0.1 0-0.1-0.1-0.2-0.1s-0.2 0.1-0.3 0c-0.2 0-0.3 0-0.5-0.1-0.1 0-0.1-0.1-0.2-0.1 0.2 0 0.4-0.1 0.6 0 0.3 0 0.6 0.1 0.9 0.1l0.1 0.1 0.3 0.3h-0.1c-0.2 0-0.3 0.1-0.5 0.1-0.1 0-0.2 0.1-0.3 0.1v0.1c0 0.1 0 0.3-0.1 0.4h-0.1c-0.2 0-0.1 0.1 0 0.2 0.1 0 0.1-0.1 0.2-0.1h0.2c0 0.2 0.1 0.1 0.2 0 0.1 0.1 0.1 0.2 0.2 0.3v0.1c0.1 0 0.3 0.1 0.4 0.1 0.2 0 0.5 0 0.6-0.2l0.1-0.1-0.1-0.1h-0.2-0.1v-0.1l0.2-0.2v-0.1l-0.3-0.3-0.1-0.1c0.1-0.1 0-0.3 0-0.4 0.1 0 0.2 0.1 0.3 0.1s0.1 0.1 0.2 0.1 0.3 0.1 0.4 0.1c0.2-0.1 0.4 0 0.6 0 0.1 0 0.3 0 0.4-0.1h0.2c0.1-0.1 0.2-0.1 0.3-0.1 0.2 0 0.5 0 0.7-0.1 0.4 0.1 0.8 0.1 1.2 0.3 0.3 0.1 0.6 0.3 0.9 0.3 0.2 0 0.4 0.1 0.5 0.2 0.3 0.2 0.6 0.4 0.8 0.7 0.1 0.1 0.1 0.2 0.2 0.3l0.3 0.6c0.1 0.3 0.3 0.5 0.5 0.8l0.1 0.1 0.1 0.1c0.1 0.1 0.1 0.2 0.2 0.3h-0.2-0.1c-0.2 0-0.3-0.1-0.5-0.1s-0.2-0.1-0.1-0.3c0.1-0.1 0.1-0.2 0.2-0.3-0.1-0.1-0.1-0.2-0.2-0.3-0.1-0.2-0.2-0.3-0.4-0.5 0 0 0-0.1-0.1-0.1 0-0.2 0-0.4-0.2-0.5-0.1 0-0.1 0-0.2-0.1-0.2-0.1-0.3-0.3-0.5-0.4h-0.4c-0.1 0-0.3-0.1-0.4-0.1s-0.2 0-0.3-0.1c-0.1 0-0.3-0.1-0.4-0.1 0.1 0 0.1-0.1 0.2-0.1h0.1s0-0.1-0.1-0.1c-0.4-0.2-0.8-0.2-1.2 0 0.1 0 0.1 0.1 0.2 0.1h0.3c0.1 0 0.2-0.1 0.3 0.1h-0.3c-0.1 0-0.1 0-0.2 0.1s-0.3 0-0.4 0.2c-0.1 0-0.1 0-0.2 0.1s-0.2 0.1-0.3 0.2-0.3 0.1-0.2 0.3v0.1c-0.1 0.2-0.3 0.3-0.4 0.5-0.2 0.4-0.5 0.6-0.9 0.8 0-0.1-0.1-0.1-0.1-0.2 0 0.1-0.1 0.1-0.1 0.2v0.1c-0.3 0.4-0.7 0.6-1 0.9-0.3-0.2-0.6-0.1-0.8 0s-0.4 0.1-0.7 0.2c0-0.1-0.1-0.1-0.1-0.2 0.1 0 0.2-0.1 0.3-0.1v-0.2l0.2 0.2 0.2-0.2c0.1-0.2 0.2-0.2 0.4-0.3 0.1 0 0.3-0.1 0.4-0.3l-0.6 0.3v-0.6h0.1v0.5-0.1l0.2-0.2 0.1 0.1c0.1-0.1 0.2-0.2 0.3-0.4-0.2 0-0.3 0-0.4 0.1-0.2 0.1-0.3 0.1-0.4-0.2 0-0.1 0-0.1-0.1-0.2l0.1-0.1c-0.1-0.3-0.1-0.3-0.3-0.2v-0.2c0-0.3-0.2-0.5-0.5-0.3v-0.2c0-0.1 0-0.2 0.1-0.2 0.1-0.2 0.2-0.3 0.2-0.4l-0.1-0.1c-0.1 0-0.1 0.1-0.2 0.1v-0.2zm3.4 0.8c0-0.1 0.2-0.2 0.1-0.4 0.1-0.2 0.1-0.2-0.1-0.2h-0.2c-0.1 0.1-0.3 0.2-0.4 0.3v0.1c0 0.1 0.3 0.2 0.4 0.2 0-0.1 0 0 0.2 0zm-1.2 0.4c0.3 0 0 0.2 0.1 0.3 0.1-0.1 0.2-0.2 0.3-0.4v-0.1h-0.1-0.3c0.1 0 0.1 0.1 0 0.2z"/>
<path class="st3" d="m3.4 4.4c0 0.1-0.1 0.1-0.1 0.2l-0.6 0.3s0 0.1-0.1 0.1h0.1c0.2 0 0.3 0 0.2 0.3 0 0 0.1 0.1 0.1 0.2 0 0 0.1 0.1 0.2 0.1l0.1-0.1c0 0.1 0.1 0.1 0.1 0.2v0.2c0 0.1 0.1 0.2 0.2 0.1h0.4s0.1 0 0.1 0.1h0.2c0.1 0 0.3 0.2 0.2 0.3 0 0.1-0.1 0.1-0.2 0.1-0.2-0.2-0.4-0.2-0.7-0.2h-0.7l0.1 0.1c0.1 0 0.3 0.1 0.4 0.1h0.1c0.2 0 0.3 0 0.5-0.1 0.1 0 0.2 0.1 0.2 0.2v0.1c-0.2-0.2-0.4-0.2-0.7-0.1h-0.1c-0.4-0.1-0.8-0.1-1.1-0.1s-0.5 0-0.8-0.1c-0.2 0-0.3-0.3-0.2-0.4 0.2-0.4 0.4-0.6 0.7-0.9 0.4-0.3 0.9-0.5 1.4-0.7z"/>
<path class="st4" d="m24.5 3.6c0.1 0 0.3 0.1 0.4 0.1s0.2 0 0.3 0.1c0.1 0 0.3 0.1 0.4 0.1s0.2 0 0.3 0.1c0.2 0.1 0.3 0.3 0.5 0.4 0.1 0 0.1 0 0.2 0.1 0.4 0.1 0.4 0.3 0.5 0.5 0 0 0 0.1 0.1 0.1 0.1 0.2 0.2 0.3 0.4 0.5 0.1 0.1 0.1 0.2 0.2 0.3-0.1 0.1-0.1 0.2-0.2 0.3s0 0.2 0.1 0.3c0.2 0 0.3 0.1 0.5 0.1h0.1c-0.1 0-0.3 0.1-0.4 0.1s-0.2 0-0.3-0.1c-0.1-0.2-0.3-0.5-0.4-0.7l-0.2-0.2c-0.2-0.3-0.4-0.5-0.6-0.8s-0.6-0.5-0.9-0.6c-0.5-0.1-0.8-0.2-1.2-0.3h-0.2c-0.5 0-1 0.1-1.4 0.3h-0.1c0-0.2 0.2-0.2 0.2-0.3 0.1-0.1 0.2-0.1 0.3-0.2 0.1 0 0.1 0 0.2-0.1 0-0.2 0.3-0.1 0.4-0.2 0.1 0 0.1 0 0.2-0.1h0.3c0.1 0.2 0.2 0.2 0.3 0.2z"/>
<path class="st3" d="m11.9 7.1c0.2 0.1 0.4 0.2 0.5 0.4 0.2 0 0.2 0.2 0.3 0.3-0.1 0-0.1 0.1-0.2 0.1-0.4 0.1-0.8 0.1-1.2 0h-0.7-1.6c-0.5 0.1-0.9 0.1-1.4 0.1h-0.4s0-0.1 0.1-0.1h0.5 0.1c0.3 0 0.6-0.1 0.9-0.1-0.3-0.1-0.4-0.1-0.6-0.1 0-0.1 0.1-0.2 0.1-0.3 0.2 0.1 0.3 0.1 0.5 0s0.3-0.2 0.5-0.1h0.1c0.2 0 0.4-0.1 0.6-0.1h0.1 0.1c0.1 0.1 0.2 0.1 0.3 0.2s0.3 0.1 0.4 0.1 0.1-0.1 0.2-0.1c0 0 0 0.1 0.1 0.1 0.1-0.1 0.2-0.3 0.4-0.2 0.1-0.2 0.2-0.1 0.3-0.2z"/>
<path class="st5" d="m20.4 3c0 0.1 0.1 0.2 0 0.4 0 0 0 0.1 0.1 0.1l0.3 0.3v0.1c-0.1 0.1-0.2 0.1-0.2 0.2v0.1h0.1 0.2s0.1 0 0.1 0.1c0 0 0 0.1-0.1 0.1-0.2 0.2-0.4 0.2-0.6 0.2-0.1 0-0.2-0.1-0.4-0.1 0 0 0 0.1-0.1 0.1-0.1-0.1-0.1-0.2-0.2-0.3-0.1 0-0.2 0.1-0.2 0h-0.2c-0.1 0-0.1 0.1-0.2 0.1 0-0.1-0.1-0.1 0-0.2h0.1c0-0.1 0.1-0.3 0.1-0.4v-0.1c0.1-0.1 0.2-0.1 0.3-0.1 0.2 0 0.3-0.1 0.5-0.1h0.1c0.1-0.4 0-0.5-0.1-0.6l-0.1-0.1c0.2 0.1 0.4 0.1 0.5 0.2z"/>
<path class="st4" d="m18.7 4.5c0.3-0.1 0.5 0 0.5 0.3v0.2c0.2-0.1 0.2-0.1 0.3 0.2l-0.1 0.1c0 0.1 0 0.1 0.1 0.2 0.1 0.2 0.2 0.3 0.4 0.2 0.1 0 0.2 0 0.4-0.1-0.1 0.1-0.2 0.2-0.3 0.4l-0.1-0.1-0.2 0.2v0.1-0.5h-0.1v0.6l0.6-0.3c-0.1 0.2-0.2 0.3-0.4 0.3-0.2 0.1-0.3 0.1-0.4 0.3 0 0.1-0.1 0.1-0.2 0.2-0.1-0.1-0.2-0.1-0.2-0.2v0.2c-0.1 0-0.2 0.1-0.3 0.2 0.1 0.1 0.1 0.1 0.1 0.2-0.1 0-0.3 0-0.4-0.1v-0.1l0.1-0.1h0.1c0.2-0.1 0.3-0.3 0.3-0.5 0-0.1 0.1-0.2 0.1-0.3s0.1-0.1 0.1-0.2 0.1-0.2 0.1-0.4c0-0.1 0.1-0.1 0.1-0.2h-0.2v0.3-0.2h-0.1c-0.1 0-0.1-0.1-0.1-0.2v-0.2s0-0.1-0.1-0.1c0.1 0 0.1-0.1 0-0.1 0 0 0-0.2-0.1-0.3z"/>
<path class="st5" d="m28.1 6.2s-0.1 0-0.1-0.1c-0.2-0.3-0.3-0.5-0.5-0.8l-0.3-0.6c0-0.1-0.1-0.2-0.2-0.3-0.2-0.3-0.5-0.6-0.8-0.7-0.2-0.1-0.3-0.1-0.5-0.2-0.3 0-0.6-0.2-0.9-0.3-0.4-0.2-0.8-0.2-1.3-0.2-0.2 0-0.5 0.1-0.7 0.1-0.1 0-0.2 0-0.3 0.1h-0.2c-0.1 0.1-0.2 0.1-0.4 0.1s-0.4-0.1-0.6 0c-0.1 0-0.3 0-0.4-0.1 0.3-0.1 0.6-0.2 0.9-0.2 0.5 0 1 0 1.4-0.1 0.5 0 1.1 0 1.6 0.2 0.4 0.2 0.8 0.2 1.2 0.4 0.4 0.1 0.8 0.4 1 0.8 0.2 0.3 0.3 0.6 0.5 0.9s0.4 0.5 0.5 0.8c0 0 0.1 0.1 0.1 0.2z"/>
<path class="st6" d="m13.4 7.8s0.1-0.1 0 0c0.3-0.1 0.5-0.1 0.7-0.1 0.1 0 0.2 0 0.2-0.1 0.2-0.1 0.4-0.1 0.6 0h0.2c0.1-0.1 0.3-0.1 0.4-0.1 0 0 0.1 0 0.1-0.1 0.1 0 0.2-0.1 0.2-0.1l0.3-0.3 0.1-0.1c0.1 0.2 0 0.3-0.1 0.4 0 0.1-0.1 0.1 0 0.2-0.4 0.1-0.7 0.2-1.1 0.3-0.2 0.1-0.4 0.1-0.6 0.1-0.3 0-0.5 0-0.8-0.1h-0.2z"/>
<path class="st4" d="m18.4 2.8c0.1 0 0.1 0.1 0.2 0.1 0.2 0 0.3 0.1 0.5 0.1h0.3c0.1 0 0.1 0.1 0.2 0.1v0.1h-0.2c0 0.1-0.1 0.1-0.1 0.2v0.1c0.1 0.1 0 0.2-0.1 0.2s-0.1-0.1-0.2-0.1c-0.1-0.1-0.1-0.2-0.2-0.1l-0.1-0.1c0-0.2-0.2-0.4-0.5-0.4 0-0.1 0.1-0.1 0.1-0.2s0.1 0 0.1 0z"/>
<path class="st6" d="m17.9 3.1c-0.5-0.1-0.9-0.2-1.4-0.3-0.2-0.1-0.4-0.3-0.7-0.3h0.4c0.4 0.1 0.7 0.2 1.1 0.3 0.3 0.1 0.6 0.1 0.9 0.1 0 0.1 0 0.1-0.1 0.2h-0.2z"/>
<path class="st6" d="m13 2.8l-0.1 0.1c-0.1 0.1-0.3 0.1-0.4 0.2h0.2v0.1c-0.2 0.1-0.3 0.1-0.5 0.2h-0.3c-0.1 0-0.3 0-0.4-0.1-0.1 0-0.2-0.1-0.2-0.1h0.3c0.4-0.1 0.8-0.2 1.2-0.4h0.2z"/>
<path class="st3" d="m18.4 7v0.1c-0.4 0.1-0.9 0.3-1.3 0.3h-0.2c0.2-0.1 0.4-0.2 0.5-0.3h0.1c0.2 0.1 0.2 0 0.4-0.1 0.2 0 0.3 0 0.4-0.1l0.1 0.1z"/>
<path class="st6" d="m15.4 2.5c-0.2 0-0.3 0.1-0.5 0.1 0 0 0 0.1 0.1 0.1h-0.1-0.5c-0.1 0-0.1-0.1-0.2-0.1 0.4 0 0.8 0 1.2-0.1z"/>
<path class="st3" d="m17.9 3.1h0.2c0.1 0 0.1-0.1 0.1-0.2 0.3 0 0.5 0.2 0.5 0.4 0 0-0.1 0-0.1-0.1-0.2-0.2-0.3-0.2-0.5-0.1-0.1 0.2-0.2 0.2-0.2 0z"/>
<path class="st6" d="m9.8 3.4c-0.2 0.2-0.5 0.3-0.8 0.2l0.1-0.1c0.2 0 0.4 0 0.7-0.1-0.1 0 0 0 0 0z"/>
<path class="st3" d="m5.9 7.7c0.1 0 0.3-0.1 0.4-0.1s0.2 0 0.2 0.1c-0.1 0-0.2 0.1-0.2 0.1h-0.1-0.1c-0.1-0.1-0.2-0.1-0.2-0.1z"/>
<path class="st6" d="m10.6 3.2h0.2v0.1h-0.6c0.1 0 0.3 0 0.4-0.1z"/>
<path class="st4" d="m21.1 5.8v0c0-0.2 0-0.2 0.1-0.3 0 0.1 0.1 0.1 0.1 0.2 0 0-0.1 0.1-0.2 0.1z"/>
<path class="st3" d="m5.2 7.5c0.2 0.1 0.4 0.1 0.5 0.2-0.1-0.1-0.3-0.2-0.5-0.2z"/>
<path class="st3" d="m6.7 7.9c0.1 0 0.2-0.1 0.2 0h-0.2z"/>
<path class="st3" d="m4.3 6.7c0.1-0.1 0.1 0 0.1 0h-0.1z"/>
<path class="st3" d="m6.5 7.8h0.1-0.1z"/>
<path class="st5" d="m28.2 6.3l-0.1-0.1 0.1 0.1z"/>
<path class="st6" d="m13.1 7.8h0.1-0.1z"/>
<path class="st3" d="m6.3 7.8h0.1-0.1z"/>
<path class="st6" d="m14.1 2.6z"/>
<path class="st1" d="m6.1 7.7s0.1 0.1 0 0c0.1 0.1 0 0 0 0z"/>
<path class="st4" d="m22.6 4.4v0 0z"/>
<path class="st6" d="m15.5 2.5z"/>
<path class="st6" d="m18.8 5s0 0.1 0.1 0.1h-0.2c0 0.1-0.1 0.2-0.1 0.3h-0.1c0-0.1 0-0.2-0.1-0.4 0 0.1 0 0.1-0.1 0.2l-0.1 0.1s-0.1 0-0.1-0.1c-0.1-0.2-0.1-0.6 0-0.8v-0.2c0-0.2-0.2-0.3-0.4-0.3h-0.1c-0.2-0.1-0.4-0.1-0.6 0h-0.2s-0.1 0-0.2-0.1v1c-0.1 0.3-0.1 0.5-0.4 0.7 0 0-0.1 0.1-0.2 0.1-0.2-0.1-0.3 0-0.3 0.1h-0.3-0.4c-0.1 0-0.1 0-0.1 0.1-0.1 0.1-0.2 0.1-0.3 0.1s-0.2-0.1-0.2-0.2c0-0.2 0-0.3 0.1-0.5 0 0 0.1 0 0.1-0.1s0-0.1 0.1-0.2c0.2-0.2 0.1-0.4 0.1-0.6v-0.2h-0.1c0 0.1-0.1 0.2-0.1 0.3h-0.1v-0.1h0.1c-0.1 0-0.1 0.1-0.2 0.1v0.2 0.2h-0.2c0 0.1-0.1 0.1-0.2 0.2 0-0.3 0-0.5-0.1-0.7 0-0.1 0.1-0.2 0.1-0.2 0.1-0.1 0.2-0.1 0.3-0.2l0.1 0.1 0.1-0.1s0.1 0 0.1-0.1c0-0.2 0.1-0.2 0.2-0.2 0.2 0 0.5-0.1 0.7-0.1s0.3 0 0.3-0.3c0.2 0.1 0.5-0.1 0.6 0.2l0.3-0.3h0.5c0.3 0.1 0.7 0.1 1 0.2h0.4v0.2c0.1 0 0.1-0.1 0.2-0.1l0.1 0.1c0 0.1-0.1 0.2-0.2 0.2 0 0.1 0 0.2-0.1 0.2l-0.1 0.1h-0.1s-0.1-0.1-0.1 0l-0.1 0.1c0 0.1 0 0.1 0.1 0.2h0.2c0.1 0.4 0.2 0.6 0.3 0.7zm-4.4-0.3z"/>
<path class="st6" d="m13.4 6.1v0.2h-0.1c0-0.1 0-0.1 0.1-0.2-0.2 0-0.3-0.1-0.3-0.2 0-0.4 0.2-0.6 0.3-0.9 0-0.1 0.1-0.1 0.2-0.1 0 0 0 0.1 0.1 0.1 0.1-0.1 0.1-0.2 0.2-0.3h0.1v0.3c0.1 0.2 0 0.3 0 0.5v0.4c0 0.1-0.2 0.2-0.2 0.4-0.2 0-0.3 0-0.4-0.2z"/>
<path class="st3" d="m19.1 5.4c0.1 0 0.2 0 0.2 0.1s-0.1 0.1-0.1 0.2-0.1 0.2-0.1 0.4c0 0.1-0.1 0.1-0.1 0.2s-0.1 0.2-0.1 0.3c0 0.2-0.2 0.4-0.3 0.5h-0.1c0-0.1 0.2-0.2 0-0.3 0.2-0.3 0.3-0.7 0.4-1.1h0.1v0.2c0.1-0.3 0.1-0.4 0.1-0.5z"/>
<path class="st3" d="m5.1 7.3v0c-0.1-0.2-0.2-0.3-0.3-0.4-0.2-0.1-0.2-0.3 0-0.5l0.3 0.3c0.1 0.1 0.1 0.1 0.1 0.3-0.1 0 0 0.2-0.1 0.3v0z"/>
<path class="st6" d="m9.2 5.4h-0.2v0.2h-0.1c0-0.1-0.1-0.2-0.1-0.3 0 0 0-0.1 0.1-0.1 0-0.1 0-0.1 0.1-0.2 0 0 0.1 0 0.1 0.1 0-0.1 0.1-0.2 0.2-0.3l0.1 0.1c-0.1 0.2-0.2 0.4-0.2 0.5z"/>
<path class="st6" d="m17 5.3c-0.1-0.1-0.2-0.5-0.1-0.7 0.3 0.1 0.3 0.5 0.1 0.7z"/>
<path class="st6" d="m10.3 5s-0.1 0.2-0.3 0c0 0.1 0 0.2-0.1 0.1 0.1 0.1 0.1 0.2 0.2 0.2-0.2 0-0.3-0.1-0.4-0.2 0.1-0.1 0.1-0.2 0.3-0.2 0 0 0.1 0 0.2-0.1v0.1-0.1c0 0.1 0.1 0.1 0.1 0.2v0z"/>
<path class="st6" d="m14.1 5.4v0.5h0.1v-0.1 0.3c0-0.1-0.1-0.1-0.1-0.2-0.1-0.1 0-0.3 0-0.5z"/>
<path class="st6" d="m6.6 5.6c0.1 0.1 0.2 0.1 0.2 0.2-0.1 0.1-0.1 0.3-0.2 0.2s-0.1-0.2 0-0.4c-0.1 0.1-0.1 0.1 0 0z"/>
<path class="st6" d="m10.6 4.6l0.1 0.1v0.3h-0.1c0-0.1-0.1-0.2-0.1-0.2s0-0.1 0.1-0.2v0z"/>
<path class="st6" d="m7.5 5.6h-0.2v-0.3c0.3 0 0.2 0.1 0.2 0.3z"/>
<path class="st3" d="m12.7 3.1h-0.2c0.1-0.1 0.3-0.1 0.4-0.2l-0.1 0.1c-0.1 0-0.1 0.1-0.1 0.1z"/>
<path class="st6" d="m11.1 5.9c-0.1 0-0.1-0.1-0.2-0.1 0-0.1 0-0.2 0.1-0.2h0.1v0.3z"/>
<path class="st3" d="m18.8 3.4c0.1-0.1 0.2 0 0.2 0.1-0.1 0-0.2 0-0.2-0.1z"/>
<path class="st3" d="m12.7 3.2v0c0-0.1 0.1-0.1 0.1-0.1v0.1h-0.1z"/>
<path class="st6" d="m10.3 4.9l0.1-0.1c0 0.1 0 0.1-0.1 0.1 0.1 0.1 0.1 0.1 0 0 0.1 0.1 0 0.1 0 0v0z"/>
<path class="st6" d="m10.1 4.8v-0.1 0.1z"/>
<path class="st6" d="m14.2 5.4z"/>
<path class="st6" d="m10.4 4.9v0 0 0z"/>
<path class="st3" d="m11.9 7.1z"/>
<path class="st6" d="m15.6 3.8z"/>
<path class="st5" d="m22.1 4.4h-0.3c-0.1 0-0.4-0.1-0.4-0.2v-0.1c0.1-0.1 0.3-0.2 0.4-0.3 0.1 0 0.1-0.1 0.2 0 0.2 0 0.2 0 0.1 0.2 0.1 0.2 0 0.3 0 0.4z"/>
<path class="st5" d="m24.5 3.6c-0.1 0-0.2 0-0.3-0.1 0-0.2-0.1-0.1-0.3-0.1h-0.3c-0.1 0-0.1-0.1-0.2-0.1 0.4-0.2 0.8-0.1 1.2 0l0.1 0.1h-0.1c0 0.1 0 0.2-0.1 0.2z"/>
<path class="st4" d="m20.9 4.8c0.1-0.1 0.1-0.2 0.1-0.2h0.3 0.1v0.1c-0.1 0.1-0.2 0.2-0.3 0.4-0.2-0.1 0.1-0.3-0.2-0.3z"/>
<path class="st3" d="m18.8 5c-0.1-0.2-0.2-0.3-0.3-0.5v-0.2s0.1 0 0.1 0.1c0.1 0.1 0.1 0.3 0.2 0.4 0.1 0.2 0.1 0.2 0 0.2z"/>
<path class="st4" d="m18.7 4.4s-0.1 0-0.1-0.1l0.1-0.1v0.2z"/>
<path class="st4" d="m18.7 4.5v0 0z"/>
<path class="st3" d="m19.1 5.4z"/>
<path class="st1" d="m18.6 4.3v0.3h-0.2c0-0.1-0.1-0.1-0.1-0.2 0 0 0-0.1 0.1-0.1 0-0.1 0 0 0.2 0-0.1 0-0.1 0 0 0z"/>
<path class="st1" d="m14.4 4.7z"/>
<path class="st1" d="m14.5 4.7z"/>
<path class="st1" d="m14.6 4.4z"/>
<polygon points="13.4 6.1 13.4 6.1" class="st1"/>
</svg>
