<?xml version="1.0" encoding="UTF-8" standalone="no"?>
<!-- Generator: Adobe Illustrator 21.1.0, SVG Export Plug-In . SVG Version: 6.00 Build 0)  -->
<svg id="Layer_1" style="enable-background:new 0 0 30 12" xmlns="http://www.w3.org/2000/svg" xml:space="preserve" viewBox="0 0 30 12" version="1.1" y="0px" x="0px" xmlns:xlink="http://www.w3.org/1999/xlink">
<style type="text/css">
	.st0{fill:#FEFEFE;}
	.st1{fill:#C0191D;}
	.st2{fill:#7F2321;}
	.st3{fill:#94B042;}
	.st4{fill:#6D7E1E;}
	.st5{fill:#AECC72;}
	.st6{fill:#E89D9B;}
	.st7{fill:#393602;}
</style>
<path class="st0" d="m25.3 4.2v0c0.4-0.2 0.7-0.3 1.1-0.5 0.2-0.1 0.4-0.1 0.6-0.2 0.5-0.2 0.9-0.4 1.4-0.5 0.4-0.1 0.7-0.4 1-0.8 0.1-0.1 0.1-0.3 0.2-0.4 0.1-0.2 0.1-0.2-0.2-0.4-0.2-0.1-0.3 0.1-0.4 0.2l-0.2 0.2c-0.3 0.2-0.7 0.4-1.1 0.5-0.2 0.1-0.3 0.1-0.5 0.2h-0.1c-0.2 0.1-0.5 0.1-0.7 0-0.3-0.1-0.6-0.3-1-0.4-0.1 0-0.2-0.1-0.3-0.1s-0.2-0.1-0.3-0.1h-0.7l-0.2-0.2-0.2-0.2-0.1-0.1c-0.3-0.1-0.7-0.2-1-0.1h-0.1-0.3-0.1-0.1c-0.3 0-0.5 0.1-0.8 0.1h-0.3c-0.1 0.1-0.1 0.3-0.2 0.4l-0.1 0.1h-0.1-0.1c-0.1 0-0.2 0-0.4 0.1h-0.2-0.7c-0.3-0.1-0.5-0.2-0.8-0.2-0.3-0.1-0.7-0.1-1-0.2l-0.1-0.1h-0.7-1-0.8c-0.3 0-0.6-0.1-0.9-0.1-0.4 0-0.8 0-1.2-0.1-0.3-0.1-0.7-0.1-1.1-0.2h-0.1c-0.1 0-0.3-0.1-0.4-0.1h-0.1-0.2-0.2c-0.8-0.4-1.6-0.4-2.5-0.3-0.5 0.1-1 0.2-1.5 0.1h-0.3-0.2-0.1-0.1-0.1c-0.5 0.2-0.9 0.2-1.3 0.3-0.7 0.3-1.4 0.6-2.1 0.8-0.5 0.1-0.8 0.4-1.1 0.8s-0.3 1 0.2 1.4c0.2 0.2 0.5 0.3 0.7 0.4 0.9 0.4 1.9 0.8 2.8 1.1 0.4 0.2 0.9 0.4 1.3 0.5 0.8 0.3 1.7 0.3 2.5 0.3 1.2 0.1 2.4 0.1 3.6 0.1 0.9 0 1.9 0 2.8 0.2 0.6 0.1 1.2 0.3 1.8 0.2h0.5c0.3 0 0.6 0 0.9-0.1s0.7-0.2 1-0.3c0.5-0.2 1-0.5 1.5-0.5 0.4 0 0.7-0.1 1.1-0.2 0.4 0 0.7 0 1.1-0.1s0.7-0.3 1-0.5c0.1-0.1 0.2-0.3 0.4-0.4l0.1-0.1c0.2-0.1 0.3-0.2 0.5-0.3 0 0 0.1-0.1 0.3-0.2-0.1 0-0.1 0 0 0z"/>
<path class="st1" d="m5.9 0.9h0.1 0.2 0.3c0.5 0.1 1 0 1.5-0.1 0.8-0.1 1.7-0.1 2.5 0.1h0.2 0.2 0.1c0.1 0.1 0.2 0.2 0.4 0.1h0.1c0.3 0.1 0.5 0.2 0.8 0.2 0.2 0.1 0.4 0.1 0.7 0.2h-0.1c0.2 0 0.2 0.3 0.5 0.1-0.1 0-0.2-0.1-0.2-0.1v-0.1h0.2c0.1 0 0.2 0.1 0.2 0.1 0.1-0.1 0.2-0.1 0.4-0.1 0.1 0 0.3 0.1 0.4 0 0.3-0.1 0.5 0 0.7 0.2 0.1 0.1 0.3 0.1 0.4 0.1s0.2-0.1 0.3-0.1c0.2 0 0.3-0.1 0.5 0 0.1 0.1 0.3 0.1 0.4 0 0.1 0 0.1-0.1 0.2-0.1h0.4c0.3 0.1 0.7 0.1 1 0.2s0.5 0.1 0.8 0.2c0.1 0.1 0.2 0.1 0.2 0.2 0.1 0.2 0.4 0.4 0.6 0.4 0.1 0 0.1-0.1 0.1-0.1s0-0.1-0.1-0.1c0 0-0.1 0-0.2-0.1-0.1 0-0.1-0.1-0.2-0.1 0.1 0 0.2 0 0.3-0.1h0.2c0.1 0.1 0.3 0.1 0.4-0.1h0.1 0.1l0.1-0.1h0.8 0.2c0.3 0 0.4 0.2 0.6 0.5 0.1 0.2 0.1 0.4 0.1 0.5 0 0.3 0 0.6-0.1 0.8v0.1c0 0.2 0.1 0.4 0.1 0.5s0 0.3-0.2 0.4c-0.1 0-0.2 0.2-0.3 0.1 0 0.4-0.2 0.4-0.4 0.4-0.2 0.1-0.4 0.2-0.6 0.4h-0.2v-0.1-0.1c-0.2 0-0.2 0.1-0.3 0.2-0.1 0.2-0.1 0.2-0.2 0l-0.7 0.7c-0.1 0-0.2-0.1-0.3-0.1h0.1v-0.1c-0.2 0-0.5 0.1-0.7 0.1-0.3 0-0.5 0-0.8-0.2l0.3-0.3c-0.1 0-0.2-0.1-0.3-0.1-0.3-0.1-0.6 0-0.9-0.2l-0.6-0.3-0.6-0.3c-0.1-0.1-0.2-0.1-0.3-0.2-0.2-0.1-0.4-0.1-0.5-0.2h-0.1c-0.1 0-0.2 0-0.3 0.1-0.1 0-0.2 0-0.3 0.1-0.1-0.1-0.2-0.1-0.3-0.2h-0.2c-0.2-0.1-0.4-0.1-0.7 0-0.2 0.1-0.3 0.1-0.5 0.2s-0.4 0-0.6 0.2c0.1 0.4-0.2 0.4-0.4 0.5 0 0 0-0.1-0.1-0.1-0.2 0-0.4-0.1-0.5-0.2s-0.2-0.1-0.2-0.3h-0.4c-0.1 0.1-0.1 0.2-0.2 0.3 0 0-0.1 0.2-0.2 0.1 0 0-0.1 0.1-0.2 0.1h-0.4c-0.2 0.1-0.3 0.1-0.5 0-0.1-0.2-0.2-0.2-0.3-0.1 0 0-0.1 0-0.2 0.1-0.1 0-0.2-0.1-0.2 0-0.1 0.1-0.3 0-0.4 0s-0.2 0-0.3-0.1c-0.2-0.3-0.5-0.3-0.7-0.2-0.3-0.3-0.3-0.3-0.4-0.1-0.2 0-0.4-0.3-0.6-0.1l-0.1-0.1h-0.2-0.2c-0.1 0-0.2 0-0.2-0.1-0.1 0-0.1-0.1-0.2-0.1v0.1c-0.2-0.1-0.2-0.3-0.4-0.2v-0.1c-0.3 0-0.6-0.1-0.8-0.1-0.2-0.2-0.3-0.3-0.5-0.2h-0.1c-0.2 0-0.4-0.1-0.6-0.1s-0.4 0-0.6-0.1c-0.1 0-0.3-0.2-0.4-0.3h0.4 0.7c0.3 0 0.7-0.1 1-0.1h0.1c0.2 0 0.4 0.1 0.5 0.1h0.5c0.3-0.1 0.4-0.1 0.4-0.2 0 0 0.1-0.1 0.1 0 0.2 0.2 0.3 0.1 0.4 0h0.1c0.1-0.1 0.2 0 0.2 0 0.1 0 0.2 0.1 0.2 0.1 0.2 0 0.3 0.1 0.5 0.1 0.2 0.1 0.5 0.2 0.6 0.2 0.2 0.1 0.4 0.1 0.5 0 0 0 0.1 0 0.2 0.1h0.1c0.1-0.1 0.2 0 0.4 0h0.1l0.1-0.1c0.2 0 0.3-0.1 0.2-0.3 0-0.2-0.1-0.3-0.1-0.5-0.1-0.1-0.1-0.3-0.3-0.5l-0.1 0.1h-0.3c-0.1 0-0.1-0.1-0.2-0.1h-0.2c-0.1 0-0.2-0.1-0.3-0.1h-0.5c-0.2 0-0.4 0.1-0.5-0.2-0.3 0.1-0.5 0.2-0.7 0.1-0.1 0-0.2 0.1-0.2 0.2-0.1 0.2-0.1 0.4-0.1 0.6-0.1-0.2-0.2-0.3-0.2-0.5h-0.2c-0.1 0-0.2 0.1-0.4 0-0.2 0-0.4 0-0.5 0.1-0.3-0.1-0.6 0-1 0.1-0.3 0.1-0.6 0.2-0.9 0.3-0.2 0.1-0.4 0.3-0.6 0.3v-0.3c0.2-0.2 0.4-0.5 0.7-0.5 0.2 0 0.3-0.1 0.5-0.2l0.6-0.3c0.2 0 0.5-0.1 0.8-0.2 0 0 0.1 0 0.1-0.1l0.2-0.2c0.4-0.1 0.7-0.1 1.1-0.2 0.1 0 0.2 0 0.3-0.1h0.1 0.1zm9.4 2.1c0-0.1-0.1-0.1 0 0-0.1-0.1-0.1-0.1 0 0-0.1-0.1-0.1-0.1 0 0 0 0.1 0 0.2 0.1 0.2s0.1 0.1 0.2 0.2c0 0 0 0.1 0.1 0.1 0.2 0.1 0.4 0.2 0.5 0.3 0.1 0 0.1 0 0.2 0.1h0.1c0.1 0.1 0.2 0.3 0.4 0.2 0 0 0.1 0 0.1 0.1 0.1 0 0.2 0.1 0.3 0.1h0.4c0.1 0.1 0.2 0.1 0.3 0.1h0.2c0.2 0.1 0.4 0.1 0.6 0.1 0.3 0 0.6 0 0.8-0.1s0.3-0.3 0.3-0.5c0-0.1-0.1-0.2-0.1-0.2-0.1-0.2-0.2-0.3-0.3-0.4-0.2-0.2-0.5-0.1-0.8 0 0.1 0.2 0.1 0.3 0.2 0.5-0.2-0.1-0.5 0-0.7-0.3v0.1c-0.2 0-0.2-0.2-0.3-0.2l-0.1 0.1c-0.1-0.1-0.3-0.1-0.4-0.1s-0.2-0.1-0.3-0.1c-0.3-0.3-0.4-0.3-0.5-0.3-0.2 0-0.4 0.1-0.4 0-0.2-0.2-0.5-0.1-0.7-0.2-0.1 0-0.2 0-0.2 0.2zm-3-0.7c-0.1 0-0.2 0.1-0.2-0.1 0 0-0.1-0.1-0.2-0.1h-0.1c-0.2 0-0.4-0.1-0.6-0.1v0.1c-0.2 0-0.3 0.1-0.4 0.1v0.3c0 0.2 0.1 0.3 0.1 0.5 0.1 0.2 0.1 0.2 0.2 0.2h0.1c0.3 0.2 0.5 0 0.8 0.1 0.1 0 0.1 0 0.2 0.1 0.1 0 0.1 0.1 0.2 0.1-0.1-0.5 0.1-0.9-0.1-1.2zm8.2 2c0.4-0.1 0.6-0.4 0.9-0.6 0.2-0.2 0.3-0.4 0.6-0.3 0 0 0.1 0 0.1-0.1v-0.2s-0.1-0.1-0.2-0.1c0 0 0 0.1-0.1 0.1h-0.7-0.3c-0.1 0-0.2 0.1-0.4 0.1-0.1 0-0.1 0.1-0.1 0.1 0 0.4 0.1 0.7 0.2 1z"/>
<path class="st2" d="m1.4 3.2c0.2 0.1 0.3 0.3 0.5 0.4h0.5c0.2 0 0.4 0 0.6 0.1h0.1c0.2-0.1 0.3 0 0.5 0.1s0.5 0.2 0.8 0.2v0.1c0.2-0.1 0.2 0.1 0.3 0.2v-0.1c0.1 0 0.2 0 0.2 0.1 0.1 0.1 0.1 0.1 0.2 0h0.2 0.2s0.1 0 0.1 0.1c0.2-0.1 0.4 0.2 0.6 0.1 0.1-0.2 0.1-0.2 0.4 0.1 0.2-0.1 0.5 0 0.7 0.2 0.1 0.1 0.2 0.1 0.3 0.1s0.3 0.1 0.4 0h0.2c0.1 0 0.1 0 0.2-0.1 0.2-0.1 0.3 0 0.4 0.1 0.2 0.2 0.3 0.2 0.5 0.2h0.4c0.1 0 0.2-0.1 0.2-0.1 0.1 0.1 0.2 0 0.2-0.1 0.1-0.1 0.1-0.2 0.2-0.3h0.4c0 0.2 0.1 0.2 0.2 0.3 0.2 0 0.3 0.1 0.5 0.1 0 0 0 0.1 0.1 0.1 0.2-0.1 0.5-0.1 0.7-0.3 0.2-0.1 0.4-0.1 0.6-0.2s0.3-0.1 0.5-0.2 0.4-0.1 0.7 0h0.2c0.1 0 0.2 0.1 0.3 0.2 0.1 0 0.2 0 0.3-0.1 0.1 0 0.2 0 0.3-0.1h0.1c0.2 0.1 0.4 0.1 0.5 0.2s0.2 0.1 0.3 0.2l0.6 0.3c0.2 0.1 0.5 0.2 0.6 0.3 0.3 0.2 0.6 0.1 0.9 0.2 0.1 0 0.2 0 0.3 0.1l-0.3 0.3c0.2 0.2 0.5 0.2 0.8 0.2 0.2 0 0.5-0.1 0.7-0.1v0.1h-0.1c0.1 0 0.2 0.1 0.3 0.1l0.7-0.7c0.1 0.1 0.1 0.1 0.2 0s0.1-0.3 0.3-0.2v0.1 0.1h0.2c0.2-0.2 0.4-0.3 0.6-0.4 0.1-0.1 0.3 0 0.4-0.2 0.1 0.1 0.2-0.1 0.3-0.1 0.2-0.1 0.2-0.2 0.2-0.4s-0.1-0.4-0.1-0.5v-0.1c0-0.3 0-0.6 0.1-0.8 0 0.2 0.1 0.4 0.1 0.6 0 0.1 0.1 0.2 0.1 0.3 0.1 0.5 0.2 1-0.1 1.4v0.1c-0.2 0.1-0.3 0.2-0.3 0.4 0 0.1-0.1 0.1-0.1 0.2-0.9-0.2-1.2-0.1-1.6-0.1-0.6 0.1-1 0.3-1.5 0.5-0.3 0.2-0.7 0.2-1 0.3s-0.6 0.1-0.9 0.1h-0.5c-0.6 0.1-1.2-0.1-1.8-0.2-0.9-0.2-1.9-0.2-2.8-0.2-1.2 0-2.4 0-3.6-0.1-0.8 0-1.7 0-2.5-0.3-0.4-0.1-0.9-0.3-1.3-0.5-0.9-0.3-1.9-0.7-2.8-1.1-0.2-0.1-0.5-0.3-0.7-0.4-0.5-0.3-0.5-1-0.2-1.4s0.6-0.7 1.1-0.8c0.7-0.2 1.4-0.5 2.1-0.8 0.4-0.1 0.8-0.1 1.3-0.2-0.1 0-0.2 0-0.3 0.1-0.4 0.1-0.7 0.1-1.1 0.2-0.1 0-0.1 0.1-0.2 0.2 0 0 0 0.1-0.1 0.1-0.3 0.1-0.6 0.2-0.8 0.2-0.2 0.1-0.4 0.2-0.6 0.2-0.1 0.1-0.3 0.2-0.5 0.2-0.3 0.1-0.5 0.4-0.7 0.5-0.1 0 0 0.2 0 0.3v0.3z"/>
<path class="st3" d="m22.4 3.4c0-0.2-0.1-0.4-0.1-0.6s0-0.4-0.1-0.5c-0.1-0.2-0.3-0.4-0.6-0.5l-0.6-0.3 0.1-0.1c0.3 0 0.5-0.1 0.8-0.1h0.1 0.1 0.3 0.1c0.1 0.1 0.1 0.2 0.3 0.1h0.1c0.2 0 0.5 0.1 0.7 0.1l0.2 0.2c0.1 0.2 0.1 0.3 0.2 0.4s0.2 0.2 0.3 0.4c-0.1 0.2-0.1 0.2 0.1 0.4 0-0.1 0-0.2-0.1-0.3 0.1 0 0.3 0.2 0.3 0.4v0.2c0.2 0.1 0.2 0.2 0.2 0.4 0.2-0.1 0.3-0.2 0.5-0.2h0.2c0.2 0 0.3 0.1 0.5 0.1 0.1 0 0.2 0 0.2-0.1 0.1 0 0.2-0.1 0.3-0.1s0.1-0.1 0.1-0.1h-0.2c-0.1 0-0.3 0.1-0.4 0s-0.2-0.2-0.4-0.2c-0.1 0-0.1-0.1-0.2-0.1-0.1-0.1-0.1-0.2-0.2-0.3 0.3 0.1 0.6 0.2 1 0.4 0.2 0.1 0.5 0.1 0.7 0h0.1 0.1c0.5-0.1 1.1-0.3 1.6-0.6l0.2-0.2c0.1-0.1 0.3-0.2 0.4-0.3 0.3 0.1 0.3 0.1 0.2 0.4-0.3-0.3-0.5-0.1-0.7 0.2-0.2 0.2-0.4 0.4-0.7 0.4-0.1 0-0.1 0-0.2 0.1-0.4 0.2-0.7 0.3-1.1 0.4h-0.1c-0.1 0-0.3 0.1-0.4 0.1h-0.2c-0.1 0-0.2 0-0.3 0.1h-0.1c-0.2 0.1-0.3 0.3-0.4 0.6 0 0 0 0.1-0.1 0.1-0.1 0.1-0.2 0.1-0.3 0.2v-0.3h-0.3v-0.2c-0.2 0.3-0.2 0.5-0.1 0.8l-0.1 0.1v-0.2c-0.1 0.1-0.1 0.1-0.1 0.2 0-0.1 0.1-0.3 0.1-0.4 0-0.2 0-0.4-0.1-0.5s-0.1-0.1 0-0.3c0-0.1 0-0.2-0.1-0.3l-0.1 0.1c0-0.2-0.2-0.2-0.4-0.3h-0.5-0.1c-0.4 0.1-0.5 0.1-0.7 0.2zm0.3-0.7c0 0.2 0.1 0.3 0.3 0.2 0.1 0 0.1-0.1 0.2-0.1h0.2c0.1 0 0.1-0.1 0.2-0.2-0.1 0-0.2-0.1-0.2-0.1-0.3 0-0.5-0.1-0.7 0.2 0.1-0.2 0.1-0.2 0.1-0.3h-0.1v-0.1c-0.4 0.1-0.3 0.4-0.2 0.7 0.1-0.1 0.1-0.2 0.2-0.3zm-0.4-0.7c0.1-0.1 0.1-0.3 0.1-0.3-0.1 0-0.3 0-0.4-0.1v0.1c0 0.2 0.1 0.3 0.3 0.3zm1.3 1v0.3c0.2-0.2 0.1-0.3 0-0.3zm0.4 0l-0.2-0.2c0 0.1 0 0.2 0.2 0.2z"/>
<path class="st4" d="m22.4 3.4c0.1-0.1 0.3-0.1 0.5-0.1h0.1c0.2 0 0.4-0.1 0.5 0 0.2 0 0.3 0 0.4 0.3l0.1-0.1c0 0.1 0.1 0.2 0.1 0.3v0.3c0.1 0.1 0.1 0.3 0.1 0.5 0 0.1 0 0.3-0.1 0.4 0-0.1 0.1-0.1 0.1-0.2v0.2c0.1 0 0 0.1-0.2 0.2-0.3 0.2-0.6 0.4-1 0.5s-0.7 0.1-1.1 0.1c0-0.1 0.1-0.1 0.1-0.2 0.3-0.1 0.3-0.1 0.3-0.4v-0.1c0.3-0.5 0.2-0.9 0.1-1.4 0.1-0.1 0.1-0.2 0-0.3zm0.1 2.3c-0.1 0 0 0 0 0 0.4 0.1 0.7-0.2 1-0.3 0 0 0.1-0.1 0.1-0.2v-0.2c0.1-0.2 0.1-0.2-0.2-0.3l-0.3-0.3c-0.1-0.1-0.1-0.2-0.1-0.3h-0.1l-0.1 0.1v0.1c0 0.2 0 0.3-0.1 0.5s-0.2 0.3-0.4 0.5v0.1c0.2 0.1 0.2 0.2 0.2 0.3zm0.5-1.8c0.1 0.2 0.3 0.2 0.4 0.2h0.2 0.2c0.1-0.1 0.1-0.1 0.1-0.2-0.2-0.1-0.3-0.1-0.4-0.1-0.2 0-0.3 0.1-0.5 0.1zm-0.2-0.3c-0.1-0.1-0.1-0.2-0.2-0.2h-0.1v0.3c0.1-0.1 0.2-0.1 0.3-0.1z"/>
<path class="st5" d="m25.3 2.3c0.1 0.1 0.1 0.2 0.2 0.3s0.1 0.1 0.2 0.1c0.2 0 0.3 0.1 0.4 0.2s0.3 0 0.4 0h0.2l-0.1 0.1c-0.1 0-0.2 0.1-0.3 0.1s-0.2 0.1-0.2 0.1c-0.2 0-0.3 0-0.5-0.1h-0.2c-0.1 0.1-0.3 0.1-0.5 0.2 0-0.2-0.1-0.3-0.2-0.4v-0.2c0-0.2-0.2-0.4-0.3-0.4 0 0.1 0 0.2 0.1 0.3-0.2-0.1-0.2-0.2-0.1-0.4-0.1-0.1-0.2-0.2-0.3-0.4h0.7c0.1 0 0.2 0.1 0.3 0.1 0 0.3 0.1 0.4 0.2 0.4z"/>
<path class="st4" d="m25.3 4.1c0-0.3 0.2-0.4 0.4-0.6h0.1c0.1 0 0.2 0 0.3-0.1h0.2c0.1 0 0.3-0.1 0.4-0.1h0.1c0.4-0.1 0.7-0.3 1.1-0.4 0.1 0 0.1-0.1 0.2-0.1 0.3 0 0.5-0.2 0.7-0.4s0.4-0.4 0.7-0.5c-0.1 0.1-0.1 0.3-0.2 0.4-0.3 0.3-0.6 0.6-1 0.8-0.5 0.2-0.9 0.4-1.4 0.5-0.2 0.1-0.4 0.1-0.6 0.2-0.3 0.1-0.6 0.2-1 0.3z"/>
<path class="st6" d="m17.3 1.6h-0.4c-0.1 0-0.2 0-0.2 0.1-0.1 0.1-0.3 0.1-0.4 0-0.2-0.1-0.3 0-0.5 0-0.1 0-0.2 0.1-0.3 0.1s-0.3 0-0.4-0.1c-0.2-0.1-0.4-0.2-0.7-0.2h-0.4c-0.1 0-0.3 0-0.4 0.1 0 0-0.2 0-0.2-0.1h-0.2v0.1c0.1 0 0.1 0.1 0.2 0.1-0.4 0.1-0.4-0.2-0.6-0.2h0.1c-0.2-0.1-0.4-0.1-0.7-0.2-0.2-0.1-0.5-0.2-0.7-0.3 0.4 0.1 0.7 0.1 1.1 0.2s0.8 0.2 1.2 0.1c0.3 0 0.6 0 0.9 0.1h0.8 1 0.7c0 0.1 0.1 0.2 0.1 0.2z"/>
<path class="st4" d="m21.1 1.5v0c0.1 0.2 0.3 0.3 0.5 0.4h-0.2-0.8c0.1-0.1 0.1-0.3 0.2-0.4h0.3z"/>
<path class="st4" d="m24.5 4.7c0-0.3-0.1-0.6 0.1-0.8v0.2h0.3v0.3c-0.1 0.2-0.3 0.3-0.4 0.3z"/>
<path class="st5" d="m29.3 1.5c-0.1 0.1-0.3 0.2-0.4 0.3 0 0.1-0.1 0.2-0.2 0.2-0.5 0.3-1 0.5-1.6 0.6h-0.1c0.2-0.1 0.3-0.2 0.5-0.2 0.5-0.1 0.8-0.2 1.2-0.4l0.2-0.2c0.1-0.2 0.2-0.3 0.4-0.3z"/>
<path class="st6" d="m19.8 2.1c-0.1 0-0.2 0-0.3 0.1 0.1 0.1 0.1 0.1 0.2 0.1s0.1 0 0.2 0.1l0.1 0.1-0.1 0.1c-0.2 0-0.5-0.3-0.6-0.4 0-0.1-0.1-0.1-0.2-0.2 0.2 0 0.5 0 0.7 0.1z"/>
<path class="st5" d="m23.6 1.6c-0.2 0-0.5-0.1-0.7-0.1h-0.1c-0.1 0.1-0.2 0-0.3-0.1 0.3 0 0.7 0.1 1.1 0.2-0.1 0-0.1 0 0 0z"/>
<path class="st6" d="m11.4 1c-0.2 0-0.3 0-0.4-0.1 0.1 0 0.3 0.1 0.4 0.1z"/>
<path class="st6" d="m20.4 2c-0.1 0.1-0.2 0.1-0.4 0.1 0.1 0 0.2-0.1 0.4-0.1z"/>
<path class="st5" d="m22.4 1.4h-0.3 0.3z"/>
<path class="st6" d="m10.9 0.9h-0.2c0-0.1 0.1 0 0.2 0z"/>
<path class="st2" d="m6.2 0.8h-0.2 0.2z"/>
<path class="st2" d="m5.9 0.9h-0.1 0.1z"/>
<path class="st6" d="m20.6 2h-0.1 0.1z"/>
<path class="st5" d="m22 1.4s-0.1 0 0 0c-0.1 0 0 0 0 0z"/>
<path class="st4" d="m25.2 4.3v0 0z"/>
<path class="st4" d="m25.3 4.2z"/>
<path class="st6" d="m1.4 3.2v-0.2c0.2 0 0.4-0.2 0.6-0.3 0.3-0.1 0.5-0.2 0.8-0.3s0.6-0.1 1-0.1c0.2-0.1 0.4-0.1 0.6 0h0.4 0.2c0 0.1 0.1 0.2 0.2 0.4 0-0.2 0-0.4 0.1-0.6 0-0.1 0.2-0.2 0.2-0.2 0.2 0.1 0.4 0 0.7-0.1 0 0.3 0.3 0.1 0.5 0.2h0.5c0.1 0 0.3 0.1 0.4 0.1h0.2c0.1 0 0.2 0 0.2 0.1h0.3l0.1-0.1c0.2 0.1 0.2 0.4 0.3 0.6 0 0.2 0 0.3 0.1 0.5s0 0.3-0.2 0.3c0 0-0.1 0-0.1 0.1h-0.1c-0.1 0-0.2-0.1-0.4 0h-0.1c-0.1 0-0.1-0.1-0.2-0.1-0.2 0.1-0.4 0-0.5 0-0.2-0.1-0.5-0.2-0.6-0.2-0.2-0.1-0.3-0.1-0.5-0.2-0.1 0-0.2 0-0.3-0.1 0 0-0.1-0.1-0.2-0.1h-0.1c-0.2 0.1-0.3 0.2-0.4 0.1 0-0.1-0.1 0-0.1 0 0 0.1-0.1 0.1-0.2 0.1h-0.5c-0.2 0-0.4 0-0.5-0.1h-0.1c-0.3 0-0.7 0.1-1 0.1h-0.7c-0.3 0-0.5 0.1-0.6 0.1z"/>
<path class="st6" d="m18.1 3.4c0.2 0.3 0.5 0.2 0.7 0.3-0.1-0.2-0.1-0.3-0.2-0.5 0.3-0.1 0.5-0.1 0.8 0 0.1 0.1 0.2 0.3 0.3 0.4s0.1 0.2 0.1 0.2c0 0.2-0.1 0.4-0.3 0.5-0.3 0.1-0.6 0.1-0.8 0.1s-0.4 0-0.6-0.1c0 0-0.1-0.1-0.2 0-0.1 0-0.2 0-0.3-0.1s-0.3-0.1-0.4 0c-0.1 0-0.2-0.1-0.3-0.1l-0.1-0.1c-0.2 0.1-0.3-0.1-0.4-0.2h-0.1c-0.1 0-0.1 0-0.2-0.1-0.2-0.1-0.4-0.2-0.5-0.3l-0.1-0.1c-0.1-0.1-0.1-0.2-0.2-0.2l-0.1-0.1c0-0.1 0.1-0.1 0.2-0.1 0.2 0.1 0.5 0 0.7 0.2 0.1 0.1 0.3 0 0.4 0s0.2 0 0.3 0.1c0.1 0 0.2 0.1 0.3 0.1 0.2 0 0.3 0 0.4 0.1 0 0 0.1 0 0.1-0.1 0.3 0 0.3 0.2 0.5 0.1v0z"/>
<path class="st6" d="m12.3 2.3c0.2 0.4 0 0.7 0 1.1-0.1-0.1-0.1-0.1-0.2-0.1s-0.1 0-0.2-0.1c-0.3 0-0.6 0.2-0.8-0.1h-0.1c-0.1 0-0.2 0-0.2-0.2-0.1-0.2-0.1-0.3-0.1-0.5v-0.3c0.1 0 0.3-0.1 0.4-0.1v-0.1c0.2 0 0.4 0.1 0.6 0.1h0.1c0.1 0 0.2 0 0.2 0.1 0.2 0.2 0.2 0.2 0.3 0.2zm-0.6 0v0c0-0.1-0.1-0.1 0 0-0.1 0 0 0 0 0z"/>
<path class="st6" d="m20.5 4.3c-0.1-0.3-0.2-0.6-0.1-0.9l0.1-0.1c0.1 0 0.2-0.1 0.4-0.1h0.3 0.7s0-0.1 0.1-0.1 0.1 0.1 0.2 0.1v0.2s0 0.1-0.1 0.1c-0.3 0-0.4 0.2-0.6 0.3-0.4 0.1-0.6 0.4-1 0.5z"/>
<path class="st6" d="m15.2 3v0-0.1s0.1 0 0 0.1c0.1 0 0 0 0 0z"/>
<path class="st6" d="m18.1 3.4z"/>
<path class="st6" d="m17.7 4.2z"/>
<path class="st7" d="m22.4 5.2c0 0.3-0.1 0.4-0.3 0.4 0-0.2 0.1-0.3 0.3-0.4z"/>
<path class="st7" d="m22.4 5.1v0 0z"/>
<path class="st5" d="m22.7 2.6c0.2-0.2 0.4-0.1 0.6-0.2 0.1 0 0.2 0.1 0.2 0.1-0.1 0.1-0.1 0.2-0.2 0.2h-0.2c-0.1 0-0.1 0.1-0.2 0.1-0.1 0.2-0.2 0.1-0.2-0.2v0z"/>
<path class="st4" d="m22.7 2.6v0c-0.1 0.2-0.1 0.3-0.2 0.4-0.1-0.3-0.2-0.6 0.2-0.7v0.1h0.1c0 0.1-0.1 0.1-0.1 0.2z"/>
<path class="st4" d="m22.3 2c-0.2 0-0.3-0.1-0.4-0.2v-0.1c0.1 0 0.3 0 0.4 0.1v0.2z"/>
<path class="st5" d="m23.6 3c0.1 0.1 0.2 0.1 0 0.3v-0.3z"/>
<path class="st5" d="m24 3c-0.2 0.1-0.2 0-0.2-0.2 0.1 0 0.2 0.1 0.2 0.2z"/>
<path class="st7" d="m22.5 5.7v-0.3-0.1c0.1-0.2 0.3-0.3 0.4-0.5 0.1-0.1 0.1-0.3 0.1-0.5v-0.1s0-0.1 0.1-0.1h0.1c0.1 0.1 0.1 0.2 0.1 0.3l0.3 0.3c0.2 0.1 0.2 0.1 0.2 0.3v0.2c0 0.1-0.1 0.2-0.1 0.2-0.6 0.1-0.9 0.4-1.2 0.3 0 0-0.1 0 0 0z"/>
<path class="st3" d="m23 3.9c0.2 0 0.3-0.1 0.5-0.1 0.1 0 0.3 0.1 0.4 0.1 0 0.1-0.1 0.1-0.1 0.2h-0.2-0.2c-0.1 0-0.3 0-0.4-0.2z"/>
<path class="st7" d="m22.8 3.6h-0.2v-0.3h0.1c0 0.1 0 0.2 0.1 0.3z"/>
<path class="st1" d="m11.7 2.3s-0.1 0 0 0c-0.1-0.1 0-0.1 0 0v0z"/>
</svg>
