<svg xmlns="http://www.w3.org/2000/svg" width="76" height="76" viewBox="0 0 76 76">
    <path fill="#FFD118" fill-rule="evenodd" d="M38 76C17.013 76 0 58.987 0 38S17.013 0 38 0s38 17.013 38 38-17.013 38-38 38zm0-4c18.778 0 34-15.222 34-34S56.778 4 38 4 4 19.222 4 38s15.222 34 34 34zm0-4C21.431 68 8 54.569 8 38 8 21.431 21.431 8 38 8c16.569 0 30 13.431 30 30 0 16.569-13.431 30-30 30zm-5.989-42.098a3 3 0 0 0-4.339 2.684v19.485a3 3 0 0 0 4.491 2.603L50.348 40.26a3 3 0 0 0-.151-5.288l-18.186-9.07z"/>
</svg>
