<?xml version="1.0" encoding="utf-8"?>
<!-- Generator: Adobe Illustrator 16.0.0, SVG Export Plug-In . SVG Version: 6.00 Build 0)  -->
<!DOCTYPE svg PUBLIC "-//W3C//DTD SVG 1.1//EN" "http://www.w3.org/Graphics/SVG/1.1/DTD/svg11.dtd">
<svg version="1.1" id="Capa_1" xmlns="http://www.w3.org/2000/svg" xmlns:xlink="http://www.w3.org/1999/xlink" x="0px" y="0px"
	 width="63px" height="51px" viewBox="0 0 63 51" enable-background="new 0 0 63 51" xml:space="preserve">
<g>
	<g enable-background="new    ">
		<path fill="#494949" d="M0.216,37.199h1.959l1.83,7.434h0.029l1.815-7.434h1.945l-2.65,10.4H2.881L0.216,37.199z"/>
		<path fill="#494949" d="M10.009,44.113v1.037c0,0.778,0.461,1.124,1.066,1.124c0.763,0,1.066-0.489,1.066-1.095h1.815
			c-0.086,1.613-1.051,2.564-2.881,2.564c-1.729,0-2.881-1.066-2.881-2.78v-2.564c0-1.714,1.152-2.78,2.881-2.78
			c1.685,0,2.881,1.066,2.881,2.665v1.829H10.009z M12.141,42.645v-0.432c0-0.691-0.331-1.124-1.066-1.124s-1.066,0.433-1.066,1.124
			v0.432H12.141z"/>
		<path fill="#494949" d="M21.559,41.204c-0.144-0.028-0.417-0.115-0.562-0.115c-0.187,0-0.374,0.101-0.619,0.173
			c0.115,0.519,0.23,0.907,0.23,1.383c0,1.959-0.835,3.082-2.622,3.082c-0.259,0-0.475-0.014-0.749-0.101
			c-0.101,0.145-0.317,0.274-0.317,0.461c0,0.979,4.552-0.532,4.552,2.305c0,1.34-1.383,1.974-3.486,1.974
			c-1.93,0-2.996-0.547-2.996-1.426c0-0.591,0.663-0.951,1.095-1.225c-0.432-0.26-0.749-0.605-0.749-1.109
			c0-0.619,0.648-1.037,1.095-1.311c-0.878-0.576-1.181-1.412-1.181-2.723c0-1.686,0.648-2.953,2.679-2.953
			c0.749,0,1.584,0.346,2.045,0.908c0.461-0.576,0.907-0.908,1.584-0.908V41.204z M17.094,47.945
			c-0.188,0.188-0.375,0.346-0.375,0.634c0,0.403,0.59,0.576,1.657,0.576c0.864,0,1.368-0.216,1.368-0.619
			c0-0.26-0.115-0.375-0.663-0.418L17.094,47.945z M17.929,41.089c-0.691,0-0.951,0.476-0.951,1.7c0,0.979,0.317,1.469,0.864,1.469
			c0.778,0,1.037-0.288,1.037-1.656C18.88,41.593,18.563,41.089,17.929,41.089z"/>
		<path fill="#494949" d="M24.409,44.113v1.037c0,0.778,0.461,1.124,1.066,1.124c0.764,0,1.066-0.489,1.066-1.095h1.815
			c-0.086,1.613-1.052,2.564-2.881,2.564c-1.729,0-2.881-1.066-2.881-2.78v-2.564c0-1.714,1.152-2.78,2.881-2.78
			c1.686,0,2.881,1.066,2.881,2.665v1.829H24.409z M26.541,42.645v-0.432c0-0.691-0.332-1.124-1.066-1.124s-1.066,0.433-1.066,1.124
			v0.432H26.541z"/>
		<path fill="#494949" d="M29.16,41.578v-1.469h0.72v-2.132h1.815v2.132h1.167v1.469h-1.167v4.005c0,0.389,0.331,0.576,0.821,0.576
			c0.13,0,0.245,0,0.36-0.015v1.527c-0.346,0.058-0.691,0.072-1.038,0.072c-1.181,0-1.959-0.433-1.959-1.557v-4.609H29.16z"/>
		<path fill="#494949" d="M33.769,42.054c0.072-0.878,0.433-1.483,0.965-1.872c0.519-0.389,1.225-0.563,1.944-0.563
			c1.931,0,2.665,0.98,2.665,2.377v4.97c0,0.216,0.044,0.433,0.101,0.634h-1.814c-0.043-0.201-0.072-0.446-0.13-0.764
			c-0.532,0.533-1.253,0.908-2.16,0.908c-1.095,0-1.801-0.605-1.801-1.873c0-1.814,1.729-2.593,3.99-3.27v-0.576
			c0-0.678-0.418-0.937-0.937-0.937c-0.547,0-1.008,0.403-1.008,0.965H33.769z M37.528,43.768c-1.081,0.375-2.175,0.98-2.175,1.801
			c0,0.519,0.316,0.821,0.807,0.821c0.547,0,0.936-0.288,1.368-0.72V43.768z"/>
		<path fill="#494949" d="M41.141,47.6v-7.836h1.772v1.037h0.028c0.418-0.777,0.965-1.182,1.873-1.182v1.959
			c-0.303-0.086-0.648-0.201-0.965-0.201c-0.591,0-0.894,0.446-0.894,0.864V47.6H41.141z"/>
		<path fill="#494949" d="M46.167,38.41v-1.643h1.815v1.643H46.167z M47.982,39.764V47.6h-1.815v-7.836H47.982z"/>
		<path fill="#494949" d="M49.767,42.054c0.072-0.878,0.433-1.483,0.965-1.872c0.519-0.389,1.225-0.563,1.944-0.563
			c1.931,0,2.665,0.98,2.665,2.377v4.97c0,0.216,0.044,0.433,0.101,0.634h-1.814c-0.043-0.201-0.072-0.446-0.13-0.764
			c-0.532,0.533-1.253,0.908-2.16,0.908c-1.095,0-1.801-0.605-1.801-1.873c0-1.814,1.729-2.593,3.99-3.27v-0.576
			c0-0.678-0.418-0.937-0.937-0.937c-0.547,0-1.008,0.403-1.008,0.965H49.767z M53.526,43.768c-1.081,0.375-2.175,0.98-2.175,1.801
			c0,0.519,0.316,0.821,0.807,0.821c0.547,0,0.936-0.288,1.368-0.72V43.768z"/>
		<path fill="#494949" d="M57.14,47.6v-7.836h1.757v0.893c0.663-0.576,1.282-1.037,2.031-1.037c1.109,0,1.686,0.563,1.686,2.018
			V47.6h-1.814v-5.762c0-0.519-0.174-0.864-0.663-0.864c-0.374,0-0.792,0.36-1.181,0.706v5.92H57.14z"/>
	</g>
	<path fill="#46167E" stroke="#46167E" stroke-width="0.5" d="M43.495,14.2l-0.099,0.216c-0.287,0.642-0.646,1.442-1.301,2.348
		c-0.642,0.912-1.072,1.49-1.869,1.974c-0.43,0.274-1.556,0.87-3.008,0.677c-1.468-0.197-2.414-1.051-2.754-1.409l-0.044-0.042
		c-0.022-0.02-0.192-0.175-0.405-0.424c0.725-0.718,1.506-1.268,2.379-1.648c1.005-0.463,2.096-0.708,3.203-0.717
		c0.418-0.004,0.764-0.373,0.758-0.822c-0.004-0.45-0.353-0.81-0.776-0.805c-1.327,0.015-2.599,0.3-3.782,0.845
		c-0.949,0.415-1.816,0.99-2.617,1.74c-0.141-0.39-0.176-0.811-0.102-1.219c0.074-0.366,0.216-0.647,0.502-1.002l0.063-0.079
		c0.235-0.305,0.955-1.236,2.67-2.019c1.193-0.534,2.183-0.73,3.074-0.864c0.944-0.132,2.338-0.186,4.959-0.193
		c0.137,0,0.271,0,0.397-0.003C44.475,12.179,43.896,13.217,43.495,14.2z M26.11,18.523l-0.102-0.002
		c-3.523-0.098-5.912-2.391-6.355-2.85c-1.737-1.834-2.186-3.93-2.334-4.62l-0.014-0.066c-0.203-1.226-0.023-3.425,0.46-7.875
		l0.1-0.917l0.27,0.03c1.764,0.191,6.231,1.015,9.626,4.513c2.344,2.496,3.304,5.33,3.695,7.323
		c-0.002,0.198-0.01,0.403-0.021,0.617c-0.073,0.63-0.267,1.24-0.572,1.796c-2.121-1.192-3.985-2.791-5.487-4.705
		c-1.055-1.36-1.918-2.877-2.636-4.632c-0.17-0.416-0.645-0.615-1.061-0.445c-0.416,0.17-0.616,0.645-0.446,1.061l0,0
		c0.775,1.894,1.71,3.535,2.859,5.018c1.57,1.999,3.509,3.689,5.658,4.945C28.603,18.576,27.284,18.553,26.11,18.523L26.11,18.523z
		 M45.848,9.073c-0.266-0.017-0.533-0.018-0.8-0.005c-0.21,0.006-0.446,0.013-0.7,0.01c-2.697,0.008-4.146,0.066-5.171,0.208
		c-0.952,0.141-2.103,0.367-3.467,0.974c-1.614,0.733-2.509,1.593-2.966,2.117c-0.568-2.035-1.67-4.533-3.806-6.795
		c-3.772-3.865-8.687-4.768-10.626-4.978L16.425,0.4l-0.276,2.52c-0.51,4.667-0.684,6.853-0.44,8.308l0.02,0.1
		c0.171,0.795,0.693,3.213,2.748,5.372c0.687,0.706,3.074,2.89,6.666,3.277c0.268,0.03,0.542,0.048,0.823,0.056l0.103,0.003
		c1.383,0.035,3.274,0.083,4.917-1.323c-0.084,0.584-0.19,1.296-0.33,2.195c-0.177,1.204-0.357,2.408-0.542,3.612
		c-0.122,0.912-0.011,2.642,0.124,3.178c0.28,1.21,0.755,2.362,1.448,3.509c0.231,0.385,0.731,0.509,1.116,0.277
		c0.384-0.227,0.51-0.721,0.282-1.104c0-0.002-0.002-0.004-0.003-0.006c-0.612-1.014-1.013-1.984-1.26-3.055
		c-0.082-0.321-0.195-1.835-0.096-2.57c0.106-0.685,0.27-1.765,0.541-3.601c0.194-1.257,0.325-2.157,0.42-2.845
		c0.297,0.372,0.573,0.636,0.717,0.767c0.468,0.485,1.716,1.585,3.625,1.838c0.437,0.058,0.85,0.063,1.236,0.03
		c0.973-0.083,1.911-0.396,2.74-0.912c1.02-0.616,1.605-1.377,2.316-2.383c0.746-1.028,1.16-1.945,1.463-2.614l0.107-0.236
		c0.459-1.116,1.088-2.29,1.381-3.912c0.088-0.237,0.166-0.503,0.244-0.762L46.8,9.16l-0.95-0.088L45.848,9.073z"/>
</g>
</svg>
